<svg xmlns="http://www.w3.org/2000/svg" xmlns:xlink="http://www.w3.org/1999/xlink" contentStyleType="text/css" height="416px" preserveAspectRatio="none" style="width:547px;height:416px;background:#FFFFFF;" version="1.1" viewBox="0 0 547 416" width="547px" zoomAndPan="magnify"><defs/><g><!--cluster it.unimi.di.prog2.h09--><g id="cluster_it.unimi.di.prog2.h09"><path d="M16.5,4 L184.96,4 A3.75,3.75 0 0 1 187.46,6.5 L194.46,26.2969 L537.5,26.2969 A2.5,2.5 0 0 1 540,28.7969 L540,380.5 A2.5,2.5 0 0 1 537.5,383 L16.5,383 A2.5,2.5 0 0 1 14,380.5 L14,6.5 A2.5,2.5 0 0 1 16.5,4 " fill="none" style="stroke:#000000;stroke-width:1.5;"/><line style="stroke:#000000;stroke-width:1.5;" x1="14" x2="194.46" y1="26.2969" y2="26.2969"/><text fill="#000000" font-family="sans-serif" font-size="14" font-weight="bold" lengthAdjust="spacing" textLength="167.46" x="18" y="18.9951">it.unimi.di.prog2.h09</text></g><!--class IntSet--><a href="IntSet.html" target="_top" title="IntSet.html" xlink:actuate="onRequest" xlink:href="IntSet.html" xlink:show="new" xlink:title="IntSet.html" xlink:type="simple"><g id="elem_IntSet"><rect codeLine="6" fill="#F1F1F1" height="162.0781" id="IntSet" rx="2.5" ry="2.5" style="stroke:#181818;stroke-width:0.5;" width="153.2578" x="22.5" y="72"/><ellipse cx="74.1387" cy="88" fill="#ADD1B2" rx="11" ry="11" style="stroke:#181818;stroke-width:1.0;"/><path d="M77.1074,93.6406 Q76.5293,93.9375 75.8887,94.0781 Q75.248,94.2344 74.5449,94.2344 Q72.0449,94.2344 70.7168,92.5938 Q69.4043,90.9375 69.4043,87.8125 Q69.4043,84.6875 70.7168,83.0313 Q72.0449,81.375 74.5449,81.375 Q75.248,81.375 75.8887,81.5313 Q76.5449,81.6875 77.1074,81.9844 L77.1074,84.7031 Q76.4824,84.125 75.8887,83.8594 Q75.2949,83.5781 74.6699,83.5781 Q73.3262,83.5781 72.6387,84.6563 Q71.9512,85.7188 71.9512,87.8125 Q71.9512,89.9063 72.6387,90.9844 Q73.3262,92.0469 74.6699,92.0469 Q75.2949,92.0469 75.8887,91.7813 Q76.4824,91.5 77.1074,90.9219 L77.1074,93.6406 Z " fill="#000000"/><text fill="#000000" font-family="sans-serif" font-size="14" lengthAdjust="spacing" textLength="41.4805" x="94.6387" y="92.8467">IntSet</text><line style="stroke:#181818;stroke-width:0.5;" x1="23.5" x2="174.7578" y1="104" y2="104"/><rect fill="none" height="6" style="stroke:#C82930;stroke-width:1.0;" width="6" x="30.5" y="114.6484"/><text fill="#000000" font-family="sans-serif" font-size="14" lengthAdjust="spacing" textLength="127.2578" x="42.5" y="120.9951">els: List&lt;Integer&gt;</text><line style="stroke:#181818;stroke-width:0.5;" x1="23.5" x2="174.7578" y1="128.2969" y2="128.2969"/><rect fill="#F24D5C" height="6" style="stroke:#C82930;stroke-width:1.0;" width="6" x="30.5" y="138.9453"/><text fill="#000000" font-family="sans-serif" font-size="14" lengthAdjust="spacing" textLength="118.3711" x="42.5" y="145.292">getIndex(int): int</text><ellipse cx="33.5" cy="158.2422" fill="#84BE84" rx="3" ry="3" style="stroke:#038048;stroke-width:1.0;"/><text fill="#000000" font-family="sans-serif" font-size="14" lengthAdjust="spacing" textLength="107.8848" x="42.5" y="161.5889">insert(int): void</text><ellipse cx="33.5" cy="174.5391" fill="#84BE84" rx="3" ry="3" style="stroke:#038048;stroke-width:1.0;"/><text fill="#000000" font-family="sans-serif" font-size="14" lengthAdjust="spacing" textLength="121.4404" x="42.5" y="177.8857">remove(int): void</text><ellipse cx="33.5" cy="190.8359" fill="#84BE84" rx="3" ry="3" style="stroke:#038048;stroke-width:1.0;"/><text fill="#000000" font-family="sans-serif" font-size="14" lengthAdjust="spacing" textLength="118.501" x="42.5" y="194.1826">isIn(int): boolean</text><ellipse cx="33.5" cy="207.1328" fill="#84BE84" rx="3" ry="3" style="stroke:#038048;stroke-width:1.0;"/><text fill="#000000" font-family="sans-serif" font-size="14" lengthAdjust="spacing" textLength="65.4883" x="42.5" y="210.4795">size(): int</text><ellipse cx="33.5" cy="223.4297" fill="#84BE84" rx="3" ry="3" style="stroke:#038048;stroke-width:1.0;"/><text fill="#000000" font-family="sans-serif" font-size="14" lengthAdjust="spacing" textLength="87.9512" x="42.5" y="226.7764">choose(): int</text></g></a><!--class Poly--><a href="Poly.html" target="_top" title="Poly.html" xlink:actuate="onRequest" xlink:href="Poly.html" xlink:show="new" xlink:title="Poly.html" xlink:type="simple"><g id="elem_Poly"><rect codeLine="16" fill="#F1F1F1" height="243.5625" id="Poly" rx="2.5" ry="2.5" style="stroke:#181818;stroke-width:0.5;" width="337.8213" x="194" y="31"/><ellipse cx="344.0693" cy="47" fill="#ADD1B2" rx="11" ry="11" style="stroke:#181818;stroke-width:1.0;"/><path d="M347.0381,52.6406 Q346.46,52.9375 345.8193,53.0781 Q345.1787,53.2344 344.4756,53.2344 Q341.9756,53.2344 340.6475,51.5938 Q339.335,49.9375 339.335,46.8125 Q339.335,43.6875 340.6475,42.0313 Q341.9756,40.375 344.4756,40.375 Q345.1787,40.375 345.8193,40.5313 Q346.4756,40.6875 347.0381,40.9844 L347.0381,43.7031 Q346.4131,43.125 345.8193,42.8594 Q345.2256,42.5781 344.6006,42.5781 Q343.2568,42.5781 342.5693,43.6563 Q341.8818,44.7188 341.8818,46.8125 Q341.8818,48.9063 342.5693,49.9844 Q343.2568,51.0469 344.6006,51.0469 Q345.2256,51.0469 345.8193,50.7813 Q346.4131,50.5 347.0381,49.9219 L347.0381,52.6406 Z " fill="#000000"/><text fill="#000000" font-family="sans-serif" font-size="14" lengthAdjust="spacing" textLength="29.1826" x="364.5693" y="51.8467">Poly</text><line style="stroke:#181818;stroke-width:0.5;" x1="195" x2="530.8213" y1="63" y2="63"/><rect fill="none" height="6" style="stroke:#C82930;stroke-width:1.0;" width="6" x="202" y="73.6484"/><text fill="#000000" font-family="sans-serif" font-size="14" lengthAdjust="spacing" textLength="111.5283" x="214" y="79.9951">coefficient: int[]</text><rect fill="none" height="6" style="stroke:#C82930;stroke-width:1.0;" width="6" x="202" y="89.9453"/><text fill="#000000" font-family="sans-serif" font-size="14" lengthAdjust="spacing" textLength="76.7881" x="214" y="96.292">degree: int</text><line style="stroke:#181818;stroke-width:0.5;" x1="195" x2="530.8213" y1="103.5938" y2="103.5938"/><ellipse cx="205" cy="117.2422" fill="#84BE84" rx="3" ry="3" style="stroke:#038048;stroke-width:1.0;"/><text fill="#000000" font-family="sans-serif" font-size="14" lengthAdjust="spacing" textLength="40.1064" x="214" y="120.5889">Poly()</text><ellipse cx="205" cy="133.5391" fill="#84BE84" rx="3" ry="3" style="stroke:#038048;stroke-width:1.0;"/><text fill="#000000" font-family="sans-serif" font-size="14" lengthAdjust="spacing" textLength="85.5107" x="214" y="136.8857">Poly(int, int)</text><rect fill="#F24D5C" height="6" style="stroke:#C82930;stroke-width:1.0;" width="6" x="202" y="146.8359"/><text fill="#000000" font-family="sans-serif" font-size="14" lengthAdjust="spacing" textLength="58.3584" x="214" y="153.1826">Poly(int)</text><ellipse cx="205" cy="166.1328" fill="#84BE84" rx="3" ry="3" style="stroke:#038048;stroke-width:1.0;"/><text fill="#000000" font-family="sans-serif" font-size="14" lengthAdjust="spacing" text-decoration="underline" textLength="311.8213" x="214" y="169.4795">monomialWithCoeffAndDegree(int, int): Poly</text><ellipse cx="205" cy="182.4297" fill="#84BE84" rx="3" ry="3" style="stroke:#038048;stroke-width:1.0;"/><text fill="#000000" font-family="sans-serif" font-size="14" lengthAdjust="spacing" textLength="87.7119" x="214" y="185.7764">degree(): int</text><ellipse cx="205" cy="198.7266" fill="#84BE84" rx="3" ry="3" style="stroke:#038048;stroke-width:1.0;"/><text fill="#000000" font-family="sans-serif" font-size="14" lengthAdjust="spacing" textLength="91.3281" x="214" y="202.0732">coeff(int): int</text><ellipse cx="205" cy="215.0234" fill="#84BE84" rx="3" ry="3" style="stroke:#038048;stroke-width:1.0;"/><text fill="#000000" font-family="sans-serif" font-size="14" lengthAdjust="spacing" textLength="104.8086" x="214" y="218.3701">add(Poly): Poly</text><ellipse cx="205" cy="231.3203" fill="#84BE84" rx="3" ry="3" style="stroke:#038048;stroke-width:1.0;"/><text fill="#000000" font-family="sans-serif" font-size="14" lengthAdjust="spacing" textLength="104.8564" x="214" y="234.667">mul(Poly): Poly</text><ellipse cx="205" cy="247.6172" fill="#84BE84" rx="3" ry="3" style="stroke:#038048;stroke-width:1.0;"/><text fill="#000000" font-family="sans-serif" font-size="14" lengthAdjust="spacing" textLength="103.5098" x="214" y="250.9639">sub(Poly): Poly</text><ellipse cx="205" cy="263.9141" fill="#84BE84" rx="3" ry="3" style="stroke:#038048;stroke-width:1.0;"/><text fill="#000000" font-family="sans-serif" font-size="14" lengthAdjust="spacing" textLength="91.8408" x="214" y="267.2607">minus(): Poly</text></g></a><!--class IntSetsClient--><a href="IntSetsClient.html" target="_top" title="IntSetsClient.html" xlink:actuate="onRequest" xlink:href="IntSetsClient.html" xlink:show="new" xlink:title="IntSetsClient.html" xlink:type="simple"><g id="elem_IntSetsClient"><rect codeLine="31" fill="#F1F1F1" height="64.2969" id="IntSetsClient" rx="2.5" ry="2.5" style="stroke:#181818;stroke-width:0.5;" width="163.4023" x="22.5" y="311"/><ellipse cx="56.4439" cy="327" fill="#ADD1B2" rx="11" ry="11" style="stroke:#181818;stroke-width:1.0;"/><path d="M59.4127,332.6406 Q58.8346,332.9375 58.1939,333.0781 Q57.5533,333.2344 56.8502,333.2344 Q54.3502,333.2344 53.0221,331.5938 Q51.7096,329.9375 51.7096,326.8125 Q51.7096,323.6875 53.0221,322.0313 Q54.3502,320.375 56.8502,320.375 Q57.5533,320.375 58.1939,320.5313 Q58.8502,320.6875 59.4127,320.9844 L59.4127,323.7031 Q58.7877,323.125 58.1939,322.8594 Q57.6002,322.5781 56.9752,322.5781 Q55.6314,322.5781 54.9439,323.6563 Q54.2564,324.7188 54.2564,326.8125 Q54.2564,328.9063 54.9439,329.9844 Q55.6314,331.0469 56.9752,331.0469 Q57.6002,331.0469 58.1939,330.7813 Q58.7877,330.5 59.4127,329.9219 L59.4127,332.6406 Z " fill="#000000"/><text fill="#000000" font-family="sans-serif" font-size="14" lengthAdjust="spacing" textLength="89.3047" x="74.6537" y="331.8467">IntSetsClient</text><line style="stroke:#181818;stroke-width:0.5;" x1="23.5" x2="184.9023" y1="343" y2="343"/><line style="stroke:#181818;stroke-width:0.5;" x1="23.5" x2="184.9023" y1="351" y2="351"/><ellipse cx="33.5" cy="364.6484" fill="#84BE84" rx="3" ry="3" style="stroke:#038048;stroke-width:1.0;"/><text fill="#000000" font-family="sans-serif" font-size="14" lengthAdjust="spacing" text-decoration="underline" textLength="137.4023" x="42.5" y="367.9951">main(String[]): void</text></g></a><!--class PolyClient--><a href="PolyClient.html" target="_top" title="PolyClient.html" xlink:actuate="onRequest" xlink:href="PolyClient.html" xlink:show="new" xlink:title="PolyClient.html" xlink:type="simple"><g id="elem_PolyClient"><rect codeLine="35" fill="#F1F1F1" height="64.2969" id="PolyClient" rx="2.5" ry="2.5" style="stroke:#181818;stroke-width:0.5;" width="163.4023" x="203.5" y="311"/><ellipse cx="246.2603" cy="327" fill="#ADD1B2" rx="11" ry="11" style="stroke:#181818;stroke-width:1.0;"/><path d="M249.229,332.6406 Q248.6509,332.9375 248.0103,333.0781 Q247.3696,333.2344 246.6665,333.2344 Q244.1665,333.2344 242.8384,331.5938 Q241.5259,329.9375 241.5259,326.8125 Q241.5259,323.6875 242.8384,322.0313 Q244.1665,320.375 246.6665,320.375 Q247.3696,320.375 248.0103,320.5313 Q248.6665,320.6875 249.229,320.9844 L249.229,323.7031 Q248.604,323.125 248.0103,322.8594 Q247.4165,322.5781 246.7915,322.5781 Q245.4478,322.5781 244.7603,323.6563 Q244.0728,324.7188 244.0728,326.8125 Q244.0728,328.9063 244.7603,329.9844 Q245.4478,331.0469 246.7915,331.0469 Q247.4165,331.0469 248.0103,330.7813 Q248.604,330.5 249.229,329.9219 L249.229,332.6406 Z " fill="#000000"/><text fill="#000000" font-family="sans-serif" font-size="14" lengthAdjust="spacing" textLength="69.7129" x="266.4292" y="331.8467">PolyClient</text><line style="stroke:#181818;stroke-width:0.5;" x1="204.5" x2="365.9023" y1="343" y2="343"/><line style="stroke:#181818;stroke-width:0.5;" x1="204.5" x2="365.9023" y1="351" y2="351"/><ellipse cx="214.5" cy="364.6484" fill="#84BE84" rx="3" ry="3" style="stroke:#038048;stroke-width:1.0;"/><text fill="#000000" font-family="sans-serif" font-size="14" lengthAdjust="spacing" text-decoration="underline" textLength="137.4023" x="223.5" y="367.9951">main(String[]): void</text></g></a><text fill="#888888" font-family="sans-serif" font-size="10" lengthAdjust="spacing" textLength="3.1787" x="263.9106" y="394.2822">&#160;</text><text fill="#888888" font-family="sans-serif" font-size="10" lengthAdjust="spacing" textLength="183.0908" x="173.9546" y="405.9229">UMLDoclet 2.2.0, PlantUML 1.2024.6</text><!--SRC=[hPF1Ri8m38RlF8Ltc5J4g12tLTEa2Iv8J492qmwCGsXDiPRQA4dHDiIxBoaCA2ixBOUazkV-JXm70E1cRLHUAD3gKqe7ja2dMBKy0OlUnhKooec196bLthLAtrMEG2ukcGgACuhNHl9-lEhTmtOV54QgbRKmOZVrEhFP_YDUkKBFvpuEpaONjKrWJDOz-33CqJpMUOvkn1b-HCIkdO2VQxn3RD6u0zq8PNLii90DNiLaHto02n6DYklSqXT6JMdJbOZzXNQNDPY8_lGL2CkLywU2ooMbXEmghTcypZFC3MB33e9cr6xm-SYx45vdtHzMTs-jKuxI7NGAOIb8wLTogq7Or1DdmohvIJ6f3bJFkTzWSv62pBMBKraM1RL6qQBKrw4j5t_yILpQw1BjcflJ3dGe_B573tRpLPsLIX57KsU8yzdyigyQU-2OvsJyHv9TDQTU3GqiHSBonY_Fuw6ash-zVjoFUtSmqOgTzyBj1eqbuQZz3G00]--></g></svg>