<svg xmlns="http://www.w3.org/2000/svg" xmlns:xlink="http://www.w3.org/1999/xlink" contentStyleType="text/css" height="250px" preserveAspectRatio="none" style="width:464px;height:250px;background:#FFFFFF;" version="1.1" viewBox="0 0 464 250" width="464px" zoomAndPan="magnify"><defs/><g><!--cluster it.unimi.di.prog2.e12--><g id="cluster_it.unimi.di.prog2.e12"><path d="M16.5,4 L184.4883,4 A3.75,3.75 0 0 1 186.9883,6.5 L193.9883,26.2969 L454.5,26.2969 A2.5,2.5 0 0 1 457,28.7969 L457,214.5 A2.5,2.5 0 0 1 454.5,217 L16.5,217 A2.5,2.5 0 0 1 14,214.5 L14,6.5 A2.5,2.5 0 0 1 16.5,4 " fill="none" style="stroke:#000000;stroke-width:1.5;"/><line style="stroke:#000000;stroke-width:1.5;" x1="14" x2="193.9883" y1="26.2969" y2="26.2969"/><text fill="#000000" font-family="sans-serif" font-size="14" font-weight="bold" lengthAdjust="spacing" textLength="166.9883" x="18" y="18.9951">it.unimi.di.prog2.e12</text></g><!--class StringToIntMapClient--><a href="StringToIntMapClient.html" target="_top" title="StringToIntMapClient.html" xlink:actuate="onRequest" xlink:href="StringToIntMapClient.html" xlink:show="new" xlink:title="StringToIntMapClient.html" xlink:type="simple"><g id="elem_StringToIntMapClient"><rect codeLine="6" fill="#F1F1F1" height="48" id="StringToIntMapClient" rx="2.5" ry="2.5" style="stroke:#181818;stroke-width:0.5;" width="179.4648" x="269.5" y="96"/><ellipse cx="284.5" cy="112" fill="#ADD1B2" rx="11" ry="11" style="stroke:#181818;stroke-width:1.0;"/><path d="M287.4688,117.6406 Q286.8906,117.9375 286.25,118.0781 Q285.6094,118.2344 284.9063,118.2344 Q282.4063,118.2344 281.0781,116.5938 Q279.7656,114.9375 279.7656,111.8125 Q279.7656,108.6875 281.0781,107.0313 Q282.4063,105.375 284.9063,105.375 Q285.6094,105.375 286.25,105.5313 Q286.9063,105.6875 287.4688,105.9844 L287.4688,108.7031 Q286.8438,108.125 286.25,107.8594 Q285.6563,107.5781 285.0313,107.5781 Q283.6875,107.5781 283,108.6563 Q282.3125,109.7188 282.3125,111.8125 Q282.3125,113.9063 283,114.9844 Q283.6875,116.0469 285.0313,116.0469 Q285.6563,116.0469 286.25,115.7813 Q286.8438,115.5 287.4688,114.9219 L287.4688,117.6406 Z " fill="#000000"/><text fill="#000000" font-family="sans-serif" font-size="14" lengthAdjust="spacing" textLength="147.4648" x="298.5" y="116.8467">StringToIntMapClient</text><line style="stroke:#181818;stroke-width:0.5;" x1="270.5" x2="447.9648" y1="128" y2="128"/><line style="stroke:#181818;stroke-width:0.5;" x1="270.5" x2="447.9648" y1="136" y2="136"/></g></a><!--class StringToIntMap--><a href="StringToIntMap.html" target="_top" title="StringToIntMap.html" xlink:actuate="onRequest" xlink:href="StringToIntMap.html" xlink:show="new" xlink:title="StringToIntMap.html" xlink:type="simple"><g id="elem_StringToIntMap"><rect codeLine="8" fill="#F1F1F1" height="178.375" id="StringToIntMap" rx="2.5" ry="2.5" style="stroke:#181818;stroke-width:0.5;" width="229.1846" x="22.5" y="31"/><ellipse cx="79.375" cy="47" fill="#ADD1B2" rx="11" ry="11" style="stroke:#181818;stroke-width:1.0;"/><path d="M82.3438,52.6406 Q81.7656,52.9375 81.125,53.0781 Q80.4844,53.2344 79.7813,53.2344 Q77.2813,53.2344 75.9531,51.5938 Q74.6406,49.9375 74.6406,46.8125 Q74.6406,43.6875 75.9531,42.0313 Q77.2813,40.375 79.7813,40.375 Q80.4844,40.375 81.125,40.5313 Q81.7813,40.6875 82.3438,40.9844 L82.3438,43.7031 Q81.7188,43.125 81.125,42.8594 Q80.5313,42.5781 79.9063,42.5781 Q78.5625,42.5781 77.875,43.6563 Q77.1875,44.7188 77.1875,46.8125 Q77.1875,48.9063 77.875,49.9844 Q78.5625,51.0469 79.9063,51.0469 Q80.5313,51.0469 81.125,50.7813 Q81.7188,50.5 82.3438,49.9219 L82.3438,52.6406 Z " fill="#000000"/><text fill="#000000" font-family="sans-serif" font-size="14" lengthAdjust="spacing" textLength="106.9346" x="99.875" y="51.8467">StringToIntMap</text><line style="stroke:#181818;stroke-width:0.5;" x1="23.5" x2="250.6846" y1="63" y2="63"/><line style="stroke:#181818;stroke-width:0.5;" x1="23.5" x2="250.6846" y1="71" y2="71"/><ellipse cx="33.5" cy="84.6484" fill="#84BE84" rx="3" ry="3" style="stroke:#038048;stroke-width:1.0;"/><text fill="#000000" font-family="sans-serif" font-size="14" lengthAdjust="spacing" textLength="65.4883" x="42.5" y="87.9951">size(): int</text><ellipse cx="33.5" cy="100.9453" fill="#84BE84" rx="3" ry="3" style="stroke:#038048;stroke-width:1.0;"/><text fill="#000000" font-family="sans-serif" font-size="14" lengthAdjust="spacing" textLength="132.3916" x="42.5" y="104.292">isEmpty(): boolean</text><ellipse cx="33.5" cy="117.2422" fill="#84BE84" rx="3" ry="3" style="stroke:#038048;stroke-width:1.0;"/><text fill="#000000" font-family="sans-serif" font-size="14" lengthAdjust="spacing" textLength="203.1846" x="42.5" y="120.5889">containsKey(String): boolean</text><ellipse cx="33.5" cy="133.5391" fill="#84BE84" rx="3" ry="3" style="stroke:#038048;stroke-width:1.0;"/><text fill="#000000" font-family="sans-serif" font-size="14" lengthAdjust="spacing" textLength="193.1084" x="42.5" y="136.8857">containsValue(int): boolean</text><ellipse cx="33.5" cy="149.8359" fill="#84BE84" rx="3" ry="3" style="stroke:#038048;stroke-width:1.0;"/><text fill="#000000" font-family="sans-serif" font-size="14" lengthAdjust="spacing" textLength="103.1133" x="42.5" y="153.1826">get(String): int</text><ellipse cx="33.5" cy="166.1328" fill="#84BE84" rx="3" ry="3" style="stroke:#038048;stroke-width:1.0;"/><text fill="#000000" font-family="sans-serif" font-size="14" lengthAdjust="spacing" textLength="141.9004" x="42.5" y="169.4795">put(String, int): void</text><ellipse cx="33.5" cy="182.4297" fill="#84BE84" rx="3" ry="3" style="stroke:#038048;stroke-width:1.0;"/><text fill="#000000" font-family="sans-serif" font-size="14" lengthAdjust="spacing" textLength="171.3154" x="42.5" y="185.7764">remove(String): boolean</text><ellipse cx="33.5" cy="198.7266" fill="#84BE84" rx="3" ry="3" style="stroke:#038048;stroke-width:1.0;"/><text fill="#000000" font-family="sans-serif" font-size="14" lengthAdjust="spacing" textLength="84.2529" x="42.5" y="202.0732">clear(): void</text></g></a><text fill="#888888" font-family="sans-serif" font-size="10" lengthAdjust="spacing" textLength="3.1787" x="222.4106" y="228.2822">&#160;</text><text fill="#888888" font-family="sans-serif" font-size="10" lengthAdjust="spacing" textLength="183.0908" x="132.4546" y="239.9229">UMLDoclet 2.2.0, PlantUML 1.2024.6</text><!--SRC=[XL1BJyCm3BxlLvW3KYUc27hi5JWWc8J4up9sC9qf5aaS9MwbWVRVILSGb07p8P6_boq301o4Y8r3iBYMLY4vKlGuoGmaoZq5ZAWIeQecMpHW_O8D0QjfFJisApOXIbCQEYdXRH3rLLjC2MuqiczkvSBh7CEfPV8AYyLli7bMPvVB_nDsl1-kF1c-rL7YLogc5R3NCS7ft0LTzzoZY2NqOxuMhyW-NTAw62RjKzwZRQd8W_uIDgHVKJiBXVQJdS4GqWclnff8JZhQjq-6Ol7JlndkkTc-TJupHNWIwRy7VpU_EfFiKoXDQOvdS6tHQqRXiAEOM7mnVGS0]--></g></svg>