<svg xmlns="http://www.w3.org/2000/svg" xmlns:xlink="http://www.w3.org/1999/xlink" contentStyleType="text/css" height="292px" preserveAspectRatio="none" style="width:690px;height:292px;background:#FFFFFF;" version="1.1" viewBox="0 0 690 292" width="690px" zoomAndPan="magnify"><defs/><g><!--cluster it.unimi.di.prog2.h08.impl--><g id="cluster_it.unimi.di.prog2.h08.impl"><path d="M16.5,111 L224.4854,111 A3.75,3.75 0 0 1 226.9854,113.5 L233.9854,133.2969 L680.5,133.2969 A2.5,2.5 0 0 1 683,135.7969 L683,256.5 A2.5,2.5 0 0 1 680.5,259 L16.5,259 A2.5,2.5 0 0 1 14,256.5 L14,113.5 A2.5,2.5 0 0 1 16.5,111 " fill="none" style="stroke:#000000;stroke-width:1.5;"/><line style="stroke:#000000;stroke-width:1.5;" x1="14" x2="233.9854" y1="133.2969" y2="133.2969"/><text fill="#000000" font-family="sans-serif" font-size="14" font-weight="bold" lengthAdjust="spacing" textLength="206.9854" x="18" y="125.9951">it.unimi.di.prog2.h08.impl</text></g><!--cluster java.lang--><g id="cluster_java.lang"><path d="M149.5,4 L222.8721,4 A3.75,3.75 0 0 1 225.3721,6.5 L232.3721,26.2969 L573.5,26.2969 A2.5,2.5 0 0 1 576,28.7969 L576,100.5 A2.5,2.5 0 0 1 573.5,103 L149.5,103 A2.5,2.5 0 0 1 147,100.5 L147,6.5 A2.5,2.5 0 0 1 149.5,4 " fill="none" style="stroke:#000000;stroke-width:1.5;"/><line style="stroke:#000000;stroke-width:1.5;" x1="147" x2="232.3721" y1="26.2969" y2="26.2969"/><text fill="#000000" font-family="sans-serif" font-size="14" font-weight="bold" lengthAdjust="spacing" textLength="72.3721" x="151" y="18.9951">java.lang</text></g><!--class EmptyException--><a href="EmptyException.html" target="_top" title="EmptyException.html" xlink:actuate="onRequest" xlink:href="EmptyException.html" xlink:show="new" xlink:title="EmptyException.html" xlink:type="simple"><g id="elem_EmptyException"><rect codeLine="6" fill="#F1F1F1" height="113.1875" id="EmptyException" rx="2.5" ry="2.5" style="stroke:#181818;stroke-width:0.5;" width="275.0605" x="399.5" y="138"/><ellipse cx="475.6353" cy="154" fill="#ADD1B2" rx="11" ry="11" style="stroke:#181818;stroke-width:1.0;"/><path d="M478.604,159.6406 Q478.0259,159.9375 477.3853,160.0781 Q476.7446,160.2344 476.0415,160.2344 Q473.5415,160.2344 472.2134,158.5938 Q470.9009,156.9375 470.9009,153.8125 Q470.9009,150.6875 472.2134,149.0313 Q473.5415,147.375 476.0415,147.375 Q476.7446,147.375 477.3853,147.5313 Q478.0415,147.6875 478.604,147.9844 L478.604,150.7031 Q477.979,150.125 477.3853,149.8594 Q476.7915,149.5781 476.1665,149.5781 Q474.8228,149.5781 474.1353,150.6563 Q473.4478,151.7188 473.4478,153.8125 Q473.4478,155.9063 474.1353,156.9844 Q474.8228,158.0469 476.1665,158.0469 Q476.7915,158.0469 477.3853,157.7813 Q477.979,157.5 478.604,156.9219 L478.604,159.6406 Z " fill="#000000"/><text fill="#000000" font-family="sans-serif" font-size="14" lengthAdjust="spacing" textLength="114.29" x="496.1353" y="158.8467">EmptyException</text><line style="stroke:#181818;stroke-width:0.5;" x1="400.5" x2="673.5605" y1="170" y2="170"/><polygon fill="none" points="410.5,179.6484,406.5,185.6484,414.5,185.6484" style="stroke:#1963A0;stroke-width:1.0;"/><text fill="#000000" font-family="sans-serif" font-size="14" lengthAdjust="spacing" text-decoration="underline" textLength="155.1279" x="419.5" y="186.9951">serialVersionUID: long</text><line style="stroke:#181818;stroke-width:0.5;" x1="400.5" x2="673.5605" y1="194.2969" y2="194.2969"/><ellipse cx="410.5" cy="207.9453" fill="#84BE84" rx="3" ry="3" style="stroke:#038048;stroke-width:1.0;"/><text fill="#000000" font-family="sans-serif" font-size="14" lengthAdjust="spacing" textLength="125.2139" x="419.5" y="211.292">EmptyException()</text><ellipse cx="410.5" cy="224.2422" fill="#84BE84" rx="3" ry="3" style="stroke:#038048;stroke-width:1.0;"/><text fill="#000000" font-family="sans-serif" font-size="14" lengthAdjust="spacing" textLength="166.9951" x="419.5" y="227.5889">EmptyException(String)</text><ellipse cx="410.5" cy="240.5391" fill="#84BE84" rx="3" ry="3" style="stroke:#038048;stroke-width:1.0;"/><text fill="#000000" font-family="sans-serif" font-size="14" lengthAdjust="spacing" textLength="249.0605" x="419.5" y="243.8857">EmptyException(String, Throwable)</text></g></a><!--class NegativeExponentException--><a href="NegativeExponentException.html" target="_top" title="NegativeExponentException.html" xlink:actuate="onRequest" xlink:href="NegativeExponentException.html" xlink:show="new" xlink:title="NegativeExponentException.html" xlink:type="simple"><g id="elem_NegativeExponentException"><rect codeLine="13" fill="#F1F1F1" height="113.1875" id="NegativeExponentException" rx="2.5" ry="2.5" style="stroke:#181818;stroke-width:0.5;" width="359.1768" x="22.5" y="138"/><ellipse cx="98.6353" cy="154" fill="#ADD1B2" rx="11" ry="11" style="stroke:#181818;stroke-width:1.0;"/><path d="M101.604,159.6406 Q101.0259,159.9375 100.3853,160.0781 Q99.7446,160.2344 99.0415,160.2344 Q96.5415,160.2344 95.2134,158.5938 Q93.9009,156.9375 93.9009,153.8125 Q93.9009,150.6875 95.2134,149.0313 Q96.5415,147.375 99.0415,147.375 Q99.7446,147.375 100.3853,147.5313 Q101.0415,147.6875 101.604,147.9844 L101.604,150.7031 Q100.979,150.125 100.3853,149.8594 Q99.7915,149.5781 99.1665,149.5781 Q97.8228,149.5781 97.1353,150.6563 Q96.4478,151.7188 96.4478,153.8125 Q96.4478,155.9063 97.1353,156.9844 Q97.8228,158.0469 99.1665,158.0469 Q99.7915,158.0469 100.3853,157.7813 Q100.979,157.5 101.604,156.9219 L101.604,159.6406 Z " fill="#000000"/><text fill="#000000" font-family="sans-serif" font-size="14" lengthAdjust="spacing" textLength="198.4063" x="119.1353" y="158.8467">NegativeExponentException</text><line style="stroke:#181818;stroke-width:0.5;" x1="23.5" x2="380.6768" y1="170" y2="170"/><polygon fill="none" points="33.5,179.6484,29.5,185.6484,37.5,185.6484" style="stroke:#1963A0;stroke-width:1.0;"/><text fill="#000000" font-family="sans-serif" font-size="14" lengthAdjust="spacing" text-decoration="underline" textLength="155.1279" x="42.5" y="186.9951">serialVersionUID: long</text><line style="stroke:#181818;stroke-width:0.5;" x1="23.5" x2="380.6768" y1="194.2969" y2="194.2969"/><ellipse cx="33.5" cy="207.9453" fill="#84BE84" rx="3" ry="3" style="stroke:#038048;stroke-width:1.0;"/><text fill="#000000" font-family="sans-serif" font-size="14" lengthAdjust="spacing" textLength="209.3301" x="42.5" y="211.292">NegativeExponentException()</text><ellipse cx="33.5" cy="224.2422" fill="#84BE84" rx="3" ry="3" style="stroke:#038048;stroke-width:1.0;"/><text fill="#000000" font-family="sans-serif" font-size="14" lengthAdjust="spacing" textLength="251.1113" x="42.5" y="227.5889">NegativeExponentException(String)</text><ellipse cx="33.5" cy="240.5391" fill="#84BE84" rx="3" ry="3" style="stroke:#038048;stroke-width:1.0;"/><text fill="#000000" font-family="sans-serif" font-size="14" lengthAdjust="spacing" textLength="333.1768" x="42.5" y="243.8857">NegativeExponentException(String, Throwable)</text></g></a><!--class IllegalStateException--><a href="https://docs.oracle.com/en/java/javase/21/docs/api/java.base/java/lang/IllegalStateException.html?is-external=true" target="_top" title="https://docs.oracle.com/en/java/javase/21/docs/api/java.base/java/lang/IllegalStateException.html?is-external=true" xlink:actuate="onRequest" xlink:href="https://docs.oracle.com/en/java/javase/21/docs/api/java.base/java/lang/IllegalStateException.html?is-external=true" xlink:show="new" xlink:title="https://docs.oracle.com/en/java/javase/21/docs/api/java.base/java/lang/IllegalStateException.html?is-external=true" xlink:type="simple"><g id="elem_IllegalStateException"><rect codeLine="23" fill="#F1F1F1" height="64.2969" id="IllegalStateException" rx="2.5" ry="2.5" style="stroke:#181818;stroke-width:0.5;" width="181.1279" x="386.5" y="31"/><ellipse cx="401.9715" cy="47" fill="#ADD1B2" rx="11" ry="11" style="stroke:#181818;stroke-width:1.0;"/><path d="M404.9403,52.6406 Q404.3622,52.9375 403.7215,53.0781 Q403.0809,53.2344 402.3778,53.2344 Q399.8778,53.2344 398.5497,51.5938 Q397.2372,49.9375 397.2372,46.8125 Q397.2372,43.6875 398.5497,42.0313 Q399.8778,40.375 402.3778,40.375 Q403.0809,40.375 403.7215,40.5313 Q404.3778,40.6875 404.9403,40.9844 L404.9403,43.7031 Q404.3153,43.125 403.7215,42.8594 Q403.1278,42.5781 402.5028,42.5781 Q401.159,42.5781 400.4715,43.6563 Q399.784,44.7188 399.784,46.8125 Q399.784,48.9063 400.4715,49.9844 Q401.159,51.0469 402.5028,51.0469 Q403.1278,51.0469 403.7215,50.7813 Q404.3153,50.5 404.9403,49.9219 L404.9403,52.6406 Z " fill="#000000"/><text fill="#000000" font-family="sans-serif" font-size="14" lengthAdjust="spacing" textLength="148.0801" x="416.0763" y="51.8467">IllegalStateException</text><line style="stroke:#181818;stroke-width:0.5;" x1="387.5" x2="566.6279" y1="63" y2="63"/><polygon fill="none" points="397.5,72.6484,393.5,78.6484,401.5,78.6484" style="stroke:#1963A0;stroke-width:1.0;"/><text fill="#000000" font-family="sans-serif" font-size="14" lengthAdjust="spacing" text-decoration="underline" textLength="155.1279" x="406.5" y="79.9951">serialVersionUID: long</text><line style="stroke:#181818;stroke-width:0.5;" x1="387.5" x2="566.6279" y1="87.2969" y2="87.2969"/></g></a><!--class IllegalArgumentException--><a href="https://docs.oracle.com/en/java/javase/21/docs/api/java.base/java/lang/IllegalArgumentException.html?is-external=true" target="_top" title="https://docs.oracle.com/en/java/javase/21/docs/api/java.base/java/lang/IllegalArgumentException.html?is-external=true" xlink:actuate="onRequest" xlink:href="https://docs.oracle.com/en/java/javase/21/docs/api/java.base/java/lang/IllegalArgumentException.html?is-external=true" xlink:show="new" xlink:title="https://docs.oracle.com/en/java/javase/21/docs/api/java.base/java/lang/IllegalArgumentException.html?is-external=true" xlink:type="simple"><g id="elem_IllegalArgumentException"><rect codeLine="26" fill="#F1F1F1" height="64.2969" id="IllegalArgumentException" rx="2.5" ry="2.5" style="stroke:#181818;stroke-width:0.5;" width="212.7285" x="155.5" y="31"/><ellipse cx="170.5" cy="47" fill="#ADD1B2" rx="11" ry="11" style="stroke:#181818;stroke-width:1.0;"/><path d="M173.4688,52.6406 Q172.8906,52.9375 172.25,53.0781 Q171.6094,53.2344 170.9063,53.2344 Q168.4063,53.2344 167.0781,51.5938 Q165.7656,49.9375 165.7656,46.8125 Q165.7656,43.6875 167.0781,42.0313 Q168.4063,40.375 170.9063,40.375 Q171.6094,40.375 172.25,40.5313 Q172.9063,40.6875 173.4688,40.9844 L173.4688,43.7031 Q172.8438,43.125 172.25,42.8594 Q171.6563,42.5781 171.0313,42.5781 Q169.6875,42.5781 169,43.6563 Q168.3125,44.7188 168.3125,46.8125 Q168.3125,48.9063 169,49.9844 Q169.6875,51.0469 171.0313,51.0469 Q171.6563,51.0469 172.25,50.7813 Q172.8438,50.5 173.4688,49.9219 L173.4688,52.6406 Z " fill="#000000"/><text fill="#000000" font-family="sans-serif" font-size="14" lengthAdjust="spacing" textLength="180.7285" x="184.5" y="51.8467">IllegalArgumentException</text><line style="stroke:#181818;stroke-width:0.5;" x1="156.5" x2="367.2285" y1="63" y2="63"/><rect fill="none" height="6" style="stroke:#C82930;stroke-width:1.0;" width="6" x="163.5" y="73.6484"/><text fill="#000000" font-family="sans-serif" font-size="14" lengthAdjust="spacing" text-decoration="underline" textLength="155.1279" x="175.5" y="79.9951">serialVersionUID: long</text><line style="stroke:#181818;stroke-width:0.5;" x1="156.5" x2="367.2285" y1="87.2969" y2="87.2969"/></g></a><polygon fill="none" points="491.3715,95.0185,493.4945,113.873,504.3826,108.8283,491.3715,95.0185" style="stroke:#181818;stroke-width:1.0;"/><path d="M498.9385,111.3507 C504.9016,124.2209 504.4405,123.2258 511.2486,137.9199 " fill="none" style="stroke:#181818;stroke-width:1.0;"/><polygon fill="none" points="247.6285,95.0185,234.6174,108.8283,245.5055,113.873,247.6285,95.0185" style="stroke:#181818;stroke-width:1.0;"/><path d="M240.0615,111.3507 C234.0984,124.2209 234.5595,123.2258 227.7514,137.9199 " fill="none" style="stroke:#181818;stroke-width:1.0;"/><text fill="#888888" font-family="sans-serif" font-size="10" lengthAdjust="spacing" textLength="3.1787" x="335.4106" y="270.2822">&#160;</text><text fill="#888888" font-family="sans-serif" font-size="10" lengthAdjust="spacing" textLength="183.0908" x="245.4546" y="281.9229">UMLDoclet 2.2.0, PlantUML 1.2024.6</text><!--SRC=[hLHDJy904BtxAyQ32KRP8YVJQ8m974ZKcFXnGGz36SlgTdUpEo16yRUxBKOfK4337jhqpTitVM-s1G3OjGxJ347Xcnao-8mODUw42dWApsJH8Hi7SRnJe1QJ5qm998kXbfaKVIciCsbJ31h7GcPMmVkKcQz4eVVGpYo_jSS9MPP6GxTR1iI0C_Nu6FR1p7htZ2oJ2NnwSXBLFJaVo7UTLWpAwBH4FYWhrlPNLc_OIPrkmZc4su4phzXJz4kVpFkxeZIyweZQOsiqQPwrMbdRXkjAyVa0gebBirX7NnNBf7nEdd64Gg5EPunEK-ie5Tgecs2OPXCRC5iVHr7V95uOXuaYaPWi8XtbOiN5KzGyAXWHMbb0efUZ1IDl5osLBq8_axvEOoQdKPso6zB_fp1PxkdSfSDixY1irzP2Xxywgs_ax7kOFqECu-LJE_cerrVy4kAu_7LLY2x6jbQtygGMBPA0a8CdO_BRWxwxl6YP43n3KpH5un2kGtyEAEoDfa7Kzhy0]--></g></svg>