<svg xmlns="http://www.w3.org/2000/svg" xmlns:xlink="http://www.w3.org/1999/xlink" contentStyleType="text/css" height="271px" preserveAspectRatio="none" style="width:368px;height:271px;background:#FFFFFF;" version="1.1" viewBox="0 0 368 271" width="368px" zoomAndPan="magnify"><defs/><g><!--class it.unimi.di.prog2.h15.DecimalDigitsNSG.NonZeroDigitsGeneratorNS--><a href="DecimalDigitsNSG.NonZeroDigitsGeneratorNS.html" target="_top" title="DecimalDigitsNSG.NonZeroDigitsGeneratorNS.html" xlink:actuate="onRequest" xlink:href="DecimalDigitsNSG.NonZeroDigitsGeneratorNS.html" xlink:show="new" xlink:title="DecimalDigitsNSG.NonZeroDigitsGeneratorNS.html" xlink:type="simple"><g id="elem_it.unimi.di.prog2.h15.DecimalDigitsNSG.NonZeroDigitsGeneratorNS"><rect codeLine="7" fill="#F1F1F1" height="119.125" id="it.unimi.di.prog2.h15.DecimalDigitsNSG.NonZeroDigitsGeneratorNS" rx="2.5" ry="2.5" style="stroke:#181818;stroke-width:0.5;" width="355.0938" x="6" y="127"/><ellipse cx="21" cy="145.9688" fill="#ADD1B2" rx="11" ry="11" style="stroke:#181818;stroke-width:1.0;"/><path d="M23.9688,151.6094 Q23.3906,151.9063 22.75,152.0469 Q22.1094,152.2031 21.4063,152.2031 Q18.9063,152.2031 17.5781,150.5625 Q16.2656,148.9063 16.2656,145.7813 Q16.2656,142.6563 17.5781,141 Q18.9063,139.3438 21.4063,139.3438 Q22.1094,139.3438 22.75,139.5 Q23.4063,139.6563 23.9688,139.9531 L23.9688,142.6719 Q23.3438,142.0938 22.75,141.8281 Q22.1563,141.5469 21.5313,141.5469 Q20.1875,141.5469 19.5,142.625 Q18.8125,143.6875 18.8125,145.7813 Q18.8125,147.875 19.5,148.9531 Q20.1875,150.0156 21.5313,150.0156 Q22.1563,150.0156 22.75,149.75 Q23.3438,149.4688 23.9688,148.8906 L23.9688,151.6094 Z " fill="#000000"/><text fill="#000000" font-family="sans-serif" font-size="14" lengthAdjust="spacing" textLength="323.0938" x="35" y="144.9951">DecimalDigitsNSG.NonZeroDigitsGeneratorNS</text><text fill="#000000" font-family="sans-serif" font-size="10" lengthAdjust="spacing" textLength="104.8633" x="144.1152" y="157.5791">it.unimi.di.prog2.h15</text><line style="stroke:#181818;stroke-width:0.5;" x1="7" x2="360.0938" y1="164.9375" y2="164.9375"/><rect fill="none" height="6" style="stroke:#C82930;stroke-width:1.0;" width="6" x="14" y="175.5859"/><text fill="#000000" font-family="sans-serif" font-size="14" lengthAdjust="spacing" textLength="110.3799" x="26" y="181.9326">remaining: long</text><line style="stroke:#181818;stroke-width:0.5;" x1="7" x2="360.0938" y1="189.2344" y2="189.2344"/><rect fill="#F24D5C" height="6" style="stroke:#C82930;stroke-width:1.0;" width="6" x="14" y="199.8828"/><text fill="#000000" font-family="sans-serif" font-size="14" lengthAdjust="spacing" textLength="232.2578" x="26" y="206.2295">NonZeroDigitsGeneratorNS(long)</text><ellipse cx="17" cy="219.1797" fill="#84BE84" rx="3" ry="3" style="stroke:#038048;stroke-width:1.0;"/><text fill="#000000" font-family="sans-serif" font-size="14" lengthAdjust="spacing" textLength="133.6699" x="26" y="222.5264">hasNext(): boolean</text><ellipse cx="17" cy="235.4766" fill="#84BE84" rx="3" ry="3" style="stroke:#038048;stroke-width:1.0;"/><text fill="#000000" font-family="sans-serif" font-size="14" lengthAdjust="spacing" textLength="101.7119" x="26" y="238.8232">next(): Integer</text></g></a><!--class java.util.Iterator--><a href="https://docs.oracle.com/en/java/javase/21/docs/api/java.base/java/util/Iterator.html?is-external=true" target="_top" title="https://docs.oracle.com/en/java/javase/21/docs/api/java.base/java/util/Iterator.html?is-external=true" xlink:actuate="onRequest" xlink:href="https://docs.oracle.com/en/java/javase/21/docs/api/java.base/java/util/Iterator.html?is-external=true" xlink:show="new" xlink:title="https://docs.oracle.com/en/java/javase/21/docs/api/java.base/java/util/Iterator.html?is-external=true" xlink:type="simple"><g id="elem_java.util.Iterator"><rect codeLine="14" fill="#F1F1F1" height="78.5313" id="java.util.Iterator" rx="2.5" ry="2.5" style="stroke:#181818;stroke-width:0.5;" width="159.6699" x="14.5" y="12"/><ellipse cx="42.1571" cy="30.9688" fill="#B4A7E5" rx="11" ry="11" style="stroke:#181818;stroke-width:1.0;"/><path d="M38.079,26.7344 L38.079,24.5781 L45.4696,24.5781 L45.4696,26.7344 L43.0009,26.7344 L43.0009,34.8125 L45.4696,34.8125 L45.4696,36.9688 L38.079,36.9688 L38.079,34.8125 L40.5478,34.8125 L40.5478,26.7344 L38.079,26.7344 Z " fill="#000000"/><text fill="#000000" font-family="sans-serif" font-size="14" font-style="italic" lengthAdjust="spacing" textLength="52.377" x="58.9698" y="29.9951">Iterator</text><text fill="#000000" font-family="sans-serif" font-size="10" font-style="italic" lengthAdjust="spacing" textLength="39.9463" x="65.1852" y="42.5791">java.util</text><rect fill="#FFFFFF" height="15.9688" style="stroke:#181818;stroke-width:1.0;stroke-dasharray:2.0,2.0;" width="45.166" x="132.0039" y="9"/><text fill="#000000" font-family="sans-serif" font-size="12" font-style="italic" lengthAdjust="spacing" textLength="43.166" x="133.0039" y="21.1387">Integer</text><line style="stroke:#181818;stroke-width:0.5;" x1="15.5" x2="173.1699" y1="49.9375" y2="49.9375"/><ellipse cx="25.5" cy="63.5859" fill="#84BE84" rx="3" ry="3" style="stroke:#038048;stroke-width:1.0;"/><text fill="#000000" font-family="sans-serif" font-size="14" font-style="italic" lengthAdjust="spacing" textLength="133.6699" x="34.5" y="66.9326">hasNext(): boolean</text><ellipse cx="25.5" cy="79.8828" fill="#84BE84" rx="3" ry="3" style="stroke:#038048;stroke-width:1.0;"/><text fill="#000000" font-family="sans-serif" font-size="14" font-style="italic" lengthAdjust="spacing" textLength="101.7119" x="34.5" y="83.2295">next(): Integer</text></g></a><!--class it.unimi.di.prog2.h15.DecimalDigitsNSG--><a href="DecimalDigitsNSG.html" target="_top" title="DecimalDigitsNSG.html" xlink:actuate="onRequest" xlink:href="DecimalDigitsNSG.html" xlink:show="new" xlink:title="DecimalDigitsNSG.html" xlink:type="simple"><g id="elem_it.unimi.di.prog2.h15.DecimalDigitsNSG"><rect codeLine="18" fill="#F1F1F1" height="37.9375" id="it.unimi.di.prog2.h15.DecimalDigitsNSG" rx="2.5" ry="2.5" style="stroke:#181818;stroke-width:0.5;" width="159.5244" x="192.5" y="32.5"/><ellipse cx="207.5" cy="51.4688" fill="#ADD1B2" rx="11" ry="11" style="stroke:#181818;stroke-width:1.0;"/><path d="M210.4688,57.1094 Q209.8906,57.4063 209.25,57.5469 Q208.6094,57.7031 207.9063,57.7031 Q205.4063,57.7031 204.0781,56.0625 Q202.7656,54.4063 202.7656,51.2813 Q202.7656,48.1563 204.0781,46.5 Q205.4063,44.8438 207.9063,44.8438 Q208.6094,44.8438 209.25,45 Q209.9063,45.1563 210.4688,45.4531 L210.4688,48.1719 Q209.8438,47.5938 209.25,47.3281 Q208.6563,47.0469 208.0313,47.0469 Q206.6875,47.0469 206,48.125 Q205.3125,49.1875 205.3125,51.2813 Q205.3125,53.375 206,54.4531 Q206.6875,55.5156 208.0313,55.5156 Q208.6563,55.5156 209.25,55.25 Q209.8438,54.9688 210.4688,54.3906 L210.4688,57.1094 Z " fill="#000000"/><text fill="#000000" font-family="sans-serif" font-size="14" lengthAdjust="spacing" textLength="127.5244" x="221.5" y="50.4951">DecimalDigitsNSG</text><text fill="#000000" font-family="sans-serif" font-size="10" lengthAdjust="spacing" textLength="104.8633" x="232.8306" y="63.0791">it.unimi.di.prog2.h15</text></g></a><polygon fill="none" points="120.4817,91.3266,125.5058,109.6231,135.4788,102.9494,120.4817,91.3266" style="stroke:#181818;stroke-width:1.0;"/><path d="M130.4923,106.2862 C137.8806,117.3272 136.0873,114.6473 144.0827,126.5956 " fill="none" style="stroke:#181818;stroke-width:1.0;stroke-dasharray:7.0,7.0;"/><ellipse cx="255.8624" cy="77.3629" fill="#FFFFFF" rx="8" ry="8" style="stroke:#181818;stroke-width:1.0;"/><line style="stroke:#181818;stroke-width:1.0;" x1="251.4133" x2="260.3115" y1="84.0116" y2="70.7142"/><line style="stroke:#181818;stroke-width:1.0;" x1="249.2137" x2="262.5111" y1="72.9138" y2="81.812"/><path d="M251.4133,84.0116 C241.6538,98.596 236.2939,106.6057 222.7042,126.914 " fill="none" style="stroke:#181818;stroke-width:1.0;"/><text fill="#888888" font-family="sans-serif" font-size="10" lengthAdjust="spacing" textLength="3.1787" x="178.4106" y="249.2822">&#160;</text><text fill="#888888" font-family="sans-serif" font-size="10" lengthAdjust="spacing" textLength="183.0908" x="88.4546" y="260.9229">UMLDoclet 2.2.0, PlantUML 1.2024.6</text><!--SRC=[hL9DQnin4BtdLqm31PlKsjYq5-Ew5qC8jAPWUid7ORmUxwf8Cuiq3atJ_FTgjKxYDaunD7lGelUUPgGt3m3WJHEmyWWERsMZ43qfCXuT9GeYAJ1wYWsMjA060we4O67AV6rN1EGRlOMr9RUAVwEfM2q9pdZfC4OudaJxayR3zzCPbTQZczdAQfmlpinS-8A2TC0PCULsyyKLRy-SJgsQ3LjlpSgQ9aWrClNmmp5WXBsCERW7N5uUh3MrUdTz3NVvMUqt2EJHikLg34wuUY9Ugj5hPVr7tKcDSKu_jDSVmrB44V8JnrlYd9Kg2fcuxpor2GhhD9qTNy-rQx9ZstUyGRDHwx9LZplp89riIq-J3RLg4yT5iP8o6WbOEZAb-8AuQ0_c9L8n6cP5WOtDa5csQ5QqfOk7qjciJpOEqYCeCBgF6ZRqXtjtk8oQ6kdzFttObUstv92KlMAOzcMcYqOtdES-m-INCVyRrMxmXztmP31ubNObjK63jKZxk-9lNpxF92L3OMH6vlGTV7N8cb1uUqCXMk5U_pS0]--></g></svg>