<svg xmlns="http://www.w3.org/2000/svg" xmlns:xlink="http://www.w3.org/1999/xlink" contentStyleType="text/css" height="255px" preserveAspectRatio="none" style="width:348px;height:255px;background:#FFFFFF;" version="1.1" viewBox="0 0 348 255" width="348px" zoomAndPan="magnify"><defs/><g><!--class it.unimi.di.prog2.h15.DecimalDigitsIG.NonZeroDigitsGeneratorIG--><a href="DecimalDigitsIG.NonZeroDigitsGeneratorIG.html" target="_top" title="DecimalDigitsIG.NonZeroDigitsGeneratorIG.html" xlink:actuate="onRequest" xlink:href="DecimalDigitsIG.NonZeroDigitsGeneratorIG.html" xlink:show="new" xlink:title="DecimalDigitsIG.NonZeroDigitsGeneratorIG.html" xlink:type="simple"><g id="elem_it.unimi.di.prog2.h15.DecimalDigitsIG.NonZeroDigitsGeneratorIG"><rect codeLine="7" fill="#F1F1F1" height="102.8281" id="it.unimi.di.prog2.h15.DecimalDigitsIG.NonZeroDigitsGeneratorIG" rx="2.5" ry="2.5" style="stroke:#181818;stroke-width:0.5;" width="335.4814" x="6" y="127"/><ellipse cx="21" cy="145.9688" fill="#ADD1B2" rx="11" ry="11" style="stroke:#181818;stroke-width:1.0;"/><path d="M23.9688,151.6094 Q23.3906,151.9063 22.75,152.0469 Q22.1094,152.2031 21.4063,152.2031 Q18.9063,152.2031 17.5781,150.5625 Q16.2656,148.9063 16.2656,145.7813 Q16.2656,142.6563 17.5781,141 Q18.9063,139.3438 21.4063,139.3438 Q22.1094,139.3438 22.75,139.5 Q23.4063,139.6563 23.9688,139.9531 L23.9688,142.6719 Q23.3438,142.0938 22.75,141.8281 Q22.1563,141.5469 21.5313,141.5469 Q20.1875,141.5469 19.5,142.625 Q18.8125,143.6875 18.8125,145.7813 Q18.8125,147.875 19.5,148.9531 Q20.1875,150.0156 21.5313,150.0156 Q22.1563,150.0156 22.75,149.75 Q23.3438,149.4688 23.9688,148.8906 L23.9688,151.6094 Z " fill="#000000"/><text fill="#000000" font-family="sans-serif" font-size="14" lengthAdjust="spacing" textLength="303.4814" x="35" y="144.9951">DecimalDigitsIG.NonZeroDigitsGeneratorIG</text><text fill="#000000" font-family="sans-serif" font-size="10" lengthAdjust="spacing" textLength="104.8633" x="134.3091" y="157.5791">it.unimi.di.prog2.h15</text><line style="stroke:#181818;stroke-width:0.5;" x1="7" x2="340.4814" y1="164.9375" y2="164.9375"/><rect fill="none" height="6" style="stroke:#C82930;stroke-width:1.0;" width="6" x="14" y="175.5859"/><text fill="#000000" font-family="sans-serif" font-size="14" lengthAdjust="spacing" textLength="110.3799" x="26" y="181.9326">remaining: long</text><line style="stroke:#181818;stroke-width:0.5;" x1="7" x2="340.4814" y1="189.2344" y2="189.2344"/><ellipse cx="17" cy="202.8828" fill="#84BE84" rx="3" ry="3" style="stroke:#038048;stroke-width:1.0;"/><text fill="#000000" font-family="sans-serif" font-size="14" lengthAdjust="spacing" textLength="133.6699" x="26" y="206.2295">hasNext(): boolean</text><ellipse cx="17" cy="219.1797" fill="#84BE84" rx="3" ry="3" style="stroke:#038048;stroke-width:1.0;"/><text fill="#000000" font-family="sans-serif" font-size="14" lengthAdjust="spacing" textLength="101.7119" x="26" y="222.5264">next(): Integer</text></g></a><!--class java.util.Iterator--><a href="https://docs.oracle.com/en/java/javase/21/docs/api/java.base/java/util/Iterator.html?is-external=true" target="_top" title="https://docs.oracle.com/en/java/javase/21/docs/api/java.base/java/util/Iterator.html?is-external=true" xlink:actuate="onRequest" xlink:href="https://docs.oracle.com/en/java/javase/21/docs/api/java.base/java/util/Iterator.html?is-external=true" xlink:show="new" xlink:title="https://docs.oracle.com/en/java/javase/21/docs/api/java.base/java/util/Iterator.html?is-external=true" xlink:type="simple"><g id="elem_java.util.Iterator"><rect codeLine="13" fill="#F1F1F1" height="78.5313" id="java.util.Iterator" rx="2.5" ry="2.5" style="stroke:#181818;stroke-width:0.5;" width="159.6699" x="8.5" y="12"/><ellipse cx="36.1571" cy="30.9688" fill="#B4A7E5" rx="11" ry="11" style="stroke:#181818;stroke-width:1.0;"/><path d="M32.079,26.7344 L32.079,24.5781 L39.4696,24.5781 L39.4696,26.7344 L37.0009,26.7344 L37.0009,34.8125 L39.4696,34.8125 L39.4696,36.9688 L32.079,36.9688 L32.079,34.8125 L34.5478,34.8125 L34.5478,26.7344 L32.079,26.7344 Z " fill="#000000"/><text fill="#000000" font-family="sans-serif" font-size="14" font-style="italic" lengthAdjust="spacing" textLength="52.377" x="52.9698" y="29.9951">Iterator</text><text fill="#000000" font-family="sans-serif" font-size="10" font-style="italic" lengthAdjust="spacing" textLength="39.9463" x="59.1852" y="42.5791">java.util</text><rect fill="#FFFFFF" height="15.9688" style="stroke:#181818;stroke-width:1.0;stroke-dasharray:2.0,2.0;" width="45.166" x="126.0039" y="9"/><text fill="#000000" font-family="sans-serif" font-size="12" font-style="italic" lengthAdjust="spacing" textLength="43.166" x="127.0039" y="21.1387">Integer</text><line style="stroke:#181818;stroke-width:0.5;" x1="9.5" x2="167.1699" y1="49.9375" y2="49.9375"/><ellipse cx="19.5" cy="63.5859" fill="#84BE84" rx="3" ry="3" style="stroke:#038048;stroke-width:1.0;"/><text fill="#000000" font-family="sans-serif" font-size="14" font-style="italic" lengthAdjust="spacing" textLength="133.6699" x="28.5" y="66.9326">hasNext(): boolean</text><ellipse cx="19.5" cy="79.8828" fill="#84BE84" rx="3" ry="3" style="stroke:#038048;stroke-width:1.0;"/><text fill="#000000" font-family="sans-serif" font-size="14" font-style="italic" lengthAdjust="spacing" textLength="101.7119" x="28.5" y="83.2295">next(): Integer</text></g></a><!--class it.unimi.di.prog2.h15.DecimalDigitsIG--><a href="DecimalDigitsIG.html" target="_top" title="DecimalDigitsIG.html" xlink:actuate="onRequest" xlink:href="DecimalDigitsIG.html" xlink:show="new" xlink:title="DecimalDigitsIG.html" xlink:type="simple"><g id="elem_it.unimi.di.prog2.h15.DecimalDigitsIG"><rect codeLine="17" fill="#F1F1F1" height="37.9375" id="it.unimi.di.prog2.h15.DecimalDigitsIG" rx="2.5" ry="2.5" style="stroke:#181818;stroke-width:0.5;" width="144.2939" x="186.5" y="32.5"/><ellipse cx="201.5" cy="51.4688" fill="#ADD1B2" rx="11" ry="11" style="stroke:#181818;stroke-width:1.0;"/><path d="M204.4688,57.1094 Q203.8906,57.4063 203.25,57.5469 Q202.6094,57.7031 201.9063,57.7031 Q199.4063,57.7031 198.0781,56.0625 Q196.7656,54.4063 196.7656,51.2813 Q196.7656,48.1563 198.0781,46.5 Q199.4063,44.8438 201.9063,44.8438 Q202.6094,44.8438 203.25,45 Q203.9063,45.1563 204.4688,45.4531 L204.4688,48.1719 Q203.8438,47.5938 203.25,47.3281 Q202.6563,47.0469 202.0313,47.0469 Q200.6875,47.0469 200,48.125 Q199.3125,49.1875 199.3125,51.2813 Q199.3125,53.375 200,54.4531 Q200.6875,55.5156 202.0313,55.5156 Q202.6563,55.5156 203.25,55.25 Q203.8438,54.9688 204.4688,54.3906 L204.4688,57.1094 Z " fill="#000000"/><text fill="#000000" font-family="sans-serif" font-size="14" lengthAdjust="spacing" textLength="112.2939" x="215.5" y="50.4951">DecimalDigitsIG</text><text fill="#000000" font-family="sans-serif" font-size="10" lengthAdjust="spacing" textLength="104.8633" x="219.2153" y="63.0791">it.unimi.di.prog2.h15</text></g></a><polygon fill="none" points="114.6964,91.0241,119.8564,109.2826,129.7795,102.5349,114.6964,91.0241" style="stroke:#181818;stroke-width:1.0;"/><path d="M124.818,105.9088 C132.5251,117.2428 130.9538,114.932 139.0928,126.9012 " fill="none" style="stroke:#181818;stroke-width:1.0;stroke-dasharray:7.0,7.0;"/><ellipse cx="241.6418" cy="77.2915" fill="#FFFFFF" rx="8" ry="8" style="stroke:#181818;stroke-width:1.0;"/><line style="stroke:#181818;stroke-width:1.0;" x1="237.1433" x2="246.1403" y1="83.9069" y2="70.6761"/><line style="stroke:#181818;stroke-width:1.0;" x1="235.0264" x2="248.2572" y1="72.793" y2="81.79"/><path d="M237.1433,83.9069 C227.1057,98.6681 221.4438,106.9944 207.9186,126.8844 " fill="none" style="stroke:#181818;stroke-width:1.0;"/><text fill="#888888" font-family="sans-serif" font-size="10" lengthAdjust="spacing" textLength="3.1787" x="168.4106" y="233.2822">&#160;</text><text fill="#888888" font-family="sans-serif" font-size="10" lengthAdjust="spacing" textLength="183.0908" x="78.4546" y="244.9229">UMLDoclet 2.2.0, PlantUML 1.2024.6</text><!--SRC=[hL9DQnin4BtdLqm3XOJKsjYq5-Eu5uCnjA4GUccImtWztbMGPXPf7FBH_FTejKxg92OO6XqazDveHlFc0G1yQW9M7i7XhQmKeYT5nhszH44a1KPFiS6IpgZ1W2e1M9WoNzi50Vb6Rs5foItYQpGbgoN16IyTnWZxesZlQDZ_EfvGQJswYQsinjdKd0h_eI3TVKfCkTfiUi7h9yTZgsR5rbkpiAO9KWrCtV-s3nXXAsDsBG7dvxk6cbgzkxo4-znJktg1F5gsN0t12LVFn56DyPHkzE1m27CHHyZ_E5uJCrQgA6JYeHFA9YWia-GROisq-y2665TuZMQbrcK1dc_cANIqJZrEtTMgJHmMnKBAQ2HWwSYKuWlYedsOjqZ5e9yZ2cniXioyHND4cxfuIfr5-6vZBpL1WT6TQ5ZH2rNkSHur5TA7TtNO3DikoGxM-JY7R352D-zkCcz5Xj5VO_xJVTtGT_hUKQ_t4SLAQYq6Iv7skE3VFtzC97b2OM06vlWB_7B8cb3uV4qXMk63mqS0]--></g></svg>