<svg xmlns="http://www.w3.org/2000/svg" xmlns:xlink="http://www.w3.org/1999/xlink" contentStyleType="text/css" height="271px" preserveAspectRatio="none" style="width:251px;height:271px;background:#FFFFFF;" version="1.1" viewBox="0 0 251 271" width="251px" zoomAndPan="magnify"><defs/><g><!--class it.unimi.di.prog2.h15.NonZeroDigitsGenerator--><a href="NonZeroDigitsGenerator.html" target="_top" title="NonZeroDigitsGenerator.html" xlink:actuate="onRequest" xlink:href="NonZeroDigitsGenerator.html" xlink:show="new" xlink:title="NonZeroDigitsGenerator.html" xlink:type="simple"><g id="elem_it.unimi.di.prog2.h15.NonZeroDigitsGenerator"><rect codeLine="7" fill="#F1F1F1" height="119.125" id="it.unimi.di.prog2.h15.NonZeroDigitsGenerator" rx="2.5" ry="2.5" style="stroke:#181818;stroke-width:0.5;" width="238.8984" x="6" y="127"/><ellipse cx="36.8124" cy="145.9688" fill="#ADD1B2" rx="11" ry="11" style="stroke:#181818;stroke-width:1.0;"/><path d="M39.7812,151.6094 Q39.203,151.9063 38.5624,152.0469 Q37.9218,152.2031 37.2187,152.2031 Q34.7187,152.2031 33.3905,150.5625 Q32.078,148.9063 32.078,145.7813 Q32.078,142.6563 33.3905,141 Q34.7187,139.3438 37.2187,139.3438 Q37.9218,139.3438 38.5624,139.5 Q39.2187,139.6563 39.7812,139.9531 L39.7812,142.6719 Q39.1562,142.0938 38.5624,141.8281 Q37.9687,141.5469 37.3437,141.5469 Q35.9999,141.5469 35.3124,142.625 Q34.6249,143.6875 34.6249,145.7813 Q34.6249,147.875 35.3124,148.9531 Q35.9999,150.0156 37.3437,150.0156 Q37.9687,150.0156 38.5624,149.75 Q39.1562,149.4688 39.7812,148.8906 L39.7812,151.6094 Z " fill="#000000"/><text fill="#000000" font-family="sans-serif" font-size="14" lengthAdjust="spacing" textLength="171.7598" x="54.3263" y="144.9951">NonZeroDigitsGenerator</text><text fill="#000000" font-family="sans-serif" font-size="10" lengthAdjust="spacing" textLength="104.8633" x="87.7745" y="157.5791">it.unimi.di.prog2.h15</text><line style="stroke:#181818;stroke-width:0.5;" x1="7" x2="243.8984" y1="164.9375" y2="164.9375"/><rect fill="none" height="6" style="stroke:#C82930;stroke-width:1.0;" width="6" x="14" y="175.5859"/><text fill="#000000" font-family="sans-serif" font-size="14" lengthAdjust="spacing" textLength="110.3799" x="26" y="181.9326">remaining: long</text><line style="stroke:#181818;stroke-width:0.5;" x1="7" x2="243.8984" y1="189.2344" y2="189.2344"/><polygon fill="#FFFF44" points="17,197.8828,21,201.8828,17,205.8828,13,201.8828" style="stroke:#B38D22;stroke-width:1.0;"/><text fill="#000000" font-family="sans-serif" font-size="14" lengthAdjust="spacing" textLength="212.8984" x="26" y="206.2295">NonZeroDigitsGenerator(long)</text><ellipse cx="17" cy="219.1797" fill="#84BE84" rx="3" ry="3" style="stroke:#038048;stroke-width:1.0;"/><text fill="#000000" font-family="sans-serif" font-size="14" lengthAdjust="spacing" textLength="133.6699" x="26" y="222.5264">hasNext(): boolean</text><ellipse cx="17" cy="235.4766" fill="#84BE84" rx="3" ry="3" style="stroke:#038048;stroke-width:1.0;"/><text fill="#000000" font-family="sans-serif" font-size="14" lengthAdjust="spacing" textLength="101.7119" x="26" y="238.8232">next(): Integer</text></g></a><!--class java.util.Iterator--><a href="https://docs.oracle.com/en/java/javase/21/docs/api/java.base/java/util/Iterator.html?is-external=true" target="_top" title="https://docs.oracle.com/en/java/javase/21/docs/api/java.base/java/util/Iterator.html?is-external=true" xlink:actuate="onRequest" xlink:href="https://docs.oracle.com/en/java/javase/21/docs/api/java.base/java/util/Iterator.html?is-external=true" xlink:show="new" xlink:title="https://docs.oracle.com/en/java/javase/21/docs/api/java.base/java/util/Iterator.html?is-external=true" xlink:type="simple"><g id="elem_java.util.Iterator"><rect codeLine="14" fill="#F1F1F1" height="78.5313" id="java.util.Iterator" rx="2.5" ry="2.5" style="stroke:#181818;stroke-width:0.5;" width="159.6699" x="45.5" y="12"/><ellipse cx="73.1571" cy="30.9688" fill="#B4A7E5" rx="11" ry="11" style="stroke:#181818;stroke-width:1.0;"/><path d="M69.079,26.7344 L69.079,24.5781 L76.4696,24.5781 L76.4696,26.7344 L74.0009,26.7344 L74.0009,34.8125 L76.4696,34.8125 L76.4696,36.9688 L69.079,36.9688 L69.079,34.8125 L71.5478,34.8125 L71.5478,26.7344 L69.079,26.7344 Z " fill="#000000"/><text fill="#000000" font-family="sans-serif" font-size="14" font-style="italic" lengthAdjust="spacing" textLength="52.377" x="89.9698" y="29.9951">Iterator</text><text fill="#000000" font-family="sans-serif" font-size="10" font-style="italic" lengthAdjust="spacing" textLength="39.9463" x="96.1852" y="42.5791">java.util</text><rect fill="#FFFFFF" height="15.9688" style="stroke:#181818;stroke-width:1.0;stroke-dasharray:2.0,2.0;" width="45.166" x="163.0039" y="9"/><text fill="#000000" font-family="sans-serif" font-size="12" font-style="italic" lengthAdjust="spacing" textLength="43.166" x="164.0039" y="21.1387">Integer</text><line style="stroke:#181818;stroke-width:0.5;" x1="46.5" x2="204.1699" y1="49.9375" y2="49.9375"/><ellipse cx="56.5" cy="63.5859" fill="#84BE84" rx="3" ry="3" style="stroke:#038048;stroke-width:1.0;"/><text fill="#000000" font-family="sans-serif" font-size="14" font-style="italic" lengthAdjust="spacing" textLength="133.6699" x="65.5" y="66.9326">hasNext(): boolean</text><ellipse cx="56.5" cy="79.8828" fill="#84BE84" rx="3" ry="3" style="stroke:#038048;stroke-width:1.0;"/><text fill="#000000" font-family="sans-serif" font-size="14" font-style="italic" lengthAdjust="spacing" textLength="101.7119" x="65.5" y="83.2295">next(): Integer</text></g></a><polygon fill="none" points="125.5,91.3266,119.5,109.3266,131.5,109.3266,125.5,91.3266" style="stroke:#181818;stroke-width:1.0;"/><path d="M125.5,109.3266 C125.5,120.3676 125.5,114.6473 125.5,126.5956 " fill="none" style="stroke:#181818;stroke-width:1.0;stroke-dasharray:7.0,7.0;"/><text fill="#888888" font-family="sans-serif" font-size="10" lengthAdjust="spacing" textLength="3.1787" x="120.4106" y="249.2822">&#160;</text><text fill="#888888" font-family="sans-serif" font-size="10" lengthAdjust="spacing" textLength="183.0908" x="30.4546" y="260.9229">UMLDoclet 2.2.0, PlantUML 1.2024.6</text><!--SRC=[bPBDIyD04CNl_XMZ8hIe6rlqKcgz54HG4SIBsiCqdIOhcvcmEotMZ__TpLhhLn7COKFUU_koyqi003PhZqM5u70XCuLGaIBZnaQq8902OqMXnfokgKQFAXvOc99VsWa1LRKkO6h9JS9FDPQL4kMavmv3WAr-i4_KwnmEBeLloSlG5bR3AJ6bzdjU1Wu6LisCRMNDn9hQIz4rPUTe2p30MiUiBuIxk_M6ARLoen4yfzCrrxwd2YrRBdhWX8kLiRs-eTM4sglKRedXaXwrrUx1MCGHygV7I-ECbGhooNXz1sEZvASHyHSuP_eBnmFEqSpKkeHWzMG-elrbzI1ENAhMePTb4yc34O-v8vDBbH5dpSQq1CgwdPJ8iBP9CkD6JOccElkeJgXERDYFGv1dTCVgP_IDtJEEWyONwUkV7Bx6_a3oUphelnZphm___jDH0nUc8itjdcykpeSIQIXqJTSSxC6LGzQemiwSVB32hVOR]--></g></svg>