<svg xmlns="http://www.w3.org/2000/svg" xmlns:xlink="http://www.w3.org/1999/xlink" contentStyleType="text/css" height="490px" preserveAspectRatio="none" style="width:1878px;height:490px;background:#FFFFFF;" version="1.1" viewBox="0 0 1878 490" width="1878px" zoomAndPan="magnify"><defs/><g><!--cluster it.unimi.di.prog2.h15--><g id="cluster_it.unimi.di.prog2.h15"><path d="M16.5,160 L184.96,160 A3.75,3.75 0 0 1 187.46,162.5 L194.46,182.2969 L1658.5,182.2969 A2.5,2.5 0 0 1 1661,184.7969 L1661,454.5 A2.5,2.5 0 0 1 1658.5,457 L16.5,457 A2.5,2.5 0 0 1 14,454.5 L14,162.5 A2.5,2.5 0 0 1 16.5,160 " fill="none" style="stroke:#000000;stroke-width:1.5;"/><line style="stroke:#000000;stroke-width:1.5;" x1="14" x2="194.46" y1="182.2969" y2="182.2969"/><text fill="#000000" font-family="sans-serif" font-size="14" font-weight="bold" lengthAdjust="spacing" textLength="167.46" x="18" y="174.9951">it.unimi.di.prog2.h15</text></g><!--cluster java.lang--><g id="cluster_java.lang"><path d="M559.5,12 L632.8721,12 A3.75,3.75 0 0 1 635.3721,14.5 L642.3721,34.2969 L858.5,34.2969 A2.5,2.5 0 0 1 861,36.7969 L861,141.5 A2.5,2.5 0 0 1 858.5,144 L559.5,144 A2.5,2.5 0 0 1 557,141.5 L557,14.5 A2.5,2.5 0 0 1 559.5,12 " fill="none" style="stroke:#000000;stroke-width:1.5;"/><line style="stroke:#000000;stroke-width:1.5;" x1="557" x2="642.3721" y1="34.2969" y2="34.2969"/><text fill="#000000" font-family="sans-serif" font-size="14" font-weight="bold" lengthAdjust="spacing" textLength="72.3721" x="561" y="26.9951">java.lang</text></g><!--cluster java.util--><g id="cluster_java.util"><path d="M1493.5,4 L1558.8945,4 A3.75,3.75 0 0 1 1561.3945,6.5 L1568.3945,26.2969 L1868.5,26.2969 A2.5,2.5 0 0 1 1871,28.7969 L1871,149.5 A2.5,2.5 0 0 1 1868.5,152 L1493.5,152 A2.5,2.5 0 0 1 1491,149.5 L1491,6.5 A2.5,2.5 0 0 1 1493.5,4 " fill="none" style="stroke:#000000;stroke-width:1.5;"/><line style="stroke:#000000;stroke-width:1.5;" x1="1491" x2="1568.3945" y1="26.2969" y2="26.2969"/><text fill="#000000" font-family="sans-serif" font-size="14" font-weight="bold" lengthAdjust="spacing" textLength="64.3945" x="1495" y="18.9951">java.util</text></g><!--class DecimalDigitsEG--><a href="DecimalDigitsEG.html" target="_top" title="DecimalDigitsEG.html" xlink:actuate="onRequest" xlink:href="DecimalDigitsEG.html" xlink:show="new" xlink:title="DecimalDigitsEG.html" xlink:type="simple"><g id="elem_DecimalDigitsEG"><rect codeLine="6" fill="#F1F1F1" height="113.1875" id="DecimalDigitsEG" rx="2.5" ry="2.5" style="stroke:#181818;stroke-width:0.5;" width="271.3555" x="22.5" y="187"/><ellipse cx="95.4224" cy="203" fill="#ADD1B2" rx="11" ry="11" style="stroke:#181818;stroke-width:1.0;"/><path d="M98.3911,208.6406 Q97.813,208.9375 97.1724,209.0781 Q96.5317,209.2344 95.8286,209.2344 Q93.3286,209.2344 92.0005,207.5938 Q90.688,205.9375 90.688,202.8125 Q90.688,199.6875 92.0005,198.0313 Q93.3286,196.375 95.8286,196.375 Q96.5317,196.375 97.1724,196.5313 Q97.8286,196.6875 98.3911,196.9844 L98.3911,199.7031 Q97.7661,199.125 97.1724,198.8594 Q96.5786,198.5781 95.9536,198.5781 Q94.6099,198.5781 93.9224,199.6563 Q93.2349,200.7188 93.2349,202.8125 Q93.2349,204.9063 93.9224,205.9844 Q94.6099,207.0469 95.9536,207.0469 Q96.5786,207.0469 97.1724,206.7813 Q97.7661,206.5 98.3911,205.9219 L98.3911,208.6406 Z " fill="#000000"/><text fill="#000000" font-family="sans-serif" font-size="14" lengthAdjust="spacing" textLength="117.0107" x="115.9224" y="207.8467">DecimalDigitsEG</text><line style="stroke:#181818;stroke-width:0.5;" x1="23.5" x2="292.8555" y1="219" y2="219"/><rect fill="none" height="6" style="stroke:#C82930;stroke-width:1.0;" width="6" x="30.5" y="229.6484"/><text fill="#000000" font-family="sans-serif" font-size="14" lengthAdjust="spacing" textLength="94.0215" x="42.5" y="235.9951">number: long</text><line style="stroke:#181818;stroke-width:0.5;" x1="23.5" x2="292.8555" y1="243.2969" y2="243.2969"/><ellipse cx="33.5" cy="256.9453" fill="#84BE84" rx="3" ry="3" style="stroke:#038048;stroke-width:1.0;"/><text fill="#000000" font-family="sans-serif" font-size="14" lengthAdjust="spacing" textLength="158.1494" x="42.5" y="260.292">DecimalDigitsEG(long)</text><ellipse cx="33.5" cy="273.2422" fill="#84BE84" rx="3" ry="3" style="stroke:#038048;stroke-width:1.0;"/><text fill="#000000" font-family="sans-serif" font-size="14" lengthAdjust="spacing" textLength="87.6367" x="42.5" y="276.5889">digit(int): int</text><ellipse cx="33.5" cy="289.5391" fill="#84BE84" rx="3" ry="3" style="stroke:#038048;stroke-width:1.0;"/><text fill="#000000" font-family="sans-serif" font-size="14" lengthAdjust="spacing" textLength="245.3555" x="42.5" y="292.8857">nonZeroDigits(): Iterator&lt;Integer&gt;</text></g></a><!--class StringFormatter--><a href="StringFormatter.html" target="_top" title="StringFormatter.html" xlink:actuate="onRequest" xlink:href="StringFormatter.html" xlink:show="new" xlink:title="StringFormatter.html" xlink:type="simple"><g id="elem_StringFormatter"><rect codeLine="13" fill="#F1F1F1" height="96.8906" id="StringFormatter" rx="2.5" ry="2.5" style="stroke:#181818;stroke-width:0.5;" width="215.8477" x="601" y="195"/><ellipse cx="648.814" cy="211" fill="#ADD1B2" rx="11" ry="11" style="stroke:#181818;stroke-width:1.0;"/><path d="M651.7827,216.6406 Q651.2046,216.9375 650.564,217.0781 Q649.9233,217.2344 649.2202,217.2344 Q646.7202,217.2344 645.3921,215.5938 Q644.0796,213.9375 644.0796,210.8125 Q644.0796,207.6875 645.3921,206.0313 Q646.7202,204.375 649.2202,204.375 Q649.9233,204.375 650.564,204.5313 Q651.2202,204.6875 651.7827,204.9844 L651.7827,207.7031 Q651.1577,207.125 650.564,206.8594 Q649.9702,206.5781 649.3452,206.5781 Q648.0015,206.5781 647.314,207.6563 Q646.6265,208.7188 646.6265,210.8125 Q646.6265,212.9063 647.314,213.9844 Q648.0015,215.0469 649.3452,215.0469 Q649.9702,215.0469 650.564,214.7813 Q651.1577,214.5 651.7827,213.9219 L651.7827,216.6406 Z " fill="#000000"/><text fill="#000000" font-family="sans-serif" font-size="14" lengthAdjust="spacing" textLength="111.7197" x="669.314" y="215.8467">StringFormatter</text><line style="stroke:#181818;stroke-width:0.5;" x1="602" x2="815.8477" y1="227" y2="227"/><rect fill="none" height="6" style="stroke:#C82930;stroke-width:1.0;" width="6" x="609" y="237.6484"/><text fill="#000000" font-family="sans-serif" font-size="14" lengthAdjust="spacing" textLength="139.0703" x="621" y="243.9951">string: List&lt;String&gt;</text><line style="stroke:#181818;stroke-width:0.5;" x1="602" x2="815.8477" y1="251.2969" y2="251.2969"/><ellipse cx="612" cy="264.9453" fill="#84BE84" rx="3" ry="3" style="stroke:#038048;stroke-width:1.0;"/><text fill="#000000" font-family="sans-serif" font-size="14" lengthAdjust="spacing" textLength="117.8516" x="621" y="268.292">add(String): void</text><ellipse cx="612" cy="281.2422" fill="#84BE84" rx="3" ry="3" style="stroke:#038048;stroke-width:1.0;"/><text fill="#000000" font-family="sans-serif" font-size="14" lengthAdjust="spacing" textLength="189.8477" x="621" y="284.5889">iterator(): Iterator&lt;String&gt;</text></g></a><!--class DecimalDigitsAG--><a href="DecimalDigitsAG.html" target="_top" title="DecimalDigitsAG.html" xlink:actuate="onRequest" xlink:href="DecimalDigitsAG.html" xlink:show="new" xlink:title="DecimalDigitsAG.html" xlink:type="simple"><g id="elem_DecimalDigitsAG"><rect codeLine="19" fill="#F1F1F1" height="96.8906" id="DecimalDigitsAG" rx="2.5" ry="2.5" style="stroke:#181818;stroke-width:0.5;" width="271.3555" x="311.5" y="195"/><ellipse cx="384.0566" cy="211" fill="#ADD1B2" rx="11" ry="11" style="stroke:#181818;stroke-width:1.0;"/><path d="M387.0254,216.6406 Q386.4473,216.9375 385.8066,217.0781 Q385.166,217.2344 384.4629,217.2344 Q381.9629,217.2344 380.6348,215.5938 Q379.3223,213.9375 379.3223,210.8125 Q379.3223,207.6875 380.6348,206.0313 Q381.9629,204.375 384.4629,204.375 Q385.166,204.375 385.8066,204.5313 Q386.4629,204.6875 387.0254,204.9844 L387.0254,207.7031 Q386.4004,207.125 385.8066,206.8594 Q385.2129,206.5781 384.5879,206.5781 Q383.2441,206.5781 382.5566,207.6563 Q381.8691,208.7188 381.8691,210.8125 Q381.8691,212.9063 382.5566,213.9844 Q383.2441,215.0469 384.5879,215.0469 Q385.2129,215.0469 385.8066,214.7813 Q386.4004,214.5 387.0254,213.9219 L387.0254,216.6406 Z " fill="#000000"/><text fill="#000000" font-family="sans-serif" font-size="14" lengthAdjust="spacing" textLength="117.7422" x="404.5566" y="215.8467">DecimalDigitsAG</text><line style="stroke:#181818;stroke-width:0.5;" x1="312.5" x2="581.8555" y1="227" y2="227"/><rect fill="none" height="6" style="stroke:#C82930;stroke-width:1.0;" width="6" x="319.5" y="237.6484"/><text fill="#000000" font-family="sans-serif" font-size="14" lengthAdjust="spacing" textLength="94.0215" x="331.5" y="243.9951">number: long</text><line style="stroke:#181818;stroke-width:0.5;" x1="312.5" x2="581.8555" y1="251.2969" y2="251.2969"/><ellipse cx="322.5" cy="264.9453" fill="#84BE84" rx="3" ry="3" style="stroke:#038048;stroke-width:1.0;"/><text fill="#000000" font-family="sans-serif" font-size="14" lengthAdjust="spacing" textLength="158.8809" x="331.5" y="268.292">DecimalDigitsAG(long)</text><ellipse cx="322.5" cy="281.2422" fill="#84BE84" rx="3" ry="3" style="stroke:#038048;stroke-width:1.0;"/><text fill="#000000" font-family="sans-serif" font-size="14" lengthAdjust="spacing" textLength="245.3555" x="331.5" y="284.5889">nonZeroDigits(): Iterator&lt;Integer&gt;</text></g></a><!--class NonZeroDigitsGenerator--><a href="NonZeroDigitsGenerator.html" target="_top" title="NonZeroDigitsGenerator.html" xlink:actuate="onRequest" xlink:href="NonZeroDigitsGenerator.html" xlink:show="new" xlink:title="NonZeroDigitsGenerator.html" xlink:type="simple"><g id="elem_NonZeroDigitsGenerator"><rect codeLine="25" fill="#F1F1F1" height="113.1875" id="NonZeroDigitsGenerator" rx="2.5" ry="2.5" style="stroke:#181818;stroke-width:0.5;" width="238.8984" x="835.5" y="187"/><ellipse cx="866.3124" cy="203" fill="#ADD1B2" rx="11" ry="11" style="stroke:#181818;stroke-width:1.0;"/><path d="M869.2812,208.6406 Q868.703,208.9375 868.0624,209.0781 Q867.4218,209.2344 866.7187,209.2344 Q864.2187,209.2344 862.8905,207.5938 Q861.578,205.9375 861.578,202.8125 Q861.578,199.6875 862.8905,198.0313 Q864.2187,196.375 866.7187,196.375 Q867.4218,196.375 868.0624,196.5313 Q868.7187,196.6875 869.2812,196.9844 L869.2812,199.7031 Q868.6562,199.125 868.0624,198.8594 Q867.4687,198.5781 866.8437,198.5781 Q865.4999,198.5781 864.8124,199.6563 Q864.1249,200.7188 864.1249,202.8125 Q864.1249,204.9063 864.8124,205.9844 Q865.4999,207.0469 866.8437,207.0469 Q867.4687,207.0469 868.0624,206.7813 Q868.6562,206.5 869.2812,205.9219 L869.2812,208.6406 Z " fill="#000000"/><text fill="#000000" font-family="sans-serif" font-size="14" lengthAdjust="spacing" textLength="171.7598" x="883.8263" y="207.8467">NonZeroDigitsGenerator</text><line style="stroke:#181818;stroke-width:0.5;" x1="836.5" x2="1073.3984" y1="219" y2="219"/><rect fill="none" height="6" style="stroke:#C82930;stroke-width:1.0;" width="6" x="843.5" y="229.6484"/><text fill="#000000" font-family="sans-serif" font-size="14" lengthAdjust="spacing" textLength="110.3799" x="855.5" y="235.9951">remaining: long</text><line style="stroke:#181818;stroke-width:0.5;" x1="836.5" x2="1073.3984" y1="243.2969" y2="243.2969"/><polygon fill="#FFFF44" points="846.5,251.9453,850.5,255.9453,846.5,259.9453,842.5,255.9453" style="stroke:#B38D22;stroke-width:1.0;"/><text fill="#000000" font-family="sans-serif" font-size="14" lengthAdjust="spacing" textLength="212.8984" x="855.5" y="260.292">NonZeroDigitsGenerator(long)</text><ellipse cx="846.5" cy="273.2422" fill="#84BE84" rx="3" ry="3" style="stroke:#038048;stroke-width:1.0;"/><text fill="#000000" font-family="sans-serif" font-size="14" lengthAdjust="spacing" textLength="133.6699" x="855.5" y="276.5889">hasNext(): boolean</text><ellipse cx="846.5" cy="289.5391" fill="#84BE84" rx="3" ry="3" style="stroke:#038048;stroke-width:1.0;"/><text fill="#000000" font-family="sans-serif" font-size="14" lengthAdjust="spacing" textLength="101.7119" x="855.5" y="292.8857">next(): Integer</text></g></a><!--class DecimalDigits--><a href="DecimalDigits.html" target="_top" title="DecimalDigits.html" xlink:actuate="onRequest" xlink:href="DecimalDigits.html" xlink:show="new" xlink:title="DecimalDigits.html" xlink:type="simple"><g id="elem_DecimalDigits"><rect codeLine="32" fill="#F1F1F1" height="96.8906" id="DecimalDigits" rx="2.5" ry="2.5" style="stroke:#181818;stroke-width:0.5;" width="164.4551" x="76" y="344"/><ellipse cx="106.8124" cy="360" fill="#ADD1B2" rx="11" ry="11" style="stroke:#181818;stroke-width:1.0;"/><path d="M109.7812,365.6406 Q109.203,365.9375 108.5624,366.0781 Q107.9218,366.2344 107.2187,366.2344 Q104.7187,366.2344 103.3905,364.5938 Q102.078,362.9375 102.078,359.8125 Q102.078,356.6875 103.3905,355.0313 Q104.7187,353.375 107.2187,353.375 Q107.9218,353.375 108.5624,353.5313 Q109.2187,353.6875 109.7812,353.9844 L109.7812,356.7031 Q109.1562,356.125 108.5624,355.8594 Q107.9687,355.5781 107.3437,355.5781 Q105.9999,355.5781 105.3124,356.6563 Q104.6249,357.7188 104.6249,359.8125 Q104.6249,361.9063 105.3124,362.9844 Q105.9999,364.0469 107.3437,364.0469 Q107.9687,364.0469 108.5624,363.7813 Q109.1562,363.5 109.7812,362.9219 L109.7812,365.6406 Z " fill="#000000"/><text fill="#000000" font-family="sans-serif" font-size="14" lengthAdjust="spacing" textLength="97.3164" x="124.3263" y="364.8467">DecimalDigits</text><line style="stroke:#181818;stroke-width:0.5;" x1="77" x2="239.4551" y1="376" y2="376"/><rect fill="none" height="6" style="stroke:#C82930;stroke-width:1.0;" width="6" x="84" y="386.6484"/><text fill="#000000" font-family="sans-serif" font-size="14" lengthAdjust="spacing" textLength="94.0215" x="96" y="392.9951">number: long</text><line style="stroke:#181818;stroke-width:0.5;" x1="77" x2="239.4551" y1="400.2969" y2="400.2969"/><ellipse cx="87" cy="413.9453" fill="#84BE84" rx="3" ry="3" style="stroke:#038048;stroke-width:1.0;"/><text fill="#000000" font-family="sans-serif" font-size="14" lengthAdjust="spacing" textLength="138.4551" x="96" y="417.292">DecimalDigits(long)</text><ellipse cx="87" cy="430.2422" fill="#84BE84" rx="3" ry="3" style="stroke:#038048;stroke-width:1.0;"/><text fill="#000000" font-family="sans-serif" font-size="14" lengthAdjust="spacing" textLength="87.6367" x="96" y="433.5889">digit(int): int</text></g></a><!--class DecimalDigitsIG--><a href="DecimalDigitsIG.html" target="_top" title="DecimalDigitsIG.html" xlink:actuate="onRequest" xlink:href="DecimalDigitsIG.html" xlink:show="new" xlink:title="DecimalDigitsIG.html" xlink:type="simple"><g id="elem_DecimalDigitsIG"><rect codeLine="38" fill="#F1F1F1" height="113.1875" id="DecimalDigitsIG" rx="2.5" ry="2.5" style="stroke:#181818;stroke-width:0.5;" width="271.3555" x="1092.5" y="187"/><ellipse cx="1167.7808" cy="203" fill="#ADD1B2" rx="11" ry="11" style="stroke:#181818;stroke-width:1.0;"/><path d="M1170.7495,208.6406 Q1170.1714,208.9375 1169.5308,209.0781 Q1168.8901,209.2344 1168.187,209.2344 Q1165.687,209.2344 1164.3589,207.5938 Q1163.0464,205.9375 1163.0464,202.8125 Q1163.0464,199.6875 1164.3589,198.0313 Q1165.687,196.375 1168.187,196.375 Q1168.8901,196.375 1169.5308,196.5313 Q1170.187,196.6875 1170.7495,196.9844 L1170.7495,199.7031 Q1170.1245,199.125 1169.5308,198.8594 Q1168.937,198.5781 1168.312,198.5781 Q1166.9683,198.5781 1166.2808,199.6563 Q1165.5933,200.7188 1165.5933,202.8125 Q1165.5933,204.9063 1166.2808,205.9844 Q1166.9683,207.0469 1168.312,207.0469 Q1168.937,207.0469 1169.5308,206.7813 Q1170.1245,206.5 1170.7495,205.9219 L1170.7495,208.6406 Z " fill="#000000"/><text fill="#000000" font-family="sans-serif" font-size="14" lengthAdjust="spacing" textLength="112.2939" x="1188.2808" y="207.8467">DecimalDigitsIG</text><line style="stroke:#181818;stroke-width:0.5;" x1="1093.5" x2="1362.8555" y1="219" y2="219"/><rect fill="none" height="6" style="stroke:#C82930;stroke-width:1.0;" width="6" x="1100.5" y="229.6484"/><text fill="#000000" font-family="sans-serif" font-size="14" lengthAdjust="spacing" textLength="94.0215" x="1112.5" y="235.9951">number: long</text><line style="stroke:#181818;stroke-width:0.5;" x1="1093.5" x2="1362.8555" y1="243.2969" y2="243.2969"/><ellipse cx="1103.5" cy="256.9453" fill="#84BE84" rx="3" ry="3" style="stroke:#038048;stroke-width:1.0;"/><text fill="#000000" font-family="sans-serif" font-size="14" lengthAdjust="spacing" textLength="153.4326" x="1112.5" y="260.292">DecimalDigitsIG(long)</text><ellipse cx="1103.5" cy="273.2422" fill="#84BE84" rx="3" ry="3" style="stroke:#038048;stroke-width:1.0;"/><text fill="#000000" font-family="sans-serif" font-size="14" lengthAdjust="spacing" textLength="87.6367" x="1112.5" y="276.5889">digit(int): int</text><ellipse cx="1103.5" cy="289.5391" fill="#84BE84" rx="3" ry="3" style="stroke:#038048;stroke-width:1.0;"/><text fill="#000000" font-family="sans-serif" font-size="14" lengthAdjust="spacing" textLength="245.3555" x="1112.5" y="292.8857">nonZeroDigits(): Iterator&lt;Integer&gt;</text></g></a><!--class DecimalDigitsIG.NonZeroDigitsGeneratorIG--><a href="DecimalDigitsIG.NonZeroDigitsGeneratorIG.html" target="_top" title="DecimalDigitsIG.NonZeroDigitsGeneratorIG.html" xlink:actuate="onRequest" xlink:href="DecimalDigitsIG.NonZeroDigitsGeneratorIG.html" xlink:show="new" xlink:title="DecimalDigitsIG.NonZeroDigitsGeneratorIG.html" xlink:type="simple"><g id="elem_DecimalDigitsIG.NonZeroDigitsGeneratorIG"><rect codeLine="45" fill="#F1F1F1" height="96.8906" id="DecimalDigitsIG.NonZeroDigitsGeneratorIG" rx="2.5" ry="2.5" style="stroke:#181818;stroke-width:0.5;" width="335.4814" x="944.5" y="344"/><ellipse cx="959.5" cy="360" fill="#ADD1B2" rx="11" ry="11" style="stroke:#181818;stroke-width:1.0;"/><path d="M962.4688,365.6406 Q961.8906,365.9375 961.25,366.0781 Q960.6094,366.2344 959.9063,366.2344 Q957.4063,366.2344 956.0781,364.5938 Q954.7656,362.9375 954.7656,359.8125 Q954.7656,356.6875 956.0781,355.0313 Q957.4063,353.375 959.9063,353.375 Q960.6094,353.375 961.25,353.5313 Q961.9063,353.6875 962.4688,353.9844 L962.4688,356.7031 Q961.8438,356.125 961.25,355.8594 Q960.6563,355.5781 960.0313,355.5781 Q958.6875,355.5781 958,356.6563 Q957.3125,357.7188 957.3125,359.8125 Q957.3125,361.9063 958,362.9844 Q958.6875,364.0469 960.0313,364.0469 Q960.6563,364.0469 961.25,363.7813 Q961.8438,363.5 962.4688,362.9219 L962.4688,365.6406 Z " fill="#000000"/><text fill="#000000" font-family="sans-serif" font-size="14" lengthAdjust="spacing" textLength="303.4814" x="973.5" y="364.8467">DecimalDigitsIG.NonZeroDigitsGeneratorIG</text><line style="stroke:#181818;stroke-width:0.5;" x1="945.5" x2="1278.9814" y1="376" y2="376"/><rect fill="none" height="6" style="stroke:#C82930;stroke-width:1.0;" width="6" x="952.5" y="386.6484"/><text fill="#000000" font-family="sans-serif" font-size="14" lengthAdjust="spacing" textLength="110.3799" x="964.5" y="392.9951">remaining: long</text><line style="stroke:#181818;stroke-width:0.5;" x1="945.5" x2="1278.9814" y1="400.2969" y2="400.2969"/><ellipse cx="955.5" cy="413.9453" fill="#84BE84" rx="3" ry="3" style="stroke:#038048;stroke-width:1.0;"/><text fill="#000000" font-family="sans-serif" font-size="14" lengthAdjust="spacing" textLength="133.6699" x="964.5" y="417.292">hasNext(): boolean</text><ellipse cx="955.5" cy="430.2422" fill="#84BE84" rx="3" ry="3" style="stroke:#038048;stroke-width:1.0;"/><text fill="#000000" font-family="sans-serif" font-size="14" lengthAdjust="spacing" textLength="101.7119" x="964.5" y="433.5889">next(): Integer</text></g></a><!--class DecimalDigitsNSG--><a href="DecimalDigitsNSG.html" target="_top" title="DecimalDigitsNSG.html" xlink:actuate="onRequest" xlink:href="DecimalDigitsNSG.html" xlink:show="new" xlink:title="DecimalDigitsNSG.html" xlink:type="simple"><g id="elem_DecimalDigitsNSG"><rect codeLine="51" fill="#F1F1F1" height="113.1875" id="DecimalDigitsNSG" rx="2.5" ry="2.5" style="stroke:#181818;stroke-width:0.5;" width="271.3555" x="1381.5" y="187"/><ellipse cx="1449.1655" cy="203" fill="#ADD1B2" rx="11" ry="11" style="stroke:#181818;stroke-width:1.0;"/><path d="M1452.1343,208.6406 Q1451.5562,208.9375 1450.9155,209.0781 Q1450.2749,209.2344 1449.5718,209.2344 Q1447.0718,209.2344 1445.7437,207.5938 Q1444.4312,205.9375 1444.4312,202.8125 Q1444.4312,199.6875 1445.7437,198.0313 Q1447.0718,196.375 1449.5718,196.375 Q1450.2749,196.375 1450.9155,196.5313 Q1451.5718,196.6875 1452.1343,196.9844 L1452.1343,199.7031 Q1451.5093,199.125 1450.9155,198.8594 Q1450.3218,198.5781 1449.6968,198.5781 Q1448.353,198.5781 1447.6655,199.6563 Q1446.978,200.7188 1446.978,202.8125 Q1446.978,204.9063 1447.6655,205.9844 Q1448.353,207.0469 1449.6968,207.0469 Q1450.3218,207.0469 1450.9155,206.7813 Q1451.5093,206.5 1452.1343,205.9219 L1452.1343,208.6406 Z " fill="#000000"/><text fill="#000000" font-family="sans-serif" font-size="14" lengthAdjust="spacing" textLength="127.5244" x="1469.6655" y="207.8467">DecimalDigitsNSG</text><line style="stroke:#181818;stroke-width:0.5;" x1="1382.5" x2="1651.8555" y1="219" y2="219"/><rect fill="none" height="6" style="stroke:#C82930;stroke-width:1.0;" width="6" x="1389.5" y="229.6484"/><text fill="#000000" font-family="sans-serif" font-size="14" lengthAdjust="spacing" textLength="94.0215" x="1401.5" y="235.9951">number: long</text><line style="stroke:#181818;stroke-width:0.5;" x1="1382.5" x2="1651.8555" y1="243.2969" y2="243.2969"/><ellipse cx="1392.5" cy="256.9453" fill="#84BE84" rx="3" ry="3" style="stroke:#038048;stroke-width:1.0;"/><text fill="#000000" font-family="sans-serif" font-size="14" lengthAdjust="spacing" textLength="168.6631" x="1401.5" y="260.292">DecimalDigitsNSG(long)</text><ellipse cx="1392.5" cy="273.2422" fill="#84BE84" rx="3" ry="3" style="stroke:#038048;stroke-width:1.0;"/><text fill="#000000" font-family="sans-serif" font-size="14" lengthAdjust="spacing" textLength="87.6367" x="1401.5" y="276.5889">digit(int): int</text><ellipse cx="1392.5" cy="289.5391" fill="#84BE84" rx="3" ry="3" style="stroke:#038048;stroke-width:1.0;"/><text fill="#000000" font-family="sans-serif" font-size="14" lengthAdjust="spacing" textLength="245.3555" x="1401.5" y="292.8857">nonZeroDigits(): Iterator&lt;Integer&gt;</text></g></a><!--class DecimalDigitsNSG.NonZeroDigitsGeneratorNS--><a href="DecimalDigitsNSG.NonZeroDigitsGeneratorNS.html" target="_top" title="DecimalDigitsNSG.NonZeroDigitsGeneratorNS.html" xlink:actuate="onRequest" xlink:href="DecimalDigitsNSG.NonZeroDigitsGeneratorNS.html" xlink:show="new" xlink:title="DecimalDigitsNSG.NonZeroDigitsGeneratorNS.html" xlink:type="simple"><g id="elem_DecimalDigitsNSG.NonZeroDigitsGeneratorNS"><rect codeLine="58" fill="#F1F1F1" height="113.1875" id="DecimalDigitsNSG.NonZeroDigitsGeneratorNS" rx="2.5" ry="2.5" style="stroke:#181818;stroke-width:0.5;" width="355.0938" x="1297.5" y="336"/><ellipse cx="1312.5" cy="352" fill="#ADD1B2" rx="11" ry="11" style="stroke:#181818;stroke-width:1.0;"/><path d="M1315.4688,357.6406 Q1314.8906,357.9375 1314.25,358.0781 Q1313.6094,358.2344 1312.9063,358.2344 Q1310.4063,358.2344 1309.0781,356.5938 Q1307.7656,354.9375 1307.7656,351.8125 Q1307.7656,348.6875 1309.0781,347.0313 Q1310.4063,345.375 1312.9063,345.375 Q1313.6094,345.375 1314.25,345.5313 Q1314.9063,345.6875 1315.4688,345.9844 L1315.4688,348.7031 Q1314.8438,348.125 1314.25,347.8594 Q1313.6563,347.5781 1313.0313,347.5781 Q1311.6875,347.5781 1311,348.6563 Q1310.3125,349.7188 1310.3125,351.8125 Q1310.3125,353.9063 1311,354.9844 Q1311.6875,356.0469 1313.0313,356.0469 Q1313.6563,356.0469 1314.25,355.7813 Q1314.8438,355.5 1315.4688,354.9219 L1315.4688,357.6406 Z " fill="#000000"/><text fill="#000000" font-family="sans-serif" font-size="14" lengthAdjust="spacing" textLength="323.0938" x="1326.5" y="356.8467">DecimalDigitsNSG.NonZeroDigitsGeneratorNS</text><line style="stroke:#181818;stroke-width:0.5;" x1="1298.5" x2="1651.5938" y1="368" y2="368"/><rect fill="none" height="6" style="stroke:#C82930;stroke-width:1.0;" width="6" x="1305.5" y="378.6484"/><text fill="#000000" font-family="sans-serif" font-size="14" lengthAdjust="spacing" textLength="110.3799" x="1317.5" y="384.9951">remaining: long</text><line style="stroke:#181818;stroke-width:0.5;" x1="1298.5" x2="1651.5938" y1="392.2969" y2="392.2969"/><rect fill="#F24D5C" height="6" style="stroke:#C82930;stroke-width:1.0;" width="6" x="1305.5" y="402.9453"/><text fill="#000000" font-family="sans-serif" font-size="14" lengthAdjust="spacing" textLength="232.2578" x="1317.5" y="409.292">NonZeroDigitsGeneratorNS(long)</text><ellipse cx="1308.5" cy="422.2422" fill="#84BE84" rx="3" ry="3" style="stroke:#038048;stroke-width:1.0;"/><text fill="#000000" font-family="sans-serif" font-size="14" lengthAdjust="spacing" textLength="133.6699" x="1317.5" y="425.5889">hasNext(): boolean</text><ellipse cx="1308.5" cy="438.5391" fill="#84BE84" rx="3" ry="3" style="stroke:#038048;stroke-width:1.0;"/><text fill="#000000" font-family="sans-serif" font-size="14" lengthAdjust="spacing" textLength="101.7119" x="1317.5" y="441.8857">next(): Integer</text></g></a><!--class Iterable--><a href="https://docs.oracle.com/en/java/javase/21/docs/api/java.base/java/lang/Iterable.html?is-external=true" target="_top" title="https://docs.oracle.com/en/java/javase/21/docs/api/java.base/java/lang/Iterable.html?is-external=true" xlink:actuate="onRequest" xlink:href="https://docs.oracle.com/en/java/javase/21/docs/api/java.base/java/lang/Iterable.html?is-external=true" xlink:show="new" xlink:title="https://docs.oracle.com/en/java/javase/21/docs/api/java.base/java/lang/Iterable.html?is-external=true" xlink:type="simple"><g id="elem_Iterable"><rect codeLine="68" fill="#F1F1F1" height="96.8906" id="Iterable" rx="2.5" ry="2.5" style="stroke:#181818;stroke-width:0.5;" width="288.1172" x="565" y="39"/><ellipse cx="672.1655" cy="55" fill="#B4A7E5" rx="11" ry="11" style="stroke:#181818;stroke-width:1.0;"/><path d="M668.0874,50.7656 L668.0874,48.6094 L675.478,48.6094 L675.478,50.7656 L673.0093,50.7656 L673.0093,58.8438 L675.478,58.8438 L675.478,61 L668.0874,61 L668.0874,58.8438 L670.5562,58.8438 L670.5562,50.7656 L668.0874,50.7656 Z " fill="#000000"/><text fill="#000000" font-family="sans-serif" font-size="14" font-style="italic" lengthAdjust="spacing" textLength="53.9561" x="692.6655" y="59.8467">Iterable</text><rect fill="#FFFFFF" height="15.9688" style="stroke:#181818;stroke-width:1.0;stroke-dasharray:2.0,2.0;" width="9.3301" x="846.7871" y="36"/><text fill="#000000" font-family="sans-serif" font-size="12" font-style="italic" lengthAdjust="spacing" textLength="7.3301" x="847.7871" y="48.1387">T</text><line style="stroke:#181818;stroke-width:0.5;" x1="566" x2="852.1172" y1="71" y2="71"/><line style="stroke:#181818;stroke-width:0.5;" x1="566" x2="852.1172" y1="79" y2="79"/><ellipse cx="576" cy="92.6484" fill="#84BE84" rx="3" ry="3" style="stroke:#038048;stroke-width:1.0;"/><text fill="#000000" font-family="sans-serif" font-size="14" font-style="italic" lengthAdjust="spacing" textLength="156.6182" x="585" y="95.9951">iterator(): Iterator&lt;T&gt;</text><ellipse cx="576" cy="108.9453" fill="#84BE84" rx="3" ry="3" style="stroke:#038048;stroke-width:1.0;"/><text fill="#000000" font-family="sans-serif" font-size="14" lengthAdjust="spacing" textLength="262.1172" x="585" y="112.292">forEach(Consumer&lt;? super T&gt;): void</text><ellipse cx="576" cy="125.2422" fill="#84BE84" rx="3" ry="3" style="stroke:#038048;stroke-width:1.0;"/><text fill="#000000" font-family="sans-serif" font-size="14" lengthAdjust="spacing" textLength="198.1123" x="585" y="128.5889">spliterator(): Spliterator&lt;T&gt;</text></g></a><!--class Iterator--><a href="https://docs.oracle.com/en/java/javase/21/docs/api/java.base/java/util/Iterator.html?is-external=true" target="_top" title="https://docs.oracle.com/en/java/javase/21/docs/api/java.base/java/util/Iterator.html?is-external=true" xlink:actuate="onRequest" xlink:href="https://docs.oracle.com/en/java/javase/21/docs/api/java.base/java/util/Iterator.html?is-external=true" xlink:show="new" xlink:title="https://docs.oracle.com/en/java/javase/21/docs/api/java.base/java/util/Iterator.html?is-external=true" xlink:type="simple"><g id="elem_Iterator"><rect codeLine="76" fill="#F1F1F1" height="113.1875" id="Iterator" rx="2.5" ry="2.5" style="stroke:#181818;stroke-width:0.5;" width="363.3809" x="1499.5" y="31"/><ellipse cx="1644.9609" cy="47" fill="#B4A7E5" rx="11" ry="11" style="stroke:#181818;stroke-width:1.0;"/><path d="M1640.8828,42.7656 L1640.8828,40.6094 L1648.2734,40.6094 L1648.2734,42.7656 L1645.8047,42.7656 L1645.8047,50.8438 L1648.2734,50.8438 L1648.2734,53 L1640.8828,53 L1640.8828,50.8438 L1643.3516,50.8438 L1643.3516,42.7656 L1640.8828,42.7656 Z " fill="#000000"/><text fill="#000000" font-family="sans-serif" font-size="14" font-style="italic" lengthAdjust="spacing" textLength="52.377" x="1665.4609" y="51.8467">Iterator</text><rect fill="#FFFFFF" height="15.9688" style="stroke:#181818;stroke-width:1.0;stroke-dasharray:2.0,2.0;" width="9.582" x="1856.2988" y="28"/><text fill="#000000" font-family="sans-serif" font-size="12" font-style="italic" lengthAdjust="spacing" textLength="7.582" x="1857.2988" y="40.1387">E</text><line style="stroke:#181818;stroke-width:0.5;" x1="1500.5" x2="1861.8809" y1="63" y2="63"/><line style="stroke:#181818;stroke-width:0.5;" x1="1500.5" x2="1861.8809" y1="71" y2="71"/><ellipse cx="1510.5" cy="84.6484" fill="#84BE84" rx="3" ry="3" style="stroke:#038048;stroke-width:1.0;"/><text fill="#000000" font-family="sans-serif" font-size="14" font-style="italic" lengthAdjust="spacing" textLength="133.6699" x="1519.5" y="87.9951">hasNext(): boolean</text><ellipse cx="1510.5" cy="100.9453" fill="#84BE84" rx="3" ry="3" style="stroke:#038048;stroke-width:1.0;"/><text fill="#000000" font-family="sans-serif" font-size="14" font-style="italic" lengthAdjust="spacing" textLength="60.1973" x="1519.5" y="104.292">next(): E</text><ellipse cx="1510.5" cy="117.2422" fill="#84BE84" rx="3" ry="3" style="stroke:#038048;stroke-width:1.0;"/><text fill="#000000" font-family="sans-serif" font-size="14" lengthAdjust="spacing" textLength="103.1885" x="1519.5" y="120.5889">remove(): void</text><ellipse cx="1510.5" cy="133.5391" fill="#84BE84" rx="3" ry="3" style="stroke:#038048;stroke-width:1.0;"/><text fill="#000000" font-family="sans-serif" font-size="14" lengthAdjust="spacing" textLength="337.3809" x="1519.5" y="136.8857">forEachRemaining(Consumer&lt;? super E&gt;): void</text></g></a><polygon fill="none" points="709,136.3824,703,154.3824,715,154.3824,709,136.3824" style="stroke:#181818;stroke-width:1.0;"/><path d="M709,154.3824 C709,173.0126 709,176.3099 709,194.9119 " fill="none" style="stroke:#181818;stroke-width:1.0;stroke-dasharray:7.0,7.0;"/><polygon fill="none" points="1499.1677,101.3301,1480.7385,96.8175,1481.7168,108.7776,1499.1677,101.3301" style="stroke:#181818;stroke-width:1.0;"/><path d="M1481.2276,102.7975 C1334.3045,114.8156 1158.1307,133.4356 1084,160 C1065.3557,166.6811 1046.638,176.4605 1029.4685,186.9691 " fill="none" style="stroke:#181818;stroke-width:1.0;stroke-dasharray:7.0,7.0;"/><polygon fill="none" points="1683.696,144.0266,1678.1475,162.1709,1690.1438,161.8711,1683.696,144.0266" style="stroke:#181818;stroke-width:1.0;"/><path d="M1684.1457,162.021 C1685.5259,217.2522 1683.1105,278.7492 1662,300 C1603.3117,359.0783 1370.6136,319.4533 1289,336 C1277.7954,338.2717 1266.2946,340.9806 1254.7953,343.9617 " fill="none" style="stroke:#181818;stroke-width:1.0;stroke-dasharray:7.0,7.0;"/><ellipse cx="1179.1896" cy="306.3546" fill="#FFFFFF" rx="8" ry="8" style="stroke:#181818;stroke-width:1.0;"/><line style="stroke:#181818;stroke-width:1.0;" x1="1174.2338" x2="1184.1454" y1="312.6347" y2="300.0744"/><line style="stroke:#181818;stroke-width:1.0;" x1="1172.9094" x2="1185.4698" y1="301.3988" y2="311.3103"/><path d="M1174.2338,312.6347 C1162.9419,326.9443 1160.7998,329.6589 1149.8423,343.5447 " fill="none" style="stroke:#181818;stroke-width:1.0;"/><polygon fill="none" points="1702.105,144.095,1701.4596,163.0576,1712.9663,159.6524,1702.105,144.095" style="stroke:#181818;stroke-width:1.0;"/><path d="M1707.2129,161.355 C1720.7364,207.0526 1725.5314,254.2349 1695,300 C1683.9233,316.6035 1669.2068,330.1986 1652.6161,341.3296 " fill="none" style="stroke:#181818;stroke-width:1.0;stroke-dasharray:7.0,7.0;"/><ellipse cx="1498.9238" cy="307.7666" fill="#FFFFFF" rx="8" ry="8" style="stroke:#181818;stroke-width:1.0;"/><line style="stroke:#181818;stroke-width:1.0;" x1="1496.7261" x2="1501.1216" y1="315.4588" y2="300.0744"/><line style="stroke:#181818;stroke-width:1.0;" x1="1491.2316" x2="1506.616" y1="305.5688" y2="309.9644"/><path d="M1496.7261,315.4588 C1493.381,327.1666 1494.2468,324.1363 1490.9009,335.847 " fill="none" style="stroke:#181818;stroke-width:1.0;"/><text fill="#888888" font-family="sans-serif" font-size="10" lengthAdjust="spacing" textLength="3.1787" x="929.4106" y="468.2822">&#160;</text><text fill="#888888" font-family="sans-serif" font-size="10" lengthAdjust="spacing" textLength="183.0908" x="839.4546" y="479.9229">UMLDoclet 2.2.0, PlantUML 1.2024.6</text><!--SRC=[nLPTRzCm57tVhp12IAb67LQ9bwXqgcYPAeqAqVB2sCDjUfiQ4ZkodGeq-j-natRBPrUQ3VAGAFVZ-9xZwzmGGiYBM48G0GdXbqWqKH5gu71cF4IXUSSO96WXYUUTfTOO_1yG866Q9fn5Z2uPZQK8UdHzyPRSPK7syaDGYepGPn648nOmhSPNvEQcPA5h7OMtjoQJvAukJw85Ie-4WWS5ptaftx4HdMB8qleSndN78-PUT7B1lw8KMRvZ8YOQKuhz2TSOe1pSns_BR6PQCXvy4382RR8CcvAbWOrAepnopPJkPoc3ObMmN3gPmrIq4MnPTBDTZOLwoq3RW-8FA-8FMue_h1M_ZRxJVEuLyYpHr5tlQ2XVOWICfu9N6BoiHweZiWOrnP_QKbW84IBm4j6TSqVho6qeRqAxBVYRxZzSrwJI7fEMxJ7vjsUpN7lzHjVIR0ezeR-UgMkciqhTnjHkVmp0_ziWMtszxDDP7TEcs1EsgDk4zGmVWMrnQ7w73T0GU92hrsYCSWK-PbekGkpF1qQ2jTQnybntANn5XGG_HEgBo4NkMfZqfj3jNQGHBiGiDT65jQOHTY5t3veATSbKrnICaaFuJii4AyhTmS8CA_3rjc7ep4k3QoNa6ForyrvmbKGe-vT49R6PZVD1xIHJSPZ7dJsyvg6tZUebceNDwbcOyTEePnTozw0dgFT8v-H3zqqqBafbcbXiqAcLSIVxvtsVL_KVL_GlY7hVYfwtRn7I_qrf_O-TvvL-T1umh4ux33kh3s7K7xoJe8xzXAVWns6GysxtIPPhnUNGn-veCdPS7ClcqGLzj6UCh8ImZs_yoyVhaJ3dIPCUxT4thyadqqRQMCch3Kh517SwVm00]--></g></svg>