<svg xmlns="http://www.w3.org/2000/svg" xmlns:xlink="http://www.w3.org/1999/xlink" contentStyleType="text/css" height="565px" preserveAspectRatio="none" style="width:778px;height:565px;background:#FFFFFF;" version="1.1" viewBox="0 0 778 565" width="778px" zoomAndPan="magnify"><defs/><g><!--cluster it.unimi.di.prog2.s09--><g id="cluster_it.unimi.di.prog2.s09"><path d="M16.5,4 L183.3262,4 A3.75,3.75 0 0 1 185.8262,6.5 L192.8262,26.2969 L662.5,26.2969 A2.5,2.5 0 0 1 665,28.7969 L665,529.5 A2.5,2.5 0 0 1 662.5,532 L16.5,532 A2.5,2.5 0 0 1 14,529.5 L14,6.5 A2.5,2.5 0 0 1 16.5,4 " fill="none" style="stroke:#000000;stroke-width:1.5;"/><line style="stroke:#000000;stroke-width:1.5;" x1="14" x2="192.8262" y1="26.2969" y2="26.2969"/><text fill="#000000" font-family="sans-serif" font-size="14" font-weight="bold" lengthAdjust="spacing" textLength="165.8262" x="18" y="18.9951">it.unimi.di.prog2.s09</text></g><!--cluster java.lang--><g id="cluster_java.lang"><path d="M675.5,93.5 L748.8721,93.5 A3.75,3.75 0 0 1 751.3721,96 L758.3721,115.7969 L768.5,115.7969 A2.5,2.5 0 0 1 771,118.2969 L771,174 A2.5,2.5 0 0 1 768.5,176.5 L675.5,176.5 A2.5,2.5 0 0 1 673,174 L673,96 A2.5,2.5 0 0 1 675.5,93.5 " fill="none" style="stroke:#000000;stroke-width:1.5;"/><line style="stroke:#000000;stroke-width:1.5;" x1="673" x2="758.3721" y1="115.7969" y2="115.7969"/><text fill="#000000" font-family="sans-serif" font-size="14" font-weight="bold" lengthAdjust="spacing" textLength="72.3721" x="677" y="108.4951">java.lang</text></g><!--class SparsePoly--><a href="SparsePoly.html" target="_top" title="SparsePoly.html" xlink:actuate="onRequest" xlink:href="SparsePoly.html" xlink:show="new" xlink:title="SparsePoly.html" xlink:type="simple"><g id="elem_SparsePoly"><rect codeLine="6" fill="#F1F1F1" height="227.2656" id="SparsePoly" rx="2.5" ry="2.5" style="stroke:#181818;stroke-width:0.5;" width="271.7178" x="385" y="31"/><ellipse cx="478.0098" cy="47" fill="#ADD1B2" rx="11" ry="11" style="stroke:#181818;stroke-width:1.0;"/><path d="M480.9785,52.6406 Q480.4004,52.9375 479.7598,53.0781 Q479.1191,53.2344 478.416,53.2344 Q475.916,53.2344 474.5879,51.5938 Q473.2754,49.9375 473.2754,46.8125 Q473.2754,43.6875 474.5879,42.0313 Q475.916,40.375 478.416,40.375 Q479.1191,40.375 479.7598,40.5313 Q480.416,40.6875 480.9785,40.9844 L480.9785,43.7031 Q480.3535,43.125 479.7598,42.8594 Q479.166,42.5781 478.541,42.5781 Q477.1973,42.5781 476.5098,43.6563 Q475.8223,44.7188 475.8223,46.8125 Q475.8223,48.9063 476.5098,49.9844 Q477.1973,51.0469 478.541,51.0469 Q479.166,51.0469 479.7598,50.7813 Q480.3535,50.5 480.9785,49.9219 L480.9785,52.6406 Z " fill="#000000"/><text fill="#000000" font-family="sans-serif" font-size="14" lengthAdjust="spacing" textLength="77.1982" x="498.5098" y="51.8467">SparsePoly</text><line style="stroke:#181818;stroke-width:0.5;" x1="386" x2="655.7178" y1="63" y2="63"/><line style="stroke:#181818;stroke-width:0.5;" x1="386" x2="655.7178" y1="71" y2="71"/><ellipse cx="396" cy="84.6484" fill="#84BE84" rx="3" ry="3" style="stroke:#038048;stroke-width:1.0;"/><text fill="#000000" font-family="sans-serif" font-size="14" lengthAdjust="spacing" textLength="88.1221" x="405" y="87.9951">SparsePoly()</text><ellipse cx="396" cy="100.9453" fill="#84BE84" rx="3" ry="3" style="stroke:#038048;stroke-width:1.0;"/><text fill="#000000" font-family="sans-serif" font-size="14" lengthAdjust="spacing" textLength="133.5264" x="405" y="104.292">SparsePoly(int, int)</text><rect fill="#F24D5C" height="6" style="stroke:#C82930;stroke-width:1.0;" width="6" x="393" y="114.2422"/><text fill="#000000" font-family="sans-serif" font-size="14" lengthAdjust="spacing" textLength="172.6143" x="405" y="120.5889">SparsePoly(List&lt;Term&gt;)</text><rect fill="#F24D5C" height="6" style="stroke:#C82930;stroke-width:1.0;" width="6" x="393" y="130.5391"/><text fill="#000000" font-family="sans-serif" font-size="14" lengthAdjust="spacing" text-decoration="underline" textLength="245.7178" x="405" y="136.8857">findByDegree(List&lt;Term&gt;, int): int</text><ellipse cx="396" cy="149.8359" fill="#84BE84" rx="3" ry="3" style="stroke:#038048;stroke-width:1.0;"/><text fill="#000000" font-family="sans-serif" font-size="14" lengthAdjust="spacing" textLength="91.3281" x="405" y="153.1826">coeff(int): int</text><ellipse cx="396" cy="166.1328" fill="#84BE84" rx="3" ry="3" style="stroke:#038048;stroke-width:1.0;"/><text fill="#000000" font-family="sans-serif" font-size="14" lengthAdjust="spacing" textLength="87.7119" x="405" y="169.4795">degree(): int</text><rect fill="#F24D5C" height="6" style="stroke:#C82930;stroke-width:1.0;" width="6" x="393" y="179.4297"/><text fill="#000000" font-family="sans-serif" font-size="14" lengthAdjust="spacing" text-decoration="underline" textLength="242.5801" x="405" y="185.7764">addTerm(List&lt;Term&gt;, Term): void</text><ellipse cx="396" cy="198.7266" fill="#84BE84" rx="3" ry="3" style="stroke:#038048;stroke-width:1.0;"/><text fill="#000000" font-family="sans-serif" font-size="14" lengthAdjust="spacing" textLength="200.8398" x="405" y="202.0732">add(SparsePoly): SparsePoly</text><ellipse cx="396" cy="215.0234" fill="#84BE84" rx="3" ry="3" style="stroke:#038048;stroke-width:1.0;"/><text fill="#000000" font-family="sans-serif" font-size="14" lengthAdjust="spacing" textLength="200.8877" x="405" y="218.3701">mul(SparsePoly): SparsePoly</text><ellipse cx="396" cy="231.3203" fill="#84BE84" rx="3" ry="3" style="stroke:#038048;stroke-width:1.0;"/><text fill="#000000" font-family="sans-serif" font-size="14" lengthAdjust="spacing" textLength="199.541" x="405" y="234.667">sub(SparsePoly): SparsePoly</text><ellipse cx="396" cy="247.6172" fill="#84BE84" rx="3" ry="3" style="stroke:#038048;stroke-width:1.0;"/><text fill="#000000" font-family="sans-serif" font-size="14" lengthAdjust="spacing" textLength="139.8564" x="405" y="250.9639">minus(): SparsePoly</text></g></a><!--class SparsePoly.Term--><a href="SparsePoly.Term.html" target="_top" title="SparsePoly.Term.html" xlink:actuate="onRequest" xlink:href="SparsePoly.Term.html" xlink:show="new" xlink:title="SparsePoly.Term.html" xlink:type="simple"><g id="elem_SparsePoly.Term"><rect codeLine="20" fill="#F1F1F1" height="129.4844" id="SparsePoly.Term" rx="2.5" ry="2.5" style="stroke:#181818;stroke-width:0.5;" width="150.207" x="493" y="354"/><ellipse cx="508" cy="370" fill="#ADD1B2" rx="11" ry="11" style="stroke:#181818;stroke-width:1.0;"/><path d="M510.9688,375.6406 Q510.3906,375.9375 509.75,376.0781 Q509.1094,376.2344 508.4063,376.2344 Q505.9063,376.2344 504.5781,374.5938 Q503.2656,372.9375 503.2656,369.8125 Q503.2656,366.6875 504.5781,365.0313 Q505.9063,363.375 508.4063,363.375 Q509.1094,363.375 509.75,363.5313 Q510.4063,363.6875 510.9688,363.9844 L510.9688,366.7031 Q510.3438,366.125 509.75,365.8594 Q509.1563,365.5781 508.5313,365.5781 Q507.1875,365.5781 506.5,366.6563 Q505.8125,367.7188 505.8125,369.8125 Q505.8125,371.9063 506.5,372.9844 Q507.1875,374.0469 508.5313,374.0469 Q509.1563,374.0469 509.75,373.7813 Q510.3438,373.5 510.9688,372.9219 L510.9688,375.6406 Z " fill="#000000"/><text fill="#000000" font-family="sans-serif" font-size="14" lengthAdjust="spacing" textLength="118.207" x="522" y="374.8467">SparsePoly.Term</text><line style="stroke:#181818;stroke-width:0.5;" x1="494" x2="642.207" y1="386" y2="386"/><rect fill="none" height="6" style="stroke:#C82930;stroke-width:1.0;" width="6" x="501" y="396.6484"/><text fill="#000000" font-family="sans-serif" font-size="14" lengthAdjust="spacing" textLength="100.6045" x="513" y="402.9951">coefficient: int</text><rect fill="none" height="6" style="stroke:#C82930;stroke-width:1.0;" width="6" x="501" y="412.9453"/><text fill="#000000" font-family="sans-serif" font-size="14" lengthAdjust="spacing" textLength="76.7881" x="513" y="419.292">degree: int</text><line style="stroke:#181818;stroke-width:0.5;" x1="494" x2="642.207" y1="426.5938" y2="426.5938"/><ellipse cx="504" cy="440.2422" fill="#84BE84" rx="3" ry="3" style="stroke:#038048;stroke-width:1.0;"/><text fill="#000000" font-family="sans-serif" font-size="14" lengthAdjust="spacing" textLength="92.8867" x="513" y="443.5889">Term(int, int)</text><ellipse cx="504" cy="456.5391" fill="#84BE84" rx="3" ry="3" style="stroke:#038048;stroke-width:1.0;"/><text fill="#000000" font-family="sans-serif" font-size="14" lengthAdjust="spacing" textLength="111.5283" x="513" y="459.8857">coefficient(): int</text><ellipse cx="504" cy="472.8359" fill="#84BE84" rx="3" ry="3" style="stroke:#038048;stroke-width:1.0;"/><text fill="#000000" font-family="sans-serif" font-size="14" lengthAdjust="spacing" textLength="87.7119" x="513" y="476.1826">degree(): int</text></g></a><!--class SparsePolyClient--><a href="SparsePolyClient.html" target="_top" title="SparsePolyClient.html" xlink:actuate="onRequest" xlink:href="SparsePolyClient.html" xlink:show="new" xlink:title="SparsePolyClient.html" xlink:type="simple"><g id="elem_SparsePolyClient"><rect codeLine="28" fill="#F1F1F1" height="64.2969" id="SparsePolyClient" rx="2.5" ry="2.5" style="stroke:#181818;stroke-width:0.5;" width="163.4023" x="22.5" y="112.5"/><ellipse cx="43.6532" cy="128.5" fill="#ADD1B2" rx="11" ry="11" style="stroke:#181818;stroke-width:1.0;"/><path d="M46.622,134.1406 Q46.0438,134.4375 45.4032,134.5781 Q44.7626,134.7344 44.0595,134.7344 Q41.5595,134.7344 40.2313,133.0938 Q38.9188,131.4375 38.9188,128.3125 Q38.9188,125.1875 40.2313,123.5313 Q41.5595,121.875 44.0595,121.875 Q44.7626,121.875 45.4032,122.0313 Q46.0595,122.1875 46.622,122.4844 L46.622,125.2031 Q45.997,124.625 45.4032,124.3594 Q44.8095,124.0781 44.1845,124.0781 Q42.8407,124.0781 42.1532,125.1563 Q41.4657,126.2188 41.4657,128.3125 Q41.4657,130.4063 42.1532,131.4844 Q42.8407,132.5469 44.1845,132.5469 Q44.8095,132.5469 45.4032,132.2813 Q45.997,132 46.622,131.4219 L46.622,134.1406 Z " fill="#000000"/><text fill="#000000" font-family="sans-serif" font-size="14" lengthAdjust="spacing" textLength="117.7285" x="59.0206" y="133.3467">SparsePolyClient</text><line style="stroke:#181818;stroke-width:0.5;" x1="23.5" x2="184.9023" y1="144.5" y2="144.5"/><line style="stroke:#181818;stroke-width:0.5;" x1="23.5" x2="184.9023" y1="152.5" y2="152.5"/><ellipse cx="33.5" cy="166.1484" fill="#84BE84" rx="3" ry="3" style="stroke:#038048;stroke-width:1.0;"/><text fill="#000000" font-family="sans-serif" font-size="14" lengthAdjust="spacing" text-decoration="underline" textLength="137.4023" x="42.5" y="169.4951">main(String[]): void</text></g></a><!--class PolyClient--><a href="PolyClient.html" target="_top" title="PolyClient.html" xlink:actuate="onRequest" xlink:href="PolyClient.html" xlink:show="new" xlink:title="PolyClient.html" xlink:type="simple"><g id="elem_PolyClient"><rect codeLine="32" fill="#F1F1F1" height="64.2969" id="PolyClient" rx="2.5" ry="2.5" style="stroke:#181818;stroke-width:0.5;" width="163.4023" x="203.5" y="112.5"/><ellipse cx="246.2603" cy="128.5" fill="#ADD1B2" rx="11" ry="11" style="stroke:#181818;stroke-width:1.0;"/><path d="M249.229,134.1406 Q248.6509,134.4375 248.0103,134.5781 Q247.3696,134.7344 246.6665,134.7344 Q244.1665,134.7344 242.8384,133.0938 Q241.5259,131.4375 241.5259,128.3125 Q241.5259,125.1875 242.8384,123.5313 Q244.1665,121.875 246.6665,121.875 Q247.3696,121.875 248.0103,122.0313 Q248.6665,122.1875 249.229,122.4844 L249.229,125.2031 Q248.604,124.625 248.0103,124.3594 Q247.4165,124.0781 246.7915,124.0781 Q245.4478,124.0781 244.7603,125.1563 Q244.0728,126.2188 244.0728,128.3125 Q244.0728,130.4063 244.7603,131.4844 Q245.4478,132.5469 246.7915,132.5469 Q247.4165,132.5469 248.0103,132.2813 Q248.604,132 249.229,131.4219 L249.229,134.1406 Z " fill="#000000"/><text fill="#000000" font-family="sans-serif" font-size="14" lengthAdjust="spacing" textLength="69.7129" x="266.4292" y="133.3467">PolyClient</text><line style="stroke:#181818;stroke-width:0.5;" x1="204.5" x2="365.9023" y1="144.5" y2="144.5"/><line style="stroke:#181818;stroke-width:0.5;" x1="204.5" x2="365.9023" y1="152.5" y2="152.5"/><ellipse cx="214.5" cy="166.1484" fill="#84BE84" rx="3" ry="3" style="stroke:#038048;stroke-width:1.0;"/><text fill="#000000" font-family="sans-serif" font-size="14" lengthAdjust="spacing" text-decoration="underline" textLength="137.4023" x="223.5" y="169.4951">main(String[]): void</text></g></a><!--class Poly--><a href="Poly.html" target="_top" title="Poly.html" xlink:actuate="onRequest" xlink:href="Poly.html" xlink:show="new" xlink:title="Poly.html" xlink:type="simple"><g id="elem_Poly"><rect codeLine="36" fill="#F1F1F1" height="210.9688" id="Poly" rx="2.5" ry="2.5" style="stroke:#181818;stroke-width:0.5;" width="137.5283" x="35" y="313"/><ellipse cx="84.9229" cy="329" fill="#ADD1B2" rx="11" ry="11" style="stroke:#181818;stroke-width:1.0;"/><path d="M87.8916,334.6406 Q87.3135,334.9375 86.6729,335.0781 Q86.0322,335.2344 85.3291,335.2344 Q82.8291,335.2344 81.501,333.5938 Q80.1885,331.9375 80.1885,328.8125 Q80.1885,325.6875 81.501,324.0313 Q82.8291,322.375 85.3291,322.375 Q86.0322,322.375 86.6729,322.5313 Q87.3291,322.6875 87.8916,322.9844 L87.8916,325.7031 Q87.2666,325.125 86.6729,324.8594 Q86.0791,324.5781 85.4541,324.5781 Q84.1104,324.5781 83.4229,325.6563 Q82.7354,326.7188 82.7354,328.8125 Q82.7354,330.9063 83.4229,331.9844 Q84.1104,333.0469 85.4541,333.0469 Q86.0791,333.0469 86.6729,332.7813 Q87.2666,332.5 87.8916,331.9219 L87.8916,334.6406 Z " fill="#000000"/><text fill="#000000" font-family="sans-serif" font-size="14" lengthAdjust="spacing" textLength="29.1826" x="105.4229" y="333.8467">Poly</text><line style="stroke:#181818;stroke-width:0.5;" x1="36" x2="171.5283" y1="345" y2="345"/><rect fill="none" height="6" style="stroke:#C82930;stroke-width:1.0;" width="6" x="43" y="355.6484"/><text fill="#000000" font-family="sans-serif" font-size="14" lengthAdjust="spacing" textLength="111.5283" x="55" y="361.9951">coefficient: int[]</text><line style="stroke:#181818;stroke-width:0.5;" x1="36" x2="171.5283" y1="369.2969" y2="369.2969"/><ellipse cx="46" cy="382.9453" fill="#84BE84" rx="3" ry="3" style="stroke:#038048;stroke-width:1.0;"/><text fill="#000000" font-family="sans-serif" font-size="14" lengthAdjust="spacing" textLength="40.1064" x="55" y="386.292">Poly()</text><ellipse cx="46" cy="399.2422" fill="#84BE84" rx="3" ry="3" style="stroke:#038048;stroke-width:1.0;"/><text fill="#000000" font-family="sans-serif" font-size="14" lengthAdjust="spacing" textLength="85.5107" x="55" y="402.5889">Poly(int, int)</text><rect fill="#F24D5C" height="6" style="stroke:#C82930;stroke-width:1.0;" width="6" x="43" y="412.5391"/><text fill="#000000" font-family="sans-serif" font-size="14" lengthAdjust="spacing" textLength="58.3584" x="55" y="418.8857">Poly(int)</text><ellipse cx="46" cy="431.8359" fill="#84BE84" rx="3" ry="3" style="stroke:#038048;stroke-width:1.0;"/><text fill="#000000" font-family="sans-serif" font-size="14" lengthAdjust="spacing" textLength="87.7119" x="55" y="435.1826">degree(): int</text><ellipse cx="46" cy="448.1328" fill="#84BE84" rx="3" ry="3" style="stroke:#038048;stroke-width:1.0;"/><text fill="#000000" font-family="sans-serif" font-size="14" lengthAdjust="spacing" textLength="91.3281" x="55" y="451.4795">coeff(int): int</text><ellipse cx="46" cy="464.4297" fill="#84BE84" rx="3" ry="3" style="stroke:#038048;stroke-width:1.0;"/><text fill="#000000" font-family="sans-serif" font-size="14" lengthAdjust="spacing" textLength="104.8086" x="55" y="467.7764">add(Poly): Poly</text><ellipse cx="46" cy="480.7266" fill="#84BE84" rx="3" ry="3" style="stroke:#038048;stroke-width:1.0;"/><text fill="#000000" font-family="sans-serif" font-size="14" lengthAdjust="spacing" textLength="104.8564" x="55" y="484.0732">mul(Poly): Poly</text><ellipse cx="46" cy="497.0234" fill="#84BE84" rx="3" ry="3" style="stroke:#038048;stroke-width:1.0;"/><text fill="#000000" font-family="sans-serif" font-size="14" lengthAdjust="spacing" textLength="103.5098" x="55" y="500.3701">sub(Poly): Poly</text><ellipse cx="46" cy="513.3203" fill="#84BE84" rx="3" ry="3" style="stroke:#038048;stroke-width:1.0;"/><text fill="#000000" font-family="sans-serif" font-size="14" lengthAdjust="spacing" textLength="91.8408" x="55" y="516.667">minus(): Poly</text></g></a><!--class Record--><a href="https://docs.oracle.com/en/java/javase/21/docs/api/java.base/java/lang/Record.html?is-external=true" target="_top" title="https://docs.oracle.com/en/java/javase/21/docs/api/java.base/java/lang/Record.html?is-external=true" xlink:actuate="onRequest" xlink:href="https://docs.oracle.com/en/java/javase/21/docs/api/java.base/java/lang/Record.html?is-external=true" xlink:show="new" xlink:title="https://docs.oracle.com/en/java/javase/21/docs/api/java.base/java/lang/Record.html?is-external=true" xlink:type="simple"><g id="elem_Record"><rect codeLine="52" fill="#F1F1F1" height="48" id="Record" rx="2.5" ry="2.5" style="stroke:#181818;stroke-width:0.5;" width="81.2461" x="681.5" y="120.5"/><ellipse cx="696.5" cy="136.5" fill="#A9DCDF" rx="11" ry="11" style="stroke:#181818;stroke-width:1.0;"/><path d="M696.6094,131.8438 L695.4531,136.9219 L697.7813,136.9219 L696.6094,131.8438 Z M695.125,129.6094 L698.1094,129.6094 L701.4688,142 L699.0156,142 L698.25,138.9375 L694.9688,138.9375 L694.2188,142 L691.7813,142 L695.125,129.6094 Z " fill="#000000"/><text fill="#000000" font-family="sans-serif" font-size="14" font-style="italic" lengthAdjust="spacing" textLength="49.2461" x="710.5" y="141.3467">Record</text><line style="stroke:#181818;stroke-width:0.5;" x1="682.5" x2="761.7461" y1="152.5" y2="152.5"/><line style="stroke:#181818;stroke-width:0.5;" x1="682.5" x2="761.7461" y1="160.5" y2="160.5"/></g></a><polygon fill="#181818" points="539.2688,353.8712,539.8141,344.0374,537.4942,349.1967,532.3349,346.8768,539.2688,353.8712" style="stroke:#181818;stroke-width:1.0;"/><path d="M517.5013,258.1503 C518.3731,270.6432 519.8042,283.1321 522,295 C525.6371,314.6576 530.0797,329.6664 537.1393,348.2618 " fill="none" style="stroke:#181818;stroke-width:1.0;"/><text fill="#000000" font-family="sans-serif" font-size="13" lengthAdjust="spacing" textLength="37.8765" x="524" y="290.0669">terms</text><text fill="#000000" font-family="sans-serif" font-size="13" lengthAdjust="spacing" textLength="6.5" x="532.2688" y="349.9381">*</text><polygon fill="none" points="712.0582,168.7563,699.3444,182.8403,710.3376,187.6518,712.0582,168.7563" style="stroke:#181818;stroke-width:1.0;"/><path d="M704.841,185.2461 C694.7543,208.292 685.5296,227.9133 669,258 C651.2452,290.3167 629.5901,325.0326 610.8916,353.798 " fill="none" style="stroke:#181818;stroke-width:1.0;"/><ellipse cx="561.1642" cy="265.9891" fill="#FFFFFF" rx="8" ry="8" style="stroke:#181818;stroke-width:1.0;"/><line style="stroke:#181818;stroke-width:1.0;" x1="562.9586" x2="559.3697" y1="273.7852" y2="258.1929"/><line style="stroke:#181818;stroke-width:1.0;" x1="553.368" x2="568.9603" y1="267.7835" y2="264.1947"/><path d="M562.9586,273.7852 C564.3362,279.7705 561.9737,270.139 563,276 C567.4093,301.1814 569.0613,329.256 569.4685,353.7171 " fill="none" style="stroke:#181818;stroke-width:1.0;"/><text fill="#888888" font-family="sans-serif" font-size="10" lengthAdjust="spacing" textLength="3.1787" x="379.4106" y="543.2822">&#160;</text><text fill="#888888" font-family="sans-serif" font-size="10" lengthAdjust="spacing" textLength="183.0908" x="289.4546" y="554.9229">UMLDoclet 2.2.0, PlantUML 1.2024.6</text><!--SRC=[jLJ1Rjim3BttAxW20vocbhlSPdGTiFNO0SMwdZ8V59bnjTcI8Sd1WYx_FabEQwjLCkym7sI8V7eK7qa10Bnf5QqQ2ZNToiw0Rj1GGK-i1pJQFRPKKICLvFc9jxQK_QGL0ZUa4xpXfEIaLR9Q47tn7XvxaFjOJRM6EtjUuwsijx1S3XloO9gwA2mUHjzy02IpWnukp3dO9KIa8yGDr-Ro6whcAiGyQaCDPpj8rroKdxRNM2d44RpdpTqQXcSIr-laWBFiQIAk8I0jInSXYEL-zj16yZ8ajE1aICT2Xaq8RBfw6b1tgucCN7GwYGDsXujBN2vXXPqbNkRKgyaPHs5UQvRsSaPqzWB6gpyVKIRJQtGaey-rumfIwatnd9uhFMye5ycTKLnKo-9bULy534Bzpo1x-eaLMHQXVB6HF3QCJxxPr4avFc5k8FQD6n-2WqxN-8TFFZLxhCrtuNltWsuegQceHjBHbJQAChEN-IiogKehz8CnhSwph9HC4saHDH8ccmn5vcZyeZ5RlFE8ZBRScyZAMJt21SfwFb-nZrod-CkW4hJ-O5I7HJ6-PFGnplFHuvkcLt1wTlftf9_R76oeHdlkvyJpV9_WvUyqdKWqyNRpVoDajarHmLfAz_ikxh_SN4ihie45MP2BSxYrzpNM2cytg3IN8fdz0G00]--></g></svg>