<svg xmlns="http://www.w3.org/2000/svg" xmlns:xlink="http://www.w3.org/1999/xlink" contentStyleType="text/css" height="299px" preserveAspectRatio="none" style="width:565px;height:299px;background:#FFFFFF;" version="1.1" viewBox="0 0 565 299" width="565px" zoomAndPan="magnify"><defs/><g><!--cluster it.unimi.di.prog2.s12--><g id="cluster_it.unimi.di.prog2.s12"><path d="M16.5,4 L183.3262,4 A3.75,3.75 0 0 1 185.8262,6.5 L192.8262,26.2969 L555.5,26.2969 A2.5,2.5 0 0 1 558,28.7969 L558,263.5 A2.5,2.5 0 0 1 555.5,266 L16.5,266 A2.5,2.5 0 0 1 14,263.5 L14,6.5 A2.5,2.5 0 0 1 16.5,4 " fill="none" style="stroke:#000000;stroke-width:1.5;"/><line style="stroke:#000000;stroke-width:1.5;" x1="14" x2="192.8262" y1="26.2969" y2="26.2969"/><text fill="#000000" font-family="sans-serif" font-size="14" font-weight="bold" lengthAdjust="spacing" textLength="165.8262" x="18" y="18.9951">it.unimi.di.prog2.s12</text></g><!--class StringToIntMap--><a href="StringToIntMap.html" target="_top" title="StringToIntMap.html" xlink:actuate="onRequest" xlink:href="StringToIntMap.html" xlink:show="new" xlink:title="StringToIntMap.html" xlink:type="simple"><g id="elem_StringToIntMap"><rect codeLine="6" fill="#F1F1F1" height="227.2656" id="StringToIntMap" rx="2.5" ry="2.5" style="stroke:#181818;stroke-width:0.5;" width="330.3359" x="220" y="31"/><ellipse cx="327.4507" cy="47" fill="#ADD1B2" rx="11" ry="11" style="stroke:#181818;stroke-width:1.0;"/><path d="M330.4194,52.6406 Q329.8413,52.9375 329.2007,53.0781 Q328.5601,53.2344 327.8569,53.2344 Q325.3569,53.2344 324.0288,51.5938 Q322.7163,49.9375 322.7163,46.8125 Q322.7163,43.6875 324.0288,42.0313 Q325.3569,40.375 327.8569,40.375 Q328.5601,40.375 329.2007,40.5313 Q329.8569,40.6875 330.4194,40.9844 L330.4194,43.7031 Q329.7944,43.125 329.2007,42.8594 Q328.6069,42.5781 327.9819,42.5781 Q326.6382,42.5781 325.9507,43.6563 Q325.2632,44.7188 325.2632,46.8125 Q325.2632,48.9063 325.9507,49.9844 Q326.6382,51.0469 327.9819,51.0469 Q328.6069,51.0469 329.2007,50.7813 Q329.7944,50.5 330.4194,49.9219 L330.4194,52.6406 Z " fill="#000000"/><text fill="#000000" font-family="sans-serif" font-size="14" lengthAdjust="spacing" textLength="106.9346" x="347.9507" y="51.8467">StringToIntMap</text><line style="stroke:#181818;stroke-width:0.5;" x1="221" x2="549.3359" y1="63" y2="63"/><rect fill="none" height="6" style="stroke:#C82930;stroke-width:1.0;" width="6" x="228" y="73.6484"/><text fill="#000000" font-family="sans-serif" font-size="14" lengthAdjust="spacing" textLength="131.1816" x="240" y="79.9951">keys: List&lt;String&gt;</text><rect fill="none" height="6" style="stroke:#C82930;stroke-width:1.0;" width="6" x="228" y="89.9453"/><text fill="#000000" font-family="sans-serif" font-size="14" lengthAdjust="spacing" textLength="152.9951" x="240" y="96.292">values: List&lt;Integer&gt;</text><line style="stroke:#181818;stroke-width:0.5;" x1="221" x2="549.3359" y1="103.5938" y2="103.5938"/><ellipse cx="231" cy="117.2422" fill="#84BE84" rx="3" ry="3" style="stroke:#038048;stroke-width:1.0;"/><text fill="#000000" font-family="sans-serif" font-size="14" lengthAdjust="spacing" textLength="65.4883" x="240" y="120.5889">size(): int</text><ellipse cx="231" cy="133.5391" fill="#84BE84" rx="3" ry="3" style="stroke:#038048;stroke-width:1.0;"/><text fill="#000000" font-family="sans-serif" font-size="14" lengthAdjust="spacing" textLength="132.3916" x="240" y="136.8857">isEmpty(): boolean</text><rect fill="#F24D5C" height="6" style="stroke:#C82930;stroke-width:1.0;" width="6" x="228" y="146.8359"/><text fill="#000000" font-family="sans-serif" font-size="14" lengthAdjust="spacing" text-decoration="underline" textLength="304.3359" x="240" y="153.1826">dichotomicSearch(List&lt;String&gt;, String): int</text><ellipse cx="231" cy="166.1328" fill="#84BE84" rx="3" ry="3" style="stroke:#038048;stroke-width:1.0;"/><text fill="#000000" font-family="sans-serif" font-size="14" lengthAdjust="spacing" textLength="203.1846" x="240" y="169.4795">containsKey(String): boolean</text><ellipse cx="231" cy="182.4297" fill="#84BE84" rx="3" ry="3" style="stroke:#038048;stroke-width:1.0;"/><text fill="#000000" font-family="sans-serif" font-size="14" lengthAdjust="spacing" textLength="193.1084" x="240" y="185.7764">containsValue(int): boolean</text><ellipse cx="231" cy="198.7266" fill="#84BE84" rx="3" ry="3" style="stroke:#038048;stroke-width:1.0;"/><text fill="#000000" font-family="sans-serif" font-size="14" lengthAdjust="spacing" textLength="103.1133" x="240" y="202.0732">get(String): int</text><ellipse cx="231" cy="215.0234" fill="#84BE84" rx="3" ry="3" style="stroke:#038048;stroke-width:1.0;"/><text fill="#000000" font-family="sans-serif" font-size="14" lengthAdjust="spacing" textLength="141.9004" x="240" y="218.3701">put(String, int): void</text><ellipse cx="231" cy="231.3203" fill="#84BE84" rx="3" ry="3" style="stroke:#038048;stroke-width:1.0;"/><text fill="#000000" font-family="sans-serif" font-size="14" lengthAdjust="spacing" textLength="171.3154" x="240" y="234.667">remove(String): boolean</text><ellipse cx="231" cy="247.6172" fill="#84BE84" rx="3" ry="3" style="stroke:#038048;stroke-width:1.0;"/><text fill="#000000" font-family="sans-serif" font-size="14" lengthAdjust="spacing" textLength="84.2529" x="240" y="250.9639">clear(): void</text></g></a><!--class StringToIntMapClient--><a href="StringToIntMapClient.html" target="_top" title="StringToIntMapClient.html" xlink:actuate="onRequest" xlink:href="StringToIntMapClient.html" xlink:show="new" xlink:title="StringToIntMapClient.html" xlink:type="simple"><g id="elem_StringToIntMapClient"><rect codeLine="20" fill="#F1F1F1" height="64.2969" id="StringToIntMapClient" rx="2.5" ry="2.5" style="stroke:#181818;stroke-width:0.5;" width="179.4648" x="22.5" y="112.5"/><ellipse cx="37.5" cy="128.5" fill="#ADD1B2" rx="11" ry="11" style="stroke:#181818;stroke-width:1.0;"/><path d="M40.4688,134.1406 Q39.8906,134.4375 39.25,134.5781 Q38.6094,134.7344 37.9063,134.7344 Q35.4063,134.7344 34.0781,133.0938 Q32.7656,131.4375 32.7656,128.3125 Q32.7656,125.1875 34.0781,123.5313 Q35.4063,121.875 37.9063,121.875 Q38.6094,121.875 39.25,122.0313 Q39.9063,122.1875 40.4688,122.4844 L40.4688,125.2031 Q39.8438,124.625 39.25,124.3594 Q38.6563,124.0781 38.0313,124.0781 Q36.6875,124.0781 36,125.1563 Q35.3125,126.2188 35.3125,128.3125 Q35.3125,130.4063 36,131.4844 Q36.6875,132.5469 38.0313,132.5469 Q38.6563,132.5469 39.25,132.2813 Q39.8438,132 40.4688,131.4219 L40.4688,134.1406 Z " fill="#000000"/><text fill="#000000" font-family="sans-serif" font-size="14" lengthAdjust="spacing" textLength="147.4648" x="51.5" y="133.3467">StringToIntMapClient</text><line style="stroke:#181818;stroke-width:0.5;" x1="23.5" x2="200.9648" y1="144.5" y2="144.5"/><line style="stroke:#181818;stroke-width:0.5;" x1="23.5" x2="200.9648" y1="152.5" y2="152.5"/><ellipse cx="33.5" cy="166.1484" fill="#84BE84" rx="3" ry="3" style="stroke:#038048;stroke-width:1.0;"/><text fill="#000000" font-family="sans-serif" font-size="14" lengthAdjust="spacing" text-decoration="underline" textLength="137.4023" x="42.5" y="169.4951">main(String[]): void</text></g></a><text fill="#888888" font-family="sans-serif" font-size="10" lengthAdjust="spacing" textLength="3.1787" x="272.9106" y="277.2822">&#160;</text><text fill="#888888" font-family="sans-serif" font-size="10" lengthAdjust="spacing" textLength="183.0908" x="182.9546" y="288.9229">UMLDoclet 2.2.0, PlantUML 1.2024.6</text><!--SRC=[XL71JiCm3BtlAym1gTEs2dgi41VWWDWaf06NiOF9J6UjIQh4hLIc_JlfkaqhRE13ehpt_6p7000NXSDC8-HOsrB0Qn8qs0iCU0flAj2XM0TfsjkY1QeLPWGiSMbOSxpWk70sIs9_dS2w5JMXSlGUfkBOP2_sqSW42vZDka2y59tFvo4FZcAqejgdC6OlDwt-jijNc9UqLmGdoiXr9GFFNnJrKs0ZNOBzWowaRhWFQtD2q-7NNb1ORM2qOBMqOZMhAQ5Jo-Yud-5kibCLb3M2RFmJrT51TQhMGVdMp1C5etF2Z2GwNx0ez-mGMfFAygAhSQHjHV_r4o0N_SpV_BtKkvp9oA_Ljl3f1Hy-UQ33-BkcPlCpXJVRKmKtSl1fRNEzczV9-Dw6XWMIE8clXl2Sev60mcL5phCrKVyR]--></g></svg>