<svg xmlns="http://www.w3.org/2000/svg" xmlns:xlink="http://www.w3.org/1999/xlink" contentStyleType="text/css" height="302px" preserveAspectRatio="none" style="width:555px;height:302px;background:#FFFFFF;" version="1.1" viewBox="0 0 555 302" width="555px" zoomAndPan="magnify"><defs/><g><!--cluster it.unimi.di.prog2.e10--><g id="cluster_it.unimi.di.prog2.e10"><path d="M16.5,4 L184.4883,4 A3.75,3.75 0 0 1 186.9883,6.5 L193.9883,26.2969 L545.5,26.2969 A2.5,2.5 0 0 1 548,28.7969 L548,266.5 A2.5,2.5 0 0 1 545.5,269 L16.5,269 A2.5,2.5 0 0 1 14,266.5 L14,6.5 A2.5,2.5 0 0 1 16.5,4 " fill="none" style="stroke:#000000;stroke-width:1.5;"/><line style="stroke:#000000;stroke-width:1.5;" x1="14" x2="193.9883" y1="26.2969" y2="26.2969"/><text fill="#000000" font-family="sans-serif" font-size="14" font-weight="bold" lengthAdjust="spacing" textLength="166.9883" x="18" y="18.9951">it.unimi.di.prog2.e10</text></g><!--class BoundedIntQueueClient--><a href="BoundedIntQueueClient.html" target="_top" title="BoundedIntQueueClient.html" xlink:actuate="onRequest" xlink:href="BoundedIntQueueClient.html" xlink:show="new" xlink:title="BoundedIntQueueClient.html" xlink:type="simple"><g id="elem_BoundedIntQueueClient"><rect codeLine="6" fill="#F1F1F1" height="48" id="BoundedIntQueueClient" rx="2.5" ry="2.5" style="stroke:#181818;stroke-width:0.5;" width="199.3164" x="22.5" y="55.5"/><ellipse cx="37.5" cy="71.5" fill="#ADD1B2" rx="11" ry="11" style="stroke:#181818;stroke-width:1.0;"/><path d="M40.4688,77.1406 Q39.8906,77.4375 39.25,77.5781 Q38.6094,77.7344 37.9063,77.7344 Q35.4063,77.7344 34.0781,76.0938 Q32.7656,74.4375 32.7656,71.3125 Q32.7656,68.1875 34.0781,66.5313 Q35.4063,64.875 37.9063,64.875 Q38.6094,64.875 39.25,65.0313 Q39.9063,65.1875 40.4688,65.4844 L40.4688,68.2031 Q39.8438,67.625 39.25,67.3594 Q38.6563,67.0781 38.0313,67.0781 Q36.6875,67.0781 36,68.1563 Q35.3125,69.2188 35.3125,71.3125 Q35.3125,73.4063 36,74.4844 Q36.6875,75.5469 38.0313,75.5469 Q38.6563,75.5469 39.25,75.2813 Q39.8438,75 40.4688,74.4219 L40.4688,77.1406 Z " fill="#000000"/><text fill="#000000" font-family="sans-serif" font-size="14" lengthAdjust="spacing" textLength="167.3164" x="51.5" y="76.3467">BoundedIntQueueClient</text><line style="stroke:#181818;stroke-width:0.5;" x1="23.5" x2="220.8164" y1="87.5" y2="87.5"/><line style="stroke:#181818;stroke-width:0.5;" x1="23.5" x2="220.8164" y1="95.5" y2="95.5"/></g></a><!--class RationalNumber--><a href="RationalNumber.html" target="_top" title="RationalNumber.html" xlink:actuate="onRequest" xlink:href="RationalNumber.html" xlink:show="new" xlink:title="RationalNumber.html" xlink:type="simple"><g id="elem_RationalNumber"><rect codeLine="8" fill="#F1F1F1" height="96.8906" id="RationalNumber" rx="2.5" ry="2.5" style="stroke:#181818;stroke-width:0.5;" width="300.1553" x="240" y="31"/><ellipse cx="328.9116" cy="47" fill="#ADD1B2" rx="11" ry="11" style="stroke:#181818;stroke-width:1.0;"/><path d="M331.8804,52.6406 Q331.3022,52.9375 330.6616,53.0781 Q330.021,53.2344 329.3179,53.2344 Q326.8179,53.2344 325.4897,51.5938 Q324.1772,49.9375 324.1772,46.8125 Q324.1772,43.6875 325.4897,42.0313 Q326.8179,40.375 329.3179,40.375 Q330.021,40.375 330.6616,40.5313 Q331.3179,40.6875 331.8804,40.9844 L331.8804,43.7031 Q331.2554,43.125 330.6616,42.8594 Q330.0679,42.5781 329.4429,42.5781 Q328.0991,42.5781 327.4116,43.6563 Q326.7241,44.7188 326.7241,46.8125 Q326.7241,48.9063 327.4116,49.9844 Q328.0991,51.0469 329.4429,51.0469 Q330.0679,51.0469 330.6616,50.7813 Q331.2554,50.5 331.8804,49.9219 L331.8804,52.6406 Z " fill="#000000"/><text fill="#000000" font-family="sans-serif" font-size="14" lengthAdjust="spacing" textLength="113.832" x="349.4116" y="51.8467">RationalNumber</text><line style="stroke:#181818;stroke-width:0.5;" x1="241" x2="539.1553" y1="63" y2="63"/><line style="stroke:#181818;stroke-width:0.5;" x1="241" x2="539.1553" y1="71" y2="71"/><ellipse cx="251" cy="84.6484" fill="#84BE84" rx="3" ry="3" style="stroke:#038048;stroke-width:1.0;"/><text fill="#000000" font-family="sans-serif" font-size="14" lengthAdjust="spacing" textLength="170.1602" x="260" y="87.9951">RationalNumber(int, int)</text><ellipse cx="251" cy="100.9453" fill="#84BE84" rx="3" ry="3" style="stroke:#038048;stroke-width:1.0;"/><text fill="#000000" font-family="sans-serif" font-size="14" lengthAdjust="spacing" textLength="274.1074" x="260" y="104.292">add(RationalNumber): RationalNumber</text><ellipse cx="251" cy="117.2422" fill="#84BE84" rx="3" ry="3" style="stroke:#038048;stroke-width:1.0;"/><text fill="#000000" font-family="sans-serif" font-size="14" lengthAdjust="spacing" textLength="274.1553" x="260" y="120.5889">mul(RationalNumber): RationalNumber</text></g></a><!--class BoundedIntQueue--><a href="BoundedIntQueue.html" target="_top" title="BoundedIntQueue.html" xlink:actuate="onRequest" xlink:href="BoundedIntQueue.html" xlink:show="new" xlink:title="BoundedIntQueue.html" xlink:type="simple"><g id="elem_BoundedIntQueue"><rect codeLine="14" fill="#F1F1F1" height="96.8906" id="BoundedIntQueue" rx="2.5" ry="2.5" style="stroke:#181818;stroke-width:0.5;" width="181.9619" x="31" y="164"/><ellipse cx="56.4291" cy="180" fill="#ADD1B2" rx="11" ry="11" style="stroke:#181818;stroke-width:1.0;"/><path d="M59.3979,185.6406 Q58.8197,185.9375 58.1791,186.0781 Q57.5385,186.2344 56.8354,186.2344 Q54.3354,186.2344 53.0072,184.5938 Q51.6947,182.9375 51.6947,179.8125 Q51.6947,176.6875 53.0072,175.0313 Q54.3354,173.375 56.8354,173.375 Q57.5385,173.375 58.1791,173.5313 Q58.8354,173.6875 59.3979,173.9844 L59.3979,176.7031 Q58.7729,176.125 58.1791,175.8594 Q57.5854,175.5781 56.9604,175.5781 Q55.6166,175.5781 54.9291,176.6563 Q54.2416,177.7188 54.2416,179.8125 Q54.2416,181.9063 54.9291,182.9844 Q55.6166,184.0469 56.9604,184.0469 Q57.5854,184.0469 58.1791,183.7813 Q58.7729,183.5 59.3979,182.9219 L59.3979,185.6406 Z " fill="#000000"/><text fill="#000000" font-family="sans-serif" font-size="14" lengthAdjust="spacing" textLength="126.7861" x="72.7467" y="184.8467">BoundedIntQueue</text><line style="stroke:#181818;stroke-width:0.5;" x1="32" x2="211.9619" y1="196" y2="196"/><line style="stroke:#181818;stroke-width:0.5;" x1="32" x2="211.9619" y1="204" y2="204"/><ellipse cx="42" cy="217.6484" fill="#84BE84" rx="3" ry="3" style="stroke:#038048;stroke-width:1.0;"/><text fill="#000000" font-family="sans-serif" font-size="14" lengthAdjust="spacing" textLength="155.9619" x="51" y="220.9951">BoundedIntQueue(int)</text><ellipse cx="42" cy="233.9453" fill="#84BE84" rx="3" ry="3" style="stroke:#038048;stroke-width:1.0;"/><text fill="#000000" font-family="sans-serif" font-size="14" lengthAdjust="spacing" textLength="129.3154" x="51" y="237.292">enqueue(int): void</text><ellipse cx="42" cy="250.2422" fill="#84BE84" rx="3" ry="3" style="stroke:#038048;stroke-width:1.0;"/><text fill="#000000" font-family="sans-serif" font-size="14" lengthAdjust="spacing" textLength="99.7021" x="51" y="253.5889">dequeue(): int</text></g></a><!--class RationalNumberClient--><a href="RationalNumberClient.html" target="_top" title="RationalNumberClient.html" xlink:actuate="onRequest" xlink:href="RationalNumberClient.html" xlink:show="new" xlink:title="RationalNumberClient.html" xlink:type="simple"><g id="elem_RationalNumberClient"><rect codeLine="20" fill="#F1F1F1" height="48" id="RationalNumberClient" rx="2.5" ry="2.5" style="stroke:#181818;stroke-width:0.5;" width="186.3623" x="231" y="188.5"/><ellipse cx="246" cy="204.5" fill="#ADD1B2" rx="11" ry="11" style="stroke:#181818;stroke-width:1.0;"/><path d="M248.9688,210.1406 Q248.3906,210.4375 247.75,210.5781 Q247.1094,210.7344 246.4063,210.7344 Q243.9063,210.7344 242.5781,209.0938 Q241.2656,207.4375 241.2656,204.3125 Q241.2656,201.1875 242.5781,199.5313 Q243.9063,197.875 246.4063,197.875 Q247.1094,197.875 247.75,198.0313 Q248.4063,198.1875 248.9688,198.4844 L248.9688,201.2031 Q248.3438,200.625 247.75,200.3594 Q247.1563,200.0781 246.5313,200.0781 Q245.1875,200.0781 244.5,201.1563 Q243.8125,202.2188 243.8125,204.3125 Q243.8125,206.4063 244.5,207.4844 Q245.1875,208.5469 246.5313,208.5469 Q247.1563,208.5469 247.75,208.2813 Q248.3438,208 248.9688,207.4219 L248.9688,210.1406 Z " fill="#000000"/><text fill="#000000" font-family="sans-serif" font-size="14" lengthAdjust="spacing" textLength="154.3623" x="260" y="209.3467">RationalNumberClient</text><line style="stroke:#181818;stroke-width:0.5;" x1="232" x2="416.3623" y1="220.5" y2="220.5"/><line style="stroke:#181818;stroke-width:0.5;" x1="232" x2="416.3623" y1="228.5" y2="228.5"/></g></a><text fill="#888888" font-family="sans-serif" font-size="10" lengthAdjust="spacing" textLength="3.1787" x="267.9106" y="280.2822">&#160;</text><text fill="#888888" font-family="sans-serif" font-size="10" lengthAdjust="spacing" textLength="183.0908" x="177.9546" y="291.9229">UMLDoclet 2.2.0, PlantUML 1.2024.6</text><!--SRC=[ZL8zJmCn3DtxAyo0T2UggDnu8x0W0G8afjB1NCmHaJX7FYeXrF-EswAAN5k11qTvxzcExG00d0m1UuTWyTFd1D5HGiQ9C119xZHWmEG3jEraWmxOlMDFO9BAR9nHsgWX-BvHT3w3hwreRPt56E72PzQahpazPCfqQGrnWldy8AxUahEBnJZ78oRZ6UrTTYyK9BW4VgAaDlooir9K6KvJ45UNAjIwAfLrEofO1hXi_nsm-cCQ-tCuqij8LUttGVonOrfOUgDBNjEM5r8anrzOTh9Rro6usDPgupk1PKEltg-FPtwwlRdodPMFrAX6pQPmRv6Je72wf10bPLL_0m00]--></g></svg>