<svg xmlns="http://www.w3.org/2000/svg" xmlns:xlink="http://www.w3.org/1999/xlink" contentStyleType="text/css" height="432px" preserveAspectRatio="none" style="width:702px;height:432px;background:#FFFFFF;" version="1.1" viewBox="0 0 702 432" width="702px" zoomAndPan="magnify"><defs/><g><!--cluster it.unimi.di.prog2.h08--><g id="cluster_it.unimi.di.prog2.h08"><path d="M16.5,4 L184.96,4 A3.75,3.75 0 0 1 187.46,6.5 L194.46,26.2969 L692.5,26.2969 A2.5,2.5 0 0 1 695,28.7969 L695,396.5 A2.5,2.5 0 0 1 692.5,399 L16.5,399 A2.5,2.5 0 0 1 14,396.5 L14,6.5 A2.5,2.5 0 0 1 16.5,4 " fill="none" style="stroke:#000000;stroke-width:1.5;"/><line style="stroke:#000000;stroke-width:1.5;" x1="14" x2="194.46" y1="26.2969" y2="26.2969"/><text fill="#000000" font-family="sans-serif" font-size="14" font-weight="bold" lengthAdjust="spacing" textLength="167.46" x="18" y="18.9951">it.unimi.di.prog2.h08</text></g><!--class Polys--><a href="Polys.html" target="_top" title="Polys.html" xlink:actuate="onRequest" xlink:href="Polys.html" xlink:show="new" xlink:title="Polys.html" xlink:type="simple"><g id="elem_Polys"><rect codeLine="6" fill="#F1F1F1" height="64.2969" id="Polys" rx="2.5" ry="2.5" style="stroke:#181818;stroke-width:0.5;" width="127.0898" x="22.5" y="96.5"/><ellipse cx="63.876" cy="112.5" fill="#ADD1B2" rx="11" ry="11" style="stroke:#181818;stroke-width:1.0;"/><path d="M66.8447,118.1406 Q66.2666,118.4375 65.626,118.5781 Q64.9854,118.7344 64.2822,118.7344 Q61.7822,118.7344 60.4541,117.0938 Q59.1416,115.4375 59.1416,112.3125 Q59.1416,109.1875 60.4541,107.5313 Q61.7822,105.875 64.2822,105.875 Q64.9854,105.875 65.626,106.0313 Q66.2822,106.1875 66.8447,106.4844 L66.8447,109.2031 Q66.2197,108.625 65.626,108.3594 Q65.0322,108.0781 64.4072,108.0781 Q63.0635,108.0781 62.376,109.1563 Q61.6885,110.2188 61.6885,112.3125 Q61.6885,114.4063 62.376,115.4844 Q63.0635,116.5469 64.4072,116.5469 Q65.0322,116.5469 65.626,116.2813 Q66.2197,116 66.8447,115.4219 L66.8447,118.1406 Z " fill="#000000"/><text fill="#000000" font-family="sans-serif" font-size="14" lengthAdjust="spacing" textLength="36.4766" x="83.7373" y="117.3467">Polys</text><line style="stroke:#181818;stroke-width:0.5;" x1="23.5" x2="148.5898" y1="128.5" y2="128.5"/><line style="stroke:#181818;stroke-width:0.5;" x1="23.5" x2="148.5898" y1="136.5" y2="136.5"/><ellipse cx="33.5" cy="150.1484" fill="#84BE84" rx="3" ry="3" style="stroke:#038048;stroke-width:1.0;"/><text fill="#000000" font-family="sans-serif" font-size="14" lengthAdjust="spacing" text-decoration="underline" textLength="101.0898" x="42.5" y="153.4951">diff(Poly): Poly</text></g></a><!--class IntSetsClient--><a href="IntSetsClient.html" target="_top" title="IntSetsClient.html" xlink:actuate="onRequest" xlink:href="IntSetsClient.html" xlink:show="new" xlink:title="IntSetsClient.html" xlink:type="simple"><g id="elem_IntSetsClient"><rect codeLine="10" fill="#F1F1F1" height="64.2969" id="IntSetsClient" rx="2.5" ry="2.5" style="stroke:#181818;stroke-width:0.5;" width="163.4023" x="167.5" y="96.5"/><ellipse cx="201.4439" cy="112.5" fill="#ADD1B2" rx="11" ry="11" style="stroke:#181818;stroke-width:1.0;"/><path d="M204.4127,118.1406 Q203.8346,118.4375 203.1939,118.5781 Q202.5533,118.7344 201.8502,118.7344 Q199.3502,118.7344 198.0221,117.0938 Q196.7096,115.4375 196.7096,112.3125 Q196.7096,109.1875 198.0221,107.5313 Q199.3502,105.875 201.8502,105.875 Q202.5533,105.875 203.1939,106.0313 Q203.8502,106.1875 204.4127,106.4844 L204.4127,109.2031 Q203.7877,108.625 203.1939,108.3594 Q202.6002,108.0781 201.9752,108.0781 Q200.6314,108.0781 199.9439,109.1563 Q199.2564,110.2188 199.2564,112.3125 Q199.2564,114.4063 199.9439,115.4844 Q200.6314,116.5469 201.9752,116.5469 Q202.6002,116.5469 203.1939,116.2813 Q203.7877,116 204.4127,115.4219 L204.4127,118.1406 Z " fill="#000000"/><text fill="#000000" font-family="sans-serif" font-size="14" lengthAdjust="spacing" textLength="89.3047" x="219.6537" y="117.3467">IntSetsClient</text><line style="stroke:#181818;stroke-width:0.5;" x1="168.5" x2="329.9023" y1="128.5" y2="128.5"/><line style="stroke:#181818;stroke-width:0.5;" x1="168.5" x2="329.9023" y1="136.5" y2="136.5"/><ellipse cx="178.5" cy="150.1484" fill="#84BE84" rx="3" ry="3" style="stroke:#038048;stroke-width:1.0;"/><text fill="#000000" font-family="sans-serif" font-size="14" lengthAdjust="spacing" text-decoration="underline" textLength="137.4023" x="187.5" y="153.4951">main(String[]): void</text></g></a><!--class Poly--><a href="Poly.html" target="_top" title="Poly.html" xlink:actuate="onRequest" xlink:href="Poly.html" xlink:show="new" xlink:title="Poly.html" xlink:type="simple"><g id="elem_Poly"><rect codeLine="14" fill="#F1F1F1" height="194.6719" id="Poly" rx="2.5" ry="2.5" style="stroke:#181818;stroke-width:0.5;" width="337.8213" x="349" y="31"/><ellipse cx="499.0693" cy="47" fill="#ADD1B2" rx="11" ry="11" style="stroke:#181818;stroke-width:1.0;"/><path d="M502.0381,52.6406 Q501.46,52.9375 500.8193,53.0781 Q500.1787,53.2344 499.4756,53.2344 Q496.9756,53.2344 495.6475,51.5938 Q494.335,49.9375 494.335,46.8125 Q494.335,43.6875 495.6475,42.0313 Q496.9756,40.375 499.4756,40.375 Q500.1787,40.375 500.8193,40.5313 Q501.4756,40.6875 502.0381,40.9844 L502.0381,43.7031 Q501.4131,43.125 500.8193,42.8594 Q500.2256,42.5781 499.6006,42.5781 Q498.2568,42.5781 497.5693,43.6563 Q496.8818,44.7188 496.8818,46.8125 Q496.8818,48.9063 497.5693,49.9844 Q498.2568,51.0469 499.6006,51.0469 Q500.2256,51.0469 500.8193,50.7813 Q501.4131,50.5 502.0381,49.9219 L502.0381,52.6406 Z " fill="#000000"/><text fill="#000000" font-family="sans-serif" font-size="14" lengthAdjust="spacing" textLength="29.1826" x="519.5693" y="51.8467">Poly</text><line style="stroke:#181818;stroke-width:0.5;" x1="350" x2="685.8213" y1="63" y2="63"/><line style="stroke:#181818;stroke-width:0.5;" x1="350" x2="685.8213" y1="71" y2="71"/><ellipse cx="360" cy="84.6484" fill="#84BE84" rx="3" ry="3" style="stroke:#038048;stroke-width:1.0;"/><text fill="#000000" font-family="sans-serif" font-size="14" lengthAdjust="spacing" textLength="40.1064" x="369" y="87.9951">Poly()</text><ellipse cx="360" cy="100.9453" fill="#84BE84" rx="3" ry="3" style="stroke:#038048;stroke-width:1.0;"/><text fill="#000000" font-family="sans-serif" font-size="14" lengthAdjust="spacing" textLength="85.5107" x="369" y="104.292">Poly(int, int)</text><ellipse cx="360" cy="117.2422" fill="#84BE84" rx="3" ry="3" style="stroke:#038048;stroke-width:1.0;"/><text fill="#000000" font-family="sans-serif" font-size="14" lengthAdjust="spacing" text-decoration="underline" textLength="311.8213" x="369" y="120.5889">monomialWithCoeffAndDegree(int, int): Poly</text><ellipse cx="360" cy="133.5391" fill="#84BE84" rx="3" ry="3" style="stroke:#038048;stroke-width:1.0;"/><text fill="#000000" font-family="sans-serif" font-size="14" lengthAdjust="spacing" textLength="87.7119" x="369" y="136.8857">degree(): int</text><ellipse cx="360" cy="149.8359" fill="#84BE84" rx="3" ry="3" style="stroke:#038048;stroke-width:1.0;"/><text fill="#000000" font-family="sans-serif" font-size="14" lengthAdjust="spacing" textLength="91.3281" x="369" y="153.1826">coeff(int): int</text><ellipse cx="360" cy="166.1328" fill="#84BE84" rx="3" ry="3" style="stroke:#038048;stroke-width:1.0;"/><text fill="#000000" font-family="sans-serif" font-size="14" lengthAdjust="spacing" textLength="104.8086" x="369" y="169.4795">add(Poly): Poly</text><ellipse cx="360" cy="182.4297" fill="#84BE84" rx="3" ry="3" style="stroke:#038048;stroke-width:1.0;"/><text fill="#000000" font-family="sans-serif" font-size="14" lengthAdjust="spacing" textLength="104.8564" x="369" y="185.7764">mul(Poly): Poly</text><ellipse cx="360" cy="198.7266" fill="#84BE84" rx="3" ry="3" style="stroke:#038048;stroke-width:1.0;"/><text fill="#000000" font-family="sans-serif" font-size="14" lengthAdjust="spacing" textLength="103.5098" x="369" y="202.0732">sub(Poly): Poly</text><ellipse cx="360" cy="215.0234" fill="#84BE84" rx="3" ry="3" style="stroke:#038048;stroke-width:1.0;"/><text fill="#000000" font-family="sans-serif" font-size="14" lengthAdjust="spacing" textLength="91.8408" x="369" y="218.3701">minus(): Poly</text></g></a><!--class IntSets--><a href="IntSets.html" target="_top" title="IntSets.html" xlink:actuate="onRequest" xlink:href="IntSets.html" xlink:show="new" xlink:title="IntSets.html" xlink:type="simple"><g id="elem_IntSets"><rect codeLine="26" fill="#F1F1F1" height="64.2969" id="IntSets" rx="2.5" ry="2.5" style="stroke:#181818;stroke-width:0.5;" width="204.9922" x="22.5" y="294.5"/><ellipse cx="96.3589" cy="310.5" fill="#ADD1B2" rx="11" ry="11" style="stroke:#181818;stroke-width:1.0;"/><path d="M99.3276,316.1406 Q98.7495,316.4375 98.1089,316.5781 Q97.4683,316.7344 96.7651,316.7344 Q94.2651,316.7344 92.937,315.0938 Q91.6245,313.4375 91.6245,310.3125 Q91.6245,307.1875 92.937,305.5313 Q94.2651,303.875 96.7651,303.875 Q97.4683,303.875 98.1089,304.0313 Q98.7651,304.1875 99.3276,304.4844 L99.3276,307.2031 Q98.7026,306.625 98.1089,306.3594 Q97.5151,306.0781 96.8901,306.0781 Q95.5464,306.0781 94.8589,307.1563 Q94.1714,308.2188 94.1714,310.3125 Q94.1714,312.4063 94.8589,313.4844 Q95.5464,314.5469 96.8901,314.5469 Q97.5151,314.5469 98.1089,314.2813 Q98.7026,314 99.3276,313.4219 L99.3276,316.1406 Z " fill="#000000"/><text fill="#000000" font-family="sans-serif" font-size="14" lengthAdjust="spacing" textLength="48.7744" x="116.8589" y="315.3467">IntSets</text><line style="stroke:#181818;stroke-width:0.5;" x1="23.5" x2="226.4922" y1="326.5" y2="326.5"/><line style="stroke:#181818;stroke-width:0.5;" x1="23.5" x2="226.4922" y1="334.5" y2="334.5"/><ellipse cx="33.5" cy="348.1484" fill="#84BE84" rx="3" ry="3" style="stroke:#038048;stroke-width:1.0;"/><text fill="#000000" font-family="sans-serif" font-size="14" lengthAdjust="spacing" text-decoration="underline" textLength="178.9922" x="42.5" y="351.4951">getElements(int[]): IntSet</text></g></a><!--class IntSet--><a href="IntSet.html" target="_top" title="IntSet.html" xlink:actuate="onRequest" xlink:href="IntSet.html" xlink:show="new" xlink:title="IntSet.html" xlink:type="simple"><g id="elem_IntSet"><rect codeLine="30" fill="#F1F1F1" height="129.4844" id="IntSet" rx="2.5" ry="2.5" style="stroke:#181818;stroke-width:0.5;" width="147.4404" x="245.5" y="262"/><ellipse cx="294.23" cy="278" fill="#ADD1B2" rx="11" ry="11" style="stroke:#181818;stroke-width:1.0;"/><path d="M297.1987,283.6406 Q296.6206,283.9375 295.98,284.0781 Q295.3394,284.2344 294.6362,284.2344 Q292.1362,284.2344 290.8081,282.5938 Q289.4956,280.9375 289.4956,277.8125 Q289.4956,274.6875 290.8081,273.0313 Q292.1362,271.375 294.6362,271.375 Q295.3394,271.375 295.98,271.5313 Q296.6362,271.6875 297.1987,271.9844 L297.1987,274.7031 Q296.5737,274.125 295.98,273.8594 Q295.3862,273.5781 294.7612,273.5781 Q293.4175,273.5781 292.73,274.6563 Q292.0425,275.7188 292.0425,277.8125 Q292.0425,279.9063 292.73,280.9844 Q293.4175,282.0469 294.7612,282.0469 Q295.3862,282.0469 295.98,281.7813 Q296.5737,281.5 297.1987,280.9219 L297.1987,283.6406 Z " fill="#000000"/><text fill="#000000" font-family="sans-serif" font-size="14" lengthAdjust="spacing" textLength="41.4805" x="314.73" y="282.8467">IntSet</text><line style="stroke:#181818;stroke-width:0.5;" x1="246.5" x2="391.9404" y1="294" y2="294"/><line style="stroke:#181818;stroke-width:0.5;" x1="246.5" x2="391.9404" y1="302" y2="302"/><ellipse cx="256.5" cy="315.6484" fill="#84BE84" rx="3" ry="3" style="stroke:#038048;stroke-width:1.0;"/><text fill="#000000" font-family="sans-serif" font-size="14" lengthAdjust="spacing" textLength="107.8848" x="265.5" y="318.9951">insert(int): void</text><ellipse cx="256.5" cy="331.9453" fill="#84BE84" rx="3" ry="3" style="stroke:#038048;stroke-width:1.0;"/><text fill="#000000" font-family="sans-serif" font-size="14" lengthAdjust="spacing" textLength="121.4404" x="265.5" y="335.292">remove(int): void</text><ellipse cx="256.5" cy="348.2422" fill="#84BE84" rx="3" ry="3" style="stroke:#038048;stroke-width:1.0;"/><text fill="#000000" font-family="sans-serif" font-size="14" lengthAdjust="spacing" textLength="118.501" x="265.5" y="351.5889">isIn(int): boolean</text><ellipse cx="256.5" cy="364.5391" fill="#84BE84" rx="3" ry="3" style="stroke:#038048;stroke-width:1.0;"/><text fill="#000000" font-family="sans-serif" font-size="14" lengthAdjust="spacing" textLength="65.4883" x="265.5" y="367.8857">size(): int</text><ellipse cx="256.5" cy="380.8359" fill="#84BE84" rx="3" ry="3" style="stroke:#038048;stroke-width:1.0;"/><text fill="#000000" font-family="sans-serif" font-size="14" lengthAdjust="spacing" textLength="87.9512" x="265.5" y="384.1826">choose(): int</text></g></a><text fill="#888888" font-family="sans-serif" font-size="10" lengthAdjust="spacing" textLength="3.1787" x="341.4106" y="410.2822">&#160;</text><text fill="#888888" font-family="sans-serif" font-size="10" lengthAdjust="spacing" textLength="183.0908" x="251.4546" y="421.9229">UMLDoclet 2.2.0, PlantUML 1.2024.6</text><!--SRC=[ZP5DQm8n48Rl_ehfeR2BieYdugre3q8BWfGUh8UuExixDCaiILQmudzlDYjQFxOsXuJaUMScCoy0m4DbHA44IB7bse5Lw8GMFK_0ehzZ9OnmR60yxeNNIgHVea0WbzIQ52KP9PNXOfIKmoVOjQ9cfL9O2tEMMmlBPJYJqYcvMdaL_5exwuIZT0_zZF8yQfJnE0GUPVlBj3Fj5kZiH19gvzEVtU-LKO9qj726TB5S-L8RfgoxLFEHGmEt4_SR5CKttaYx0VWjxle8QrOav0UvSiAOvyywcs9X44-X5vC8oRDMuvbNdAEqIHErWLTGPDdDyGQeQjaDRRt-8v9qRQF_UdPowvvF1ReNYSexQfkEWbTjwBqYnneTZf6sQDnXJ6Vs1snGyGOxCTcPFi0riqIXBuP5tntcbCps2Xrws8SzzTsYWPovEJxr-zlhb5FfMnebesGuWBaKslbNUDoWiSGwYdy0]--></g></svg>