<svg xmlns="http://www.w3.org/2000/svg" xmlns:xlink="http://www.w3.org/1999/xlink" contentStyleType="text/css" height="269px" preserveAspectRatio="none" style="width:655px;height:269px;background:#FFFFFF;" version="1.1" viewBox="0 0 655 269" width="655px" zoomAndPan="magnify"><defs/><g><!--cluster it.unimi.di.prog2.h05--><g id="cluster_it.unimi.di.prog2.h05"><path d="M16.5,4 L184.96,4 A3.75,3.75 0 0 1 187.46,6.5 L194.46,26.2969 L645.5,26.2969 A2.5,2.5 0 0 1 648,28.7969 L648,233.5 A2.5,2.5 0 0 1 645.5,236 L16.5,236 A2.5,2.5 0 0 1 14,233.5 L14,6.5 A2.5,2.5 0 0 1 16.5,4 " fill="none" style="stroke:#000000;stroke-width:1.5;"/><line style="stroke:#000000;stroke-width:1.5;" x1="14" x2="194.46" y1="26.2969" y2="26.2969"/><text fill="#000000" font-family="sans-serif" font-size="14" font-weight="bold" lengthAdjust="spacing" textLength="167.46" x="18" y="18.9951">it.unimi.di.prog2.h05</text></g><!--class GrigliaIrregolare4--><a href="GrigliaIrregolare4.html" target="_top" title="GrigliaIrregolare4.html" xlink:actuate="onRequest" xlink:href="GrigliaIrregolare4.html" xlink:show="new" xlink:title="GrigliaIrregolare4.html" xlink:type="simple"><g id="elem_GrigliaIrregolare4"><rect codeLine="6" fill="#F1F1F1" height="96.8906" id="GrigliaIrregolare4" rx="2.5" ry="2.5" style="stroke:#181818;stroke-width:0.5;" width="299.7861" x="22" y="31"/><ellipse cx="106.0479" cy="47" fill="#ADD1B2" rx="11" ry="11" style="stroke:#181818;stroke-width:1.0;"/><path d="M109.0166,52.6406 Q108.4385,52.9375 107.7979,53.0781 Q107.1572,53.2344 106.4541,53.2344 Q103.9541,53.2344 102.626,51.5938 Q101.3135,49.9375 101.3135,46.8125 Q101.3135,43.6875 102.626,42.0313 Q103.9541,40.375 106.4541,40.375 Q107.1572,40.375 107.7979,40.5313 Q108.4541,40.6875 109.0166,40.9844 L109.0166,43.7031 Q108.3916,43.125 107.7979,42.8594 Q107.2041,42.5781 106.5791,42.5781 Q105.2354,42.5781 104.5479,43.6563 Q103.8604,44.7188 103.8604,46.8125 Q103.8604,48.9063 104.5479,49.9844 Q105.2354,51.0469 106.5791,51.0469 Q107.2041,51.0469 107.7979,50.7813 Q108.3916,50.5 109.0166,49.9219 L109.0166,52.6406 Z " fill="#000000"/><text fill="#000000" font-family="sans-serif" font-size="14" lengthAdjust="spacing" textLength="123.1904" x="126.5479" y="51.8467">GrigliaIrregolare4</text><line style="stroke:#181818;stroke-width:0.5;" x1="23" x2="320.7861" y1="63" y2="63"/><line style="stroke:#181818;stroke-width:0.5;" x1="23" x2="320.7861" y1="71" y2="71"/><ellipse cx="33" cy="84.6484" fill="#84BE84" rx="3" ry="3" style="stroke:#038048;stroke-width:1.0;"/><text fill="#000000" font-family="sans-serif" font-size="14" lengthAdjust="spacing" text-decoration="underline" textLength="208.5576" x="42" y="87.9951">appartiene(int[], int): boolean</text><ellipse cx="33" cy="100.9453" fill="#84BE84" rx="3" ry="3" style="stroke:#038048;stroke-width:1.0;"/><text fill="#000000" font-family="sans-serif" font-size="14" lengthAdjust="spacing" text-decoration="underline" textLength="273.7861" x="42" y="104.292">appartiene(int[], int[], int, int): boolean</text><ellipse cx="33" cy="117.2422" fill="#84BE84" rx="3" ry="3" style="stroke:#038048;stroke-width:1.0;"/><text fill="#000000" font-family="sans-serif" font-size="14" lengthAdjust="spacing" text-decoration="underline" textLength="137.4023" x="42" y="120.5889">main(String[]): void</text></g></a><!--class GrigliaIrregolare3--><a href="GrigliaIrregolare3.html" target="_top" title="GrigliaIrregolare3.html" xlink:actuate="onRequest" xlink:href="GrigliaIrregolare3.html" xlink:show="new" xlink:title="GrigliaIrregolare3.html" xlink:type="simple"><g id="elem_GrigliaIrregolare3"><rect codeLine="12" fill="#F1F1F1" height="80.5938" id="GrigliaIrregolare3" rx="2.5" ry="2.5" style="stroke:#181818;stroke-width:0.5;" width="299.7861" x="340" y="39"/><ellipse cx="424.0479" cy="55" fill="#ADD1B2" rx="11" ry="11" style="stroke:#181818;stroke-width:1.0;"/><path d="M427.0166,60.6406 Q426.4385,60.9375 425.7979,61.0781 Q425.1572,61.2344 424.4541,61.2344 Q421.9541,61.2344 420.626,59.5938 Q419.3135,57.9375 419.3135,54.8125 Q419.3135,51.6875 420.626,50.0313 Q421.9541,48.375 424.4541,48.375 Q425.1572,48.375 425.7979,48.5313 Q426.4541,48.6875 427.0166,48.9844 L427.0166,51.7031 Q426.3916,51.125 425.7979,50.8594 Q425.2041,50.5781 424.5791,50.5781 Q423.2354,50.5781 422.5479,51.6563 Q421.8604,52.7188 421.8604,54.8125 Q421.8604,56.9063 422.5479,57.9844 Q423.2354,59.0469 424.5791,59.0469 Q425.2041,59.0469 425.7979,58.7813 Q426.3916,58.5 427.0166,57.9219 L427.0166,60.6406 Z " fill="#000000"/><text fill="#000000" font-family="sans-serif" font-size="14" lengthAdjust="spacing" textLength="123.1904" x="444.5479" y="59.8467">GrigliaIrregolare3</text><line style="stroke:#181818;stroke-width:0.5;" x1="341" x2="638.7861" y1="71" y2="71"/><line style="stroke:#181818;stroke-width:0.5;" x1="341" x2="638.7861" y1="79" y2="79"/><ellipse cx="351" cy="92.6484" fill="#84BE84" rx="3" ry="3" style="stroke:#038048;stroke-width:1.0;"/><text fill="#000000" font-family="sans-serif" font-size="14" lengthAdjust="spacing" text-decoration="underline" textLength="273.7861" x="360" y="95.9951">appartiene(int[], int[], int, int): boolean</text><ellipse cx="351" cy="108.9453" fill="#84BE84" rx="3" ry="3" style="stroke:#038048;stroke-width:1.0;"/><text fill="#000000" font-family="sans-serif" font-size="14" lengthAdjust="spacing" text-decoration="underline" textLength="137.4023" x="360" y="112.292">main(String[]): void</text></g></a><!--class GrigliaIrregolare2--><a href="GrigliaIrregolare2.html" target="_top" title="GrigliaIrregolare2.html" xlink:actuate="onRequest" xlink:href="GrigliaIrregolare2.html" xlink:show="new" xlink:title="GrigliaIrregolare2.html" xlink:type="simple"><g id="elem_GrigliaIrregolare2"><rect codeLine="17" fill="#F1F1F1" height="64.2969" id="GrigliaIrregolare2" rx="2.5" ry="2.5" style="stroke:#181818;stroke-width:0.5;" width="163.4023" x="90.5" y="164"/><ellipse cx="109.1954" cy="180" fill="#ADD1B2" rx="11" ry="11" style="stroke:#181818;stroke-width:1.0;"/><path d="M112.1641,185.6406 Q111.586,185.9375 110.9454,186.0781 Q110.3047,186.2344 109.6016,186.2344 Q107.1016,186.2344 105.7735,184.5938 Q104.461,182.9375 104.461,179.8125 Q104.461,176.6875 105.7735,175.0313 Q107.1016,173.375 109.6016,173.375 Q110.3047,173.375 110.9454,173.5313 Q111.6016,173.6875 112.1641,173.9844 L112.1641,176.7031 Q111.5391,176.125 110.9454,175.8594 Q110.3516,175.5781 109.7266,175.5781 Q108.3829,175.5781 107.6954,176.6563 Q107.0079,177.7188 107.0079,179.8125 Q107.0079,181.9063 107.6954,182.9844 Q108.3829,184.0469 109.7266,184.0469 Q110.3516,184.0469 110.9454,183.7813 Q111.5391,183.5 112.1641,182.9219 L112.1641,185.6406 Z " fill="#000000"/><text fill="#000000" font-family="sans-serif" font-size="14" lengthAdjust="spacing" textLength="123.1904" x="124.0166" y="184.8467">GrigliaIrregolare2</text><line style="stroke:#181818;stroke-width:0.5;" x1="91.5" x2="252.9023" y1="196" y2="196"/><line style="stroke:#181818;stroke-width:0.5;" x1="91.5" x2="252.9023" y1="204" y2="204"/><ellipse cx="101.5" cy="217.6484" fill="#84BE84" rx="3" ry="3" style="stroke:#038048;stroke-width:1.0;"/><text fill="#000000" font-family="sans-serif" font-size="14" lengthAdjust="spacing" text-decoration="underline" textLength="137.4023" x="110.5" y="220.9951">main(String[]): void</text></g></a><!--class GrigliaIrregolare1--><a href="GrigliaIrregolare1.html" target="_top" title="GrigliaIrregolare1.html" xlink:actuate="onRequest" xlink:href="GrigliaIrregolare1.html" xlink:show="new" xlink:title="GrigliaIrregolare1.html" xlink:type="simple"><g id="elem_GrigliaIrregolare1"><rect codeLine="21" fill="#F1F1F1" height="64.2969" id="GrigliaIrregolare1" rx="2.5" ry="2.5" style="stroke:#181818;stroke-width:0.5;" width="163.4023" x="271.5" y="164"/><ellipse cx="290.1954" cy="180" fill="#ADD1B2" rx="11" ry="11" style="stroke:#181818;stroke-width:1.0;"/><path d="M293.1641,185.6406 Q292.586,185.9375 291.9454,186.0781 Q291.3047,186.2344 290.6016,186.2344 Q288.1016,186.2344 286.7735,184.5938 Q285.461,182.9375 285.461,179.8125 Q285.461,176.6875 286.7735,175.0313 Q288.1016,173.375 290.6016,173.375 Q291.3047,173.375 291.9454,173.5313 Q292.6016,173.6875 293.1641,173.9844 L293.1641,176.7031 Q292.5391,176.125 291.9454,175.8594 Q291.3516,175.5781 290.7266,175.5781 Q289.3829,175.5781 288.6954,176.6563 Q288.0079,177.7188 288.0079,179.8125 Q288.0079,181.9063 288.6954,182.9844 Q289.3829,184.0469 290.7266,184.0469 Q291.3516,184.0469 291.9454,183.7813 Q292.5391,183.5 293.1641,182.9219 L293.1641,185.6406 Z " fill="#000000"/><text fill="#000000" font-family="sans-serif" font-size="14" lengthAdjust="spacing" textLength="123.1904" x="305.0166" y="184.8467">GrigliaIrregolare1</text><line style="stroke:#181818;stroke-width:0.5;" x1="272.5" x2="433.9023" y1="196" y2="196"/><line style="stroke:#181818;stroke-width:0.5;" x1="272.5" x2="433.9023" y1="204" y2="204"/><ellipse cx="282.5" cy="217.6484" fill="#84BE84" rx="3" ry="3" style="stroke:#038048;stroke-width:1.0;"/><text fill="#000000" font-family="sans-serif" font-size="14" lengthAdjust="spacing" text-decoration="underline" textLength="137.4023" x="291.5" y="220.9951">main(String[]): void</text></g></a><text fill="#888888" font-family="sans-serif" font-size="10" lengthAdjust="spacing" textLength="3.1787" x="317.9106" y="247.2822">&#160;</text><text fill="#888888" font-family="sans-serif" font-size="10" lengthAdjust="spacing" textLength="183.0908" x="227.9546" y="258.9229">UMLDoclet 2.2.0, PlantUML 1.2024.6</text><!--SRC=[lL9DImD13BttLyI3iCKoj5kzx5aGGK4GJ-iUuZPEWxEP9PCMfFI_EwqYWWlr2tEOnxn9yjw30G0uwXLzXn3mEQuCKaU6WgFy0edodNfKjAXGLQCzssFxX9w0pQs4EtOBThr6Nxhbz0mshqsxQWEc11VAFZ1UgfAF0PLEeQu_asvfNMYQF0yVQfCCZTijd62VVHYJKC5YTJE13ECA7c8CXFATgJVuseOEMOfRKnPVDxbx7Ndnthez67O-57R-ex3_QRiSibqUilrBqTcGwEmlHBVxioKnKdYCSGVtSdTzTHxRa3zvwKetdS1DGB7Cml6QD76KOlm2]--></g></svg>