<svg xmlns="http://www.w3.org/2000/svg" xmlns:xlink="http://www.w3.org/1999/xlink" contentStyleType="text/css" height="418px" preserveAspectRatio="none" style="width:586px;height:418px;background:#FFFFFF;" version="1.1" viewBox="0 0 586 418" width="586px" zoomAndPan="magnify"><defs/><g><!--cluster it.unimi.di.prog2.h13--><g id="cluster_it.unimi.di.prog2.h13"><path d="M16.5,4 L184.96,4 A3.75,3.75 0 0 1 187.46,6.5 L194.46,26.2969 L470.5,26.2969 A2.5,2.5 0 0 1 473,28.7969 L473,382.5 A2.5,2.5 0 0 1 470.5,385 L16.5,385 A2.5,2.5 0 0 1 14,382.5 L14,6.5 A2.5,2.5 0 0 1 16.5,4 " fill="none" style="stroke:#000000;stroke-width:1.5;"/><line style="stroke:#000000;stroke-width:1.5;" x1="14" x2="194.46" y1="26.2969" y2="26.2969"/><text fill="#000000" font-family="sans-serif" font-size="14" font-weight="bold" lengthAdjust="spacing" textLength="167.46" x="18" y="18.9951">it.unimi.di.prog2.h13</text></g><!--cluster java.lang--><g id="cluster_java.lang"><path d="M483.5,61 L556.8721,61 A3.75,3.75 0 0 1 559.3721,63.5 L566.3721,83.2969 L576.5,83.2969 A2.5,2.5 0 0 1 579,85.7969 L579,141.5 A2.5,2.5 0 0 1 576.5,144 L483.5,144 A2.5,2.5 0 0 1 481,141.5 L481,63.5 A2.5,2.5 0 0 1 483.5,61 " fill="none" style="stroke:#000000;stroke-width:1.5;"/><line style="stroke:#000000;stroke-width:1.5;" x1="481" x2="566.3721" y1="83.2969" y2="83.2969"/><text fill="#000000" font-family="sans-serif" font-size="14" font-weight="bold" lengthAdjust="spacing" textLength="72.3721" x="485" y="75.9951">java.lang</text></g><!--class PortafoglioAzionario--><a href="PortafoglioAzionario.html" target="_top" title="PortafoglioAzionario.html" xlink:actuate="onRequest" xlink:href="PortafoglioAzionario.html" xlink:show="new" xlink:title="PortafoglioAzionario.html" xlink:type="simple"><g id="elem_PortafoglioAzionario"><rect codeLine="6" fill="#F1F1F1" height="162.0781" id="PortafoglioAzionario" rx="2.5" ry="2.5" style="stroke:#181818;stroke-width:0.5;" width="210.502" x="253.5" y="31"/><ellipse cx="285.5552" cy="47" fill="#ADD1B2" rx="11" ry="11" style="stroke:#181818;stroke-width:1.0;"/><path d="M288.5239,52.6406 Q287.9458,52.9375 287.3052,53.0781 Q286.6646,53.2344 285.9614,53.2344 Q283.4614,53.2344 282.1333,51.5938 Q280.8208,49.9375 280.8208,46.8125 Q280.8208,43.6875 282.1333,42.0313 Q283.4614,40.375 285.9614,40.375 Q286.6646,40.375 287.3052,40.5313 Q287.9614,40.6875 288.5239,40.9844 L288.5239,43.7031 Q287.8989,43.125 287.3052,42.8594 Q286.7114,42.5781 286.0864,42.5781 Q284.7427,42.5781 284.0552,43.6563 Q283.3677,44.7188 283.3677,46.8125 Q283.3677,48.9063 284.0552,49.9844 Q284.7427,51.0469 286.0864,51.0469 Q286.7114,51.0469 287.3052,50.7813 Q287.8989,50.5 288.5239,49.9219 L288.5239,52.6406 Z " fill="#000000"/><text fill="#000000" font-family="sans-serif" font-size="14" lengthAdjust="spacing" textLength="140.6016" x="303.3452" y="51.8467">PortafoglioAzionario</text><line style="stroke:#181818;stroke-width:0.5;" x1="254.5" x2="463.002" y1="63" y2="63"/><rect fill="none" height="6" style="stroke:#C82930;stroke-width:1.0;" width="6" x="261.5" y="73.6484"/><text fill="#000000" font-family="sans-serif" font-size="14" lengthAdjust="spacing" textLength="166.1201" x="273.5" y="79.9951">quantit&#224;: List&lt;Integer&gt;</text><line style="stroke:#181818;stroke-width:0.5;" x1="254.5" x2="463.002" y1="87.2969" y2="87.2969"/><ellipse cx="264.5" cy="100.9453" fill="#84BE84" rx="3" ry="3" style="stroke:#038048;stroke-width:1.0;"/><text fill="#000000" font-family="sans-serif" font-size="14" lengthAdjust="spacing" textLength="184.502" x="273.5" y="104.292">aggiungi(Azione, int): void</text><rect fill="#F24D5C" height="6" style="stroke:#C82930;stroke-width:1.0;" width="6" x="261.5" y="114.2422"/><text fill="#000000" font-family="sans-serif" font-size="14" lengthAdjust="spacing" textLength="125.9932" x="273.5" y="120.5889">azione(String): int</text><ellipse cx="264.5" cy="133.5391" fill="#84BE84" rx="3" ry="3" style="stroke:#038048;stroke-width:1.0;"/><text fill="#000000" font-family="sans-serif" font-size="14" lengthAdjust="spacing" textLength="176.6338" x="273.5" y="136.8857">rimuovi(Azione, int): void</text><ellipse cx="264.5" cy="149.8359" fill="#84BE84" rx="3" ry="3" style="stroke:#038048;stroke-width:1.0;"/><text fill="#000000" font-family="sans-serif" font-size="14" lengthAdjust="spacing" textLength="171.5479" x="273.5" y="153.1826">rimuovi(String, int): void</text><ellipse cx="264.5" cy="166.1328" fill="#84BE84" rx="3" ry="3" style="stroke:#038048;stroke-width:1.0;"/><text fill="#000000" font-family="sans-serif" font-size="14" lengthAdjust="spacing" textLength="129.4385" x="273.5" y="169.4795">quante(String): int</text><ellipse cx="264.5" cy="182.4297" fill="#84BE84" rx="3" ry="3" style="stroke:#038048;stroke-width:1.0;"/><text fill="#000000" font-family="sans-serif" font-size="14" lengthAdjust="spacing" textLength="82.0313" x="273.5" y="185.7764">valore(): int</text></g></a><!--class PortafoglioAzionario.Azione--><a href="PortafoglioAzionario.Azione.html" target="_top" title="PortafoglioAzionario.Azione.html" xlink:actuate="onRequest" xlink:href="PortafoglioAzionario.Azione.html" xlink:show="new" xlink:title="PortafoglioAzionario.Azione.html" xlink:type="simple"><g id="elem_PortafoglioAzionario.Azione"><rect codeLine="16" fill="#F1F1F1" height="129.4844" id="PortafoglioAzionario.Azione" rx="2.5" ry="2.5" style="stroke:#181818;stroke-width:0.5;" width="223.9189" x="241" y="248"/><ellipse cx="256" cy="264" fill="#ADD1B2" rx="11" ry="11" style="stroke:#181818;stroke-width:1.0;"/><path d="M258.9688,269.6406 Q258.3906,269.9375 257.75,270.0781 Q257.1094,270.2344 256.4063,270.2344 Q253.9063,270.2344 252.5781,268.5938 Q251.2656,266.9375 251.2656,263.8125 Q251.2656,260.6875 252.5781,259.0313 Q253.9063,257.375 256.4063,257.375 Q257.1094,257.375 257.75,257.5313 Q258.4063,257.6875 258.9688,257.9844 L258.9688,260.7031 Q258.3438,260.125 257.75,259.8594 Q257.1563,259.5781 256.5313,259.5781 Q255.1875,259.5781 254.5,260.6563 Q253.8125,261.7188 253.8125,263.8125 Q253.8125,265.9063 254.5,266.9844 Q255.1875,268.0469 256.5313,268.0469 Q257.1563,268.0469 257.75,267.7813 Q258.3438,267.5 258.9688,266.9219 L258.9688,269.6406 Z " fill="#000000"/><text fill="#000000" font-family="sans-serif" font-size="14" lengthAdjust="spacing" textLength="191.9189" x="270" y="268.8467">PortafoglioAzionario.Azione</text><line style="stroke:#181818;stroke-width:0.5;" x1="242" x2="463.9189" y1="280" y2="280"/><rect fill="none" height="6" style="stroke:#C82930;stroke-width:1.0;" width="6" x="249" y="290.6484"/><text fill="#000000" font-family="sans-serif" font-size="14" lengthAdjust="spacing" textLength="101.0762" x="261" y="296.9951">societ&#224;: String</text><rect fill="none" height="6" style="stroke:#C82930;stroke-width:1.0;" width="6" x="249" y="306.9453"/><text fill="#000000" font-family="sans-serif" font-size="14" lengthAdjust="spacing" textLength="73.9375" x="261" y="313.292">prezzo: int</text><line style="stroke:#181818;stroke-width:0.5;" x1="242" x2="463.9189" y1="320.5938" y2="320.5938"/><ellipse cx="252" cy="334.2422" fill="#84BE84" rx="3" ry="3" style="stroke:#038048;stroke-width:1.0;"/><text fill="#000000" font-family="sans-serif" font-size="14" lengthAdjust="spacing" textLength="126.7246" x="261" y="337.5889">Azione(String, int)</text><ellipse cx="252" cy="350.5391" fill="#84BE84" rx="3" ry="3" style="stroke:#038048;stroke-width:1.0;"/><text fill="#000000" font-family="sans-serif" font-size="14" lengthAdjust="spacing" textLength="112" x="261" y="353.8857">societ&#224;(): String</text><ellipse cx="252" cy="366.8359" fill="#84BE84" rx="3" ry="3" style="stroke:#038048;stroke-width:1.0;"/><text fill="#000000" font-family="sans-serif" font-size="14" lengthAdjust="spacing" textLength="84.8613" x="261" y="370.1826">prezzo(): int</text></g></a><!--class PortafoglioAzionarioClient--><a href="PortafoglioAzionarioClient.html" target="_top" title="PortafoglioAzionarioClient.html" xlink:actuate="onRequest" xlink:href="PortafoglioAzionarioClient.html" xlink:show="new" xlink:title="PortafoglioAzionarioClient.html" xlink:type="simple"><g id="elem_PortafoglioAzionarioClient"><rect codeLine="24" fill="#F1F1F1" height="64.2969" id="PortafoglioAzionarioClient" rx="2.5" ry="2.5" style="stroke:#181818;stroke-width:0.5;" width="213.1318" x="22.5" y="80"/><ellipse cx="37.5" cy="96" fill="#ADD1B2" rx="11" ry="11" style="stroke:#181818;stroke-width:1.0;"/><path d="M40.4688,101.6406 Q39.8906,101.9375 39.25,102.0781 Q38.6094,102.2344 37.9063,102.2344 Q35.4063,102.2344 34.0781,100.5938 Q32.7656,98.9375 32.7656,95.8125 Q32.7656,92.6875 34.0781,91.0313 Q35.4063,89.375 37.9063,89.375 Q38.6094,89.375 39.25,89.5313 Q39.9063,89.6875 40.4688,89.9844 L40.4688,92.7031 Q39.8438,92.125 39.25,91.8594 Q38.6563,91.5781 38.0313,91.5781 Q36.6875,91.5781 36,92.6563 Q35.3125,93.7188 35.3125,95.8125 Q35.3125,97.9063 36,98.9844 Q36.6875,100.0469 38.0313,100.0469 Q38.6563,100.0469 39.25,99.7813 Q39.8438,99.5 40.4688,98.9219 L40.4688,101.6406 Z " fill="#000000"/><text fill="#000000" font-family="sans-serif" font-size="14" lengthAdjust="spacing" textLength="181.1318" x="51.5" y="100.8467">PortafoglioAzionarioClient</text><line style="stroke:#181818;stroke-width:0.5;" x1="23.5" x2="234.6318" y1="112" y2="112"/><line style="stroke:#181818;stroke-width:0.5;" x1="23.5" x2="234.6318" y1="120" y2="120"/><ellipse cx="33.5" cy="133.6484" fill="#84BE84" rx="3" ry="3" style="stroke:#038048;stroke-width:1.0;"/><text fill="#000000" font-family="sans-serif" font-size="14" lengthAdjust="spacing" text-decoration="underline" textLength="137.4023" x="42.5" y="136.9951">main(String[]): void</text></g></a><!--class Record--><a href="https://docs.oracle.com/en/java/javase/21/docs/api/java.base/java/lang/Record.html?is-external=true" target="_top" title="https://docs.oracle.com/en/java/javase/21/docs/api/java.base/java/lang/Record.html?is-external=true" xlink:actuate="onRequest" xlink:href="https://docs.oracle.com/en/java/javase/21/docs/api/java.base/java/lang/Record.html?is-external=true" xlink:show="new" xlink:title="https://docs.oracle.com/en/java/javase/21/docs/api/java.base/java/lang/Record.html?is-external=true" xlink:type="simple"><g id="elem_Record"><rect codeLine="31" fill="#F1F1F1" height="48" id="Record" rx="2.5" ry="2.5" style="stroke:#181818;stroke-width:0.5;" width="81.2461" x="489.5" y="88"/><ellipse cx="504.5" cy="104" fill="#A9DCDF" rx="11" ry="11" style="stroke:#181818;stroke-width:1.0;"/><path d="M504.6094,99.3438 L503.4531,104.4219 L505.7813,104.4219 L504.6094,99.3438 Z M503.125,97.1094 L506.1094,97.1094 L509.4688,109.5 L507.0156,109.5 L506.25,106.4375 L502.9688,106.4375 L502.2188,109.5 L499.7813,109.5 L503.125,97.1094 Z " fill="#000000"/><text fill="#000000" font-family="sans-serif" font-size="14" font-style="italic" lengthAdjust="spacing" textLength="49.2461" x="518.5" y="108.8467">Record</text><line style="stroke:#181818;stroke-width:0.5;" x1="490.5" x2="569.7461" y1="120" y2="120"/><line style="stroke:#181818;stroke-width:0.5;" x1="490.5" x2="569.7461" y1="128" y2="128"/></g></a><polygon fill="#181818" points="334.0892,247.7592,336.1548,238.1293,333.0619,242.8658,328.3254,239.773,334.0892,247.7592" style="stroke:#181818;stroke-width:1.0;"/><path d="M331.8029,193.1531 C329.9741,205.4182 329.4077,217.9912 331,230 C331.7706,235.8114 331.6047,235.9245 332.8565,241.8872 " fill="none" style="stroke:#181818;stroke-width:1.0;"/><text fill="#000000" font-family="sans-serif" font-size="13" lengthAdjust="spacing" textLength="42.5928" x="333" y="225.0669">azione</text><text fill="#000000" font-family="sans-serif" font-size="13" lengthAdjust="spacing" textLength="6.5" x="327.0892" y="243.8261">*</text><polygon fill="none" points="516.6477,136.019,502.1796,148.2938,512.4381,154.5198,516.6477,136.019" style="stroke:#181818;stroke-width:1.0;"/><path d="M507.3088,151.4068 C497.2805,167.9306 492.0721,174.9816 477,193 C461.238,211.8431 442.7571,230.8481 424.9467,247.9537 " fill="none" style="stroke:#181818;stroke-width:1.0;"/><ellipse cx="378.3426" cy="201.1878" fill="#FFFFFF" rx="8" ry="8" style="stroke:#181818;stroke-width:1.0;"/><line style="stroke:#181818;stroke-width:1.0;" x1="379.0121" x2="377.6732" y1="209.1597" y2="193.2159"/><line style="stroke:#181818;stroke-width:1.0;" x1="370.3707" x2="386.3146" y1="201.8573" y2="200.5183"/><path d="M379.0121,209.1597 C380.0462,221.4735 378.7157,218.1004 377,230 C376.158,235.8396 374.9933,241.8441 373.6271,247.8194 " fill="none" style="stroke:#181818;stroke-width:1.0;"/><text fill="#888888" font-family="sans-serif" font-size="10" lengthAdjust="spacing" textLength="3.1787" x="283.4106" y="396.2822">&#160;</text><text fill="#888888" font-family="sans-serif" font-size="10" lengthAdjust="spacing" textLength="183.0908" x="193.4546" y="407.9229">UMLDoclet 2.2.0, PlantUML 1.2024.6</text><!--SRC=[dLF1RjGm4BttAuPAI5ksSUXoiqfH1HUa8bKWJaiEqwph7KZiO4yYsBB_mh_mOpXsg3PL5kZwaCWpps_U6ti009uq3dMDKE5tspBuMZ4QF0ePy2hiLOCEsJgGyYX66oo_e5P0B5f3DOaLYSPPlH3hinTmbq3zAYlq7gwjOxorkY9xkI5hq965vN8gBDPSLqKHE61dPLzRD4pywwU4A_9y_jQmqifTZ51pr9fQesaMwTGfaE4J2PsbrPWEOtxsWHqP7H01DsPoLBUs-oVHFIunxST5_Nyhs65bdPezI6t_fvCYYTpNq9JTqrTlIrAnhKdQEDiujTdO2RMNk_rBhiU0FxozeGdcUM8-oExhYfJXFMvJSjhidMTaAhSmhv7C87vPFBolGSHs_D8_OuUYGgDtIF76iyEI1x7lLMdTAWXRCpTUvldAbbxOWAYKA6sTAvFtDF7ZLRuuYuWS6ueXSTD78w8lb2U-wEKL-KnzO-KCLY_PjQeeTaLEZg6KasENPHTm_EpuCMU69oGXZKqiUTyFAGVVvp-ox03MHnkO7rwc36z3ERYrjlzzCX_VNRsnuNOO5c8Xdf_2TN348GfFE-LyE3Sx-Gq0]--></g></svg>