<svg xmlns="http://www.w3.org/2000/svg" xmlns:xlink="http://www.w3.org/1999/xlink" contentStyleType="text/css" height="295px" preserveAspectRatio="none" style="width:236px;height:295px;background:#FFFFFF;" version="1.1" viewBox="0 0 236 295" width="236px" zoomAndPan="magnify"><defs/><g><!--class it.unimi.di.prog2.h13.PortafoglioAzionario--><a href="PortafoglioAzionario.html" target="_top" title="PortafoglioAzionario.html" xlink:actuate="onRequest" xlink:href="PortafoglioAzionario.html" xlink:show="new" xlink:title="PortafoglioAzionario.html" xlink:type="simple"><g id="elem_it.unimi.di.prog2.h13.PortafoglioAzionario"><rect codeLine="7" fill="#F1F1F1" height="184.3125" id="it.unimi.di.prog2.h13.PortafoglioAzionario" rx="2.5" ry="2.5" style="stroke:#181818;stroke-width:0.5;" width="210.502" x="12.5" y="12"/><ellipse cx="44.5552" cy="30.9688" fill="#ADD1B2" rx="11" ry="11" style="stroke:#181818;stroke-width:1.0;"/><path d="M47.5239,36.6094 Q46.9458,36.9063 46.3052,37.0469 Q45.6646,37.2031 44.9614,37.2031 Q42.4614,37.2031 41.1333,35.5625 Q39.8208,33.9063 39.8208,30.7813 Q39.8208,27.6563 41.1333,26 Q42.4614,24.3438 44.9614,24.3438 Q45.6646,24.3438 46.3052,24.5 Q46.9614,24.6563 47.5239,24.9531 L47.5239,27.6719 Q46.8989,27.0938 46.3052,26.8281 Q45.7114,26.5469 45.0864,26.5469 Q43.7427,26.5469 43.0552,27.625 Q42.3677,28.6875 42.3677,30.7813 Q42.3677,32.875 43.0552,33.9531 Q43.7427,35.0156 45.0864,35.0156 Q45.7114,35.0156 46.3052,34.75 Q46.8989,34.4688 47.5239,33.8906 L47.5239,36.6094 Z " fill="#000000"/><text fill="#000000" font-family="sans-serif" font-size="14" lengthAdjust="spacing" textLength="140.6016" x="62.3452" y="29.9951">PortafoglioAzionario</text><text fill="#000000" font-family="sans-serif" font-size="10" lengthAdjust="spacing" textLength="104.8633" x="80.2144" y="42.5791">it.unimi.di.prog2.h13</text><line style="stroke:#181818;stroke-width:0.5;" x1="13.5" x2="222.002" y1="49.9375" y2="49.9375"/><rect fill="none" height="6" style="stroke:#C82930;stroke-width:1.0;" width="6" x="20.5" y="60.5859"/><text fill="#000000" font-family="sans-serif" font-size="14" lengthAdjust="spacing" textLength="149.8369" x="32.5" y="66.9326">azione: List&lt;Azione&gt;</text><rect fill="none" height="6" style="stroke:#C82930;stroke-width:1.0;" width="6" x="20.5" y="76.8828"/><text fill="#000000" font-family="sans-serif" font-size="14" lengthAdjust="spacing" textLength="166.1201" x="32.5" y="83.2295">quantit&#224;: List&lt;Integer&gt;</text><line style="stroke:#181818;stroke-width:0.5;" x1="13.5" x2="222.002" y1="90.5313" y2="90.5313"/><ellipse cx="23.5" cy="104.1797" fill="#84BE84" rx="3" ry="3" style="stroke:#038048;stroke-width:1.0;"/><text fill="#000000" font-family="sans-serif" font-size="14" lengthAdjust="spacing" textLength="184.502" x="32.5" y="107.5264">aggiungi(Azione, int): void</text><rect fill="#F24D5C" height="6" style="stroke:#C82930;stroke-width:1.0;" width="6" x="20.5" y="117.4766"/><text fill="#000000" font-family="sans-serif" font-size="14" lengthAdjust="spacing" textLength="125.9932" x="32.5" y="123.8232">azione(String): int</text><ellipse cx="23.5" cy="136.7734" fill="#84BE84" rx="3" ry="3" style="stroke:#038048;stroke-width:1.0;"/><text fill="#000000" font-family="sans-serif" font-size="14" lengthAdjust="spacing" textLength="176.6338" x="32.5" y="140.1201">rimuovi(Azione, int): void</text><ellipse cx="23.5" cy="153.0703" fill="#84BE84" rx="3" ry="3" style="stroke:#038048;stroke-width:1.0;"/><text fill="#000000" font-family="sans-serif" font-size="14" lengthAdjust="spacing" textLength="171.5479" x="32.5" y="156.417">rimuovi(String, int): void</text><ellipse cx="23.5" cy="169.3672" fill="#84BE84" rx="3" ry="3" style="stroke:#038048;stroke-width:1.0;"/><text fill="#000000" font-family="sans-serif" font-size="14" lengthAdjust="spacing" textLength="129.4385" x="32.5" y="172.7139">quante(String): int</text><ellipse cx="23.5" cy="185.6641" fill="#84BE84" rx="3" ry="3" style="stroke:#038048;stroke-width:1.0;"/><text fill="#000000" font-family="sans-serif" font-size="14" lengthAdjust="spacing" textLength="82.0313" x="32.5" y="189.0107">valore(): int</text></g></a><!--class it.unimi.di.prog2.h13.PortafoglioAzionario.Azione--><a href="PortafoglioAzionario.Azione.html" target="_top" title="PortafoglioAzionario.Azione.html" xlink:actuate="onRequest" xlink:href="PortafoglioAzionario.Azione.html" xlink:show="new" xlink:title="PortafoglioAzionario.Azione.html" xlink:type="simple"><g id="elem_it.unimi.di.prog2.h13.PortafoglioAzionario.Azione"><rect codeLine="17" fill="#F1F1F1" height="37.9375" id="it.unimi.di.prog2.h13.PortafoglioAzionario.Azione" rx="2.5" ry="2.5" style="stroke:#181818;stroke-width:0.5;" width="223.9189" x="6" y="232"/><ellipse cx="21" cy="250.9688" fill="#ADD1B2" rx="11" ry="11" style="stroke:#181818;stroke-width:1.0;"/><path d="M23.9688,256.6094 Q23.3906,256.9063 22.75,257.0469 Q22.1094,257.2031 21.4063,257.2031 Q18.9063,257.2031 17.5781,255.5625 Q16.2656,253.9063 16.2656,250.7813 Q16.2656,247.6563 17.5781,246 Q18.9063,244.3438 21.4063,244.3438 Q22.1094,244.3438 22.75,244.5 Q23.4063,244.6563 23.9688,244.9531 L23.9688,247.6719 Q23.3438,247.0938 22.75,246.8281 Q22.1563,246.5469 21.5313,246.5469 Q20.1875,246.5469 19.5,247.625 Q18.8125,248.6875 18.8125,250.7813 Q18.8125,252.875 19.5,253.9531 Q20.1875,255.0156 21.5313,255.0156 Q22.1563,255.0156 22.75,254.75 Q23.3438,254.4688 23.9688,253.8906 L23.9688,256.6094 Z " fill="#000000"/><text fill="#000000" font-family="sans-serif" font-size="14" lengthAdjust="spacing" textLength="191.9189" x="35" y="249.9951">PortafoglioAzionario.Azione</text><text fill="#000000" font-family="sans-serif" font-size="10" lengthAdjust="spacing" textLength="104.8633" x="78.5278" y="262.5791">it.unimi.di.prog2.h13</text></g></a><ellipse cx="118" cy="204.0074" fill="#FFFFFF" rx="8" ry="8" style="stroke:#181818;stroke-width:1.0;"/><line style="stroke:#181818;stroke-width:1.0;" x1="118" x2="118" y1="212.0074" y2="196.0074"/><line style="stroke:#181818;stroke-width:1.0;" x1="110" x2="126" y1="204.0074" y2="204.0074"/><path d="M118,212.0074 C118,225.4357 118,221.9563 118,231.5529 " fill="none" style="stroke:#181818;stroke-width:1.0;"/><text fill="#888888" font-family="sans-serif" font-size="10" lengthAdjust="spacing" textLength="3.1787" x="112.9106" y="273.2822">&#160;</text><text fill="#888888" font-family="sans-serif" font-size="10" lengthAdjust="spacing" textLength="183.0908" x="22.9546" y="284.9229">UMLDoclet 2.2.0, PlantUML 1.2024.6</text><!--SRC=[hLF1QW8n4Btx5LEXiA86jJs928LU2XO4wKaz3EwO7TZDR9FiWfR-I_-bFzQuAxN8MYeqby1xRzuCyn80W9lSeiuGKjn9uS5bvD5WgnKeSEJ1O4OknmqjA4UBNYmOCLJn2SS4bEL-1rkcD7RdQ31B9C0LladHEMXF7EzfFBoVpiLwt8fEMHxsB0OjoyeSwS6KlIeCPwnYLhaLFLB9yAuDwA2HKKrsi5msmIhnMRfUmrirr-7qyS3H66Ri_AGIqlJ4lXPeFFlFZwFWoNZIP4-ABchDXT4SrRKzOECxOoY5u_CcqS9RDZgmGNDoi9mLKlvgyAsf7PerrQoNcfIOYgNe1_p-vsnKFTa_HtHqlPHKpHu3gz_H5V5t-_thHwaNGc695hOYXsjbNfvdZx99muSOgP4Qz62UXZK756vBiYxKHPql]--></g></svg>