<svg xmlns="http://www.w3.org/2000/svg" xmlns:xlink="http://www.w3.org/1999/xlink" contentStyleType="text/css" height="246px" preserveAspectRatio="none" style="width:284px;height:246px;background:#FFFFFF;" version="1.1" viewBox="0 0 284 246" width="284px" zoomAndPan="magnify"><defs/><g><!--class it.unimi.di.prog2.h13.PortafoglioAzionario.Azione--><a href="PortafoglioAzionario.Azione.html" target="_top" title="PortafoglioAzionario.Azione.html" xlink:actuate="onRequest" xlink:href="PortafoglioAzionario.Azione.html" xlink:show="new" xlink:title="PortafoglioAzionario.Azione.html" xlink:type="simple"><g id="elem_it.unimi.di.prog2.h13.PortafoglioAzionario.Azione"><rect codeLine="7" fill="#F1F1F1" height="135.4219" id="it.unimi.di.prog2.h13.PortafoglioAzionario.Azione" rx="2.5" ry="2.5" style="stroke:#181818;stroke-width:0.5;" width="223.9189" x="6.5" y="86"/><ellipse cx="21.5" cy="104.9688" fill="#ADD1B2" rx="11" ry="11" style="stroke:#181818;stroke-width:1.0;"/><path d="M24.4688,110.6094 Q23.8906,110.9063 23.25,111.0469 Q22.6094,111.2031 21.9063,111.2031 Q19.4063,111.2031 18.0781,109.5625 Q16.7656,107.9063 16.7656,104.7813 Q16.7656,101.6563 18.0781,100 Q19.4063,98.3438 21.9063,98.3438 Q22.6094,98.3438 23.25,98.5 Q23.9063,98.6563 24.4688,98.9531 L24.4688,101.6719 Q23.8438,101.0938 23.25,100.8281 Q22.6563,100.5469 22.0313,100.5469 Q20.6875,100.5469 20,101.625 Q19.3125,102.6875 19.3125,104.7813 Q19.3125,106.875 20,107.9531 Q20.6875,109.0156 22.0313,109.0156 Q22.6563,109.0156 23.25,108.75 Q23.8438,108.4688 24.4688,107.8906 L24.4688,110.6094 Z " fill="#000000"/><text fill="#000000" font-family="sans-serif" font-size="14" lengthAdjust="spacing" textLength="191.9189" x="35.5" y="103.9951">PortafoglioAzionario.Azione</text><text fill="#000000" font-family="sans-serif" font-size="10" lengthAdjust="spacing" textLength="104.8633" x="79.0278" y="116.5791">it.unimi.di.prog2.h13</text><line style="stroke:#181818;stroke-width:0.5;" x1="7.5" x2="229.4189" y1="123.9375" y2="123.9375"/><rect fill="none" height="6" style="stroke:#C82930;stroke-width:1.0;" width="6" x="14.5" y="134.5859"/><text fill="#000000" font-family="sans-serif" font-size="14" lengthAdjust="spacing" textLength="101.0762" x="26.5" y="140.9326">societ&#224;: String</text><rect fill="none" height="6" style="stroke:#C82930;stroke-width:1.0;" width="6" x="14.5" y="150.8828"/><text fill="#000000" font-family="sans-serif" font-size="14" lengthAdjust="spacing" textLength="73.9375" x="26.5" y="157.2295">prezzo: int</text><line style="stroke:#181818;stroke-width:0.5;" x1="7.5" x2="229.4189" y1="164.5313" y2="164.5313"/><ellipse cx="17.5" cy="178.1797" fill="#84BE84" rx="3" ry="3" style="stroke:#038048;stroke-width:1.0;"/><text fill="#000000" font-family="sans-serif" font-size="14" lengthAdjust="spacing" textLength="126.7246" x="26.5" y="181.5264">Azione(String, int)</text><ellipse cx="17.5" cy="194.4766" fill="#84BE84" rx="3" ry="3" style="stroke:#038048;stroke-width:1.0;"/><text fill="#000000" font-family="sans-serif" font-size="14" lengthAdjust="spacing" textLength="112" x="26.5" y="197.8232">societ&#224;(): String</text><ellipse cx="17.5" cy="210.7734" fill="#84BE84" rx="3" ry="3" style="stroke:#038048;stroke-width:1.0;"/><text fill="#000000" font-family="sans-serif" font-size="14" lengthAdjust="spacing" textLength="84.8613" x="26.5" y="214.1201">prezzo(): int</text></g></a><!--class java.lang.Record--><a href="https://docs.oracle.com/en/java/javase/21/docs/api/java.base/java/lang/Record.html?is-external=true" target="_top" title="https://docs.oracle.com/en/java/javase/21/docs/api/java.base/java/lang/Record.html?is-external=true" xlink:actuate="onRequest" xlink:href="https://docs.oracle.com/en/java/javase/21/docs/api/java.base/java/lang/Record.html?is-external=true" xlink:show="new" xlink:title="https://docs.oracle.com/en/java/javase/21/docs/api/java.base/java/lang/Record.html?is-external=true" xlink:type="simple"><g id="elem_java.lang.Record"><rect codeLine="15" fill="#F1F1F1" height="37.9375" id="java.lang.Record" rx="2.5" ry="2.5" style="stroke:#181818;stroke-width:0.5;" width="81.2461" x="6" y="12"/><ellipse cx="21" cy="30.9688" fill="#A9DCDF" rx="11" ry="11" style="stroke:#181818;stroke-width:1.0;"/><path d="M21.1094,26.3125 L19.9531,31.3906 L22.2813,31.3906 L21.1094,26.3125 Z M19.625,24.0781 L22.6094,24.0781 L25.9688,36.4688 L23.5156,36.4688 L22.75,33.4063 L19.4688,33.4063 L18.7188,36.4688 L16.2813,36.4688 L19.625,24.0781 Z " fill="#000000"/><text fill="#000000" font-family="sans-serif" font-size="14" font-style="italic" lengthAdjust="spacing" textLength="49.2461" x="35" y="29.9951">Record</text><text fill="#000000" font-family="sans-serif" font-size="10" font-style="italic" lengthAdjust="spacing" textLength="45.7227" x="36.7617" y="42.5791">java.lang</text></g></a><!--class it.unimi.di.prog2.h13.PortafoglioAzionario--><a href="PortafoglioAzionario.html" target="_top" title="PortafoglioAzionario.html" xlink:actuate="onRequest" xlink:href="PortafoglioAzionario.html" xlink:show="new" xlink:title="PortafoglioAzionario.html" xlink:type="simple"><g id="elem_it.unimi.di.prog2.h13.PortafoglioAzionario"><rect codeLine="16" fill="#F1F1F1" height="37.9375" id="it.unimi.di.prog2.h13.PortafoglioAzionario" rx="2.5" ry="2.5" style="stroke:#181818;stroke-width:0.5;" width="172.6016" x="105" y="12"/><ellipse cx="120" cy="30.9688" fill="#ADD1B2" rx="11" ry="11" style="stroke:#181818;stroke-width:1.0;"/><path d="M122.9688,36.6094 Q122.3906,36.9063 121.75,37.0469 Q121.1094,37.2031 120.4063,37.2031 Q117.9063,37.2031 116.5781,35.5625 Q115.2656,33.9063 115.2656,30.7813 Q115.2656,27.6563 116.5781,26 Q117.9063,24.3438 120.4063,24.3438 Q121.1094,24.3438 121.75,24.5 Q122.4063,24.6563 122.9688,24.9531 L122.9688,27.6719 Q122.3438,27.0938 121.75,26.8281 Q121.1563,26.5469 120.5313,26.5469 Q119.1875,26.5469 118.5,27.625 Q117.8125,28.6875 117.8125,30.7813 Q117.8125,32.875 118.5,33.9531 Q119.1875,35.0156 120.5313,35.0156 Q121.1563,35.0156 121.75,34.75 Q122.3438,34.4688 122.9688,33.8906 L122.9688,36.6094 Z " fill="#000000"/><text fill="#000000" font-family="sans-serif" font-size="14" lengthAdjust="spacing" textLength="140.6016" x="134" y="29.9951">PortafoglioAzionario</text><text fill="#000000" font-family="sans-serif" font-size="10" lengthAdjust="spacing" textLength="104.8633" x="151.8691" y="42.5791">it.unimi.di.prog2.h13</text></g></a><polygon fill="none" points="57.2791,50.0401,61.3611,68.5694,71.6624,62.4143,57.2791,50.0401" style="stroke:#181818;stroke-width:1.0;"/><path d="M66.5117,65.4919 C72.357,75.2745 70.7523,72.5889 78.6303,85.7736 " fill="none" style="stroke:#181818;stroke-width:1.0;"/><ellipse cx="176.426" cy="56.8824" fill="#FFFFFF" rx="8" ry="8" style="stroke:#181818;stroke-width:1.0;"/><line style="stroke:#181818;stroke-width:1.0;" x1="172.2809" x2="180.5712" y1="63.7248" y2="50.0401"/><line style="stroke:#181818;stroke-width:1.0;" x1="169.5837" x2="183.2684" y1="52.7373" y2="61.0276"/><path d="M172.2809,63.7248 C166.3544,73.5074 166.9109,72.5889 158.9235,85.7736 " fill="none" style="stroke:#181818;stroke-width:1.0;"/><text fill="#888888" font-family="sans-serif" font-size="10" lengthAdjust="spacing" textLength="3.1787" x="136.9106" y="224.2822">&#160;</text><text fill="#888888" font-family="sans-serif" font-size="10" lengthAdjust="spacing" textLength="183.0908" x="46.9546" y="235.9229">UMLDoclet 2.2.0, PlantUML 1.2024.6</text><!--SRC=[hPBTJi9048NlUOhHn0G2R06z8eWnyL8J8_4AkHZReLtJxZIxWn7KT_5TV36tM_yYIiJOY_wSS_frzqm107PAYsc1aEEI5mAk8463ZOQtm960mO9SYJ5Dg4IBmXOC6mf-fXC2AafPmbnJdhYlgeTbxEMWnpaw1xiZfrSqx1-CpzaApZdDDH-lD1kqcbMueolpckgDjQY5qOLMYLQbvNIWilx-Bg23RnsrWGhJwGPNPLBaindSXyLMHzTnh4cUduOm4QjD-k6KbbOh7e8syYwsQqwppdOgh_LXlh6QhJLQkwPLpXlliQuChvrOZ6MjkmkAsIQVQhh1MrGvcZHKy_wawg3VUIPIkc4K9HmxnHwQaugvYCX4LJgS74M3VaX4MEeWgUjA3OcA5zMyqDMHTbsw4x86yqEn2vhDVZtdVnxmJvEjHrftkTR9wA7RtVud2gmjLjR-yqTYChvSc3DNbojpUNPwmdvi0WCrKBqEdFlTY5TXxvQiy-yrMoy0]--></g></svg>