<svg xmlns="http://www.w3.org/2000/svg" xmlns:xlink="http://www.w3.org/1999/xlink" contentStyleType="text/css" height="287px" preserveAspectRatio="none" style="width:237px;height:287px;background:#FFFFFF;" version="1.1" viewBox="0 0 237 287" width="237px" zoomAndPan="magnify"><defs/><g><!--class it.unimi.di.prog2.h14.IntGenerator--><a href="IntGenerator.html" target="_top" title="IntGenerator.html" xlink:actuate="onRequest" xlink:href="IntGenerator.html" xlink:show="new" xlink:title="IntGenerator.html" xlink:type="simple"><g id="elem_it.unimi.di.prog2.h14.IntGenerator"><rect codeLine="7" fill="#F1F1F1" height="135.4219" id="it.unimi.di.prog2.h14.IntGenerator" rx="2.5" ry="2.5" style="stroke:#181818;stroke-width:0.5;" width="224.8027" x="6" y="127"/><ellipse cx="61.7197" cy="145.9688" fill="#ADD1B2" rx="11" ry="11" style="stroke:#181818;stroke-width:1.0;"/><path d="M64.6885,151.6094 Q64.1104,151.9063 63.4697,152.0469 Q62.8291,152.2031 62.126,152.2031 Q59.626,152.2031 58.2979,150.5625 Q56.9854,148.9063 56.9854,145.7813 Q56.9854,142.6563 58.2979,141 Q59.626,139.3438 62.126,139.3438 Q62.8291,139.3438 63.4697,139.5 Q64.126,139.6563 64.6885,139.9531 L64.6885,142.6719 Q64.0635,142.0938 63.4697,141.8281 Q62.876,141.5469 62.251,141.5469 Q60.9072,141.5469 60.2197,142.625 Q59.5322,143.6875 59.5322,145.7813 Q59.5322,147.875 60.2197,148.9531 Q60.9072,150.0156 62.251,150.0156 Q62.876,150.0156 63.4697,149.75 Q64.0635,149.4688 64.6885,148.8906 L64.6885,151.6094 Z " fill="#000000"/><text fill="#000000" font-family="sans-serif" font-size="14" lengthAdjust="spacing" textLength="89.585" x="89.8589" y="144.9951">IntGenerator</text><text fill="#000000" font-family="sans-serif" font-size="10" lengthAdjust="spacing" textLength="104.8633" x="82.2197" y="157.5791">it.unimi.di.prog2.h14</text><line style="stroke:#181818;stroke-width:0.5;" x1="7" x2="229.8027" y1="164.9375" y2="164.9375"/><rect fill="none" height="6" style="stroke:#C82930;stroke-width:1.0;" width="6" x="14" y="175.5859"/><text fill="#000000" font-family="sans-serif" font-size="14" lengthAdjust="spacing" textLength="127.2578" x="26" y="181.9326">els: List&lt;Integer&gt;</text><rect fill="none" height="6" style="stroke:#C82930;stroke-width:1.0;" width="6" x="14" y="191.8828"/><text fill="#000000" font-family="sans-serif" font-size="14" lengthAdjust="spacing" textLength="48.4805" x="26" y="198.2295">idx: int</text><line style="stroke:#181818;stroke-width:0.5;" x1="7" x2="229.8027" y1="205.5313" y2="205.5313"/><ellipse cx="17" cy="219.1797" fill="#84BE84" rx="3" ry="3" style="stroke:#038048;stroke-width:1.0;"/><text fill="#000000" font-family="sans-serif" font-size="14" lengthAdjust="spacing" textLength="198.8027" x="26" y="222.5264">IntGenerator(List&lt;Integer&gt;)</text><ellipse cx="17" cy="235.4766" fill="#84BE84" rx="3" ry="3" style="stroke:#038048;stroke-width:1.0;"/><text fill="#000000" font-family="sans-serif" font-size="14" lengthAdjust="spacing" textLength="133.6699" x="26" y="238.8232">hasNext(): boolean</text><ellipse cx="17" cy="251.7734" fill="#84BE84" rx="3" ry="3" style="stroke:#038048;stroke-width:1.0;"/><text fill="#000000" font-family="sans-serif" font-size="14" lengthAdjust="spacing" textLength="101.7119" x="26" y="255.1201">next(): Integer</text></g></a><!--class java.util.Iterator--><a href="https://docs.oracle.com/en/java/javase/21/docs/api/java.base/java/util/Iterator.html?is-external=true" target="_top" title="https://docs.oracle.com/en/java/javase/21/docs/api/java.base/java/util/Iterator.html?is-external=true" xlink:actuate="onRequest" xlink:href="https://docs.oracle.com/en/java/javase/21/docs/api/java.base/java/util/Iterator.html?is-external=true" xlink:show="new" xlink:title="https://docs.oracle.com/en/java/javase/21/docs/api/java.base/java/util/Iterator.html?is-external=true" xlink:type="simple"><g id="elem_java.util.Iterator"><rect codeLine="15" fill="#F1F1F1" height="78.5313" id="java.util.Iterator" rx="2.5" ry="2.5" style="stroke:#181818;stroke-width:0.5;" width="159.6699" x="38.5" y="12"/><ellipse cx="66.1571" cy="30.9688" fill="#B4A7E5" rx="11" ry="11" style="stroke:#181818;stroke-width:1.0;"/><path d="M62.079,26.7344 L62.079,24.5781 L69.4696,24.5781 L69.4696,26.7344 L67.0009,26.7344 L67.0009,34.8125 L69.4696,34.8125 L69.4696,36.9688 L62.079,36.9688 L62.079,34.8125 L64.5478,34.8125 L64.5478,26.7344 L62.079,26.7344 Z " fill="#000000"/><text fill="#000000" font-family="sans-serif" font-size="14" font-style="italic" lengthAdjust="spacing" textLength="52.377" x="82.9698" y="29.9951">Iterator</text><text fill="#000000" font-family="sans-serif" font-size="10" font-style="italic" lengthAdjust="spacing" textLength="39.9463" x="89.1852" y="42.5791">java.util</text><rect fill="#FFFFFF" height="15.9688" style="stroke:#181818;stroke-width:1.0;stroke-dasharray:2.0,2.0;" width="45.166" x="156.0039" y="9"/><text fill="#000000" font-family="sans-serif" font-size="12" font-style="italic" lengthAdjust="spacing" textLength="43.166" x="157.0039" y="21.1387">Integer</text><line style="stroke:#181818;stroke-width:0.5;" x1="39.5" x2="197.1699" y1="49.9375" y2="49.9375"/><ellipse cx="49.5" cy="63.5859" fill="#84BE84" rx="3" ry="3" style="stroke:#038048;stroke-width:1.0;"/><text fill="#000000" font-family="sans-serif" font-size="14" font-style="italic" lengthAdjust="spacing" textLength="133.6699" x="58.5" y="66.9326">hasNext(): boolean</text><ellipse cx="49.5" cy="79.8828" fill="#84BE84" rx="3" ry="3" style="stroke:#038048;stroke-width:1.0;"/><text fill="#000000" font-family="sans-serif" font-size="14" font-style="italic" lengthAdjust="spacing" textLength="101.7119" x="58.5" y="83.2295">next(): Integer</text></g></a><polygon fill="none" points="118.5,91.0289,112.5,109.0289,124.5,109.0289,118.5,91.0289" style="stroke:#181818;stroke-width:1.0;"/><path d="M118.5,109.0289 C118.5,120.118 118.5,114.5461 118.5,126.8194 " fill="none" style="stroke:#181818;stroke-width:1.0;stroke-dasharray:7.0,7.0;"/><text fill="#888888" font-family="sans-serif" font-size="10" lengthAdjust="spacing" textLength="3.1787" x="113.4106" y="265.2822">&#160;</text><text fill="#888888" font-family="sans-serif" font-size="10" lengthAdjust="spacing" textLength="183.0908" x="23.4546" y="276.9229">UMLDoclet 2.2.0, PlantUML 1.2024.6</text><!--SRC=[ZP9FJy904CNlVegHn0IYReLmQX0l9iO4ZOdn91o6Tg1hjhlDpa3mttTtko8KCSGUsknxCsywlnO0uBZoE2yH3BwwXG2N96Znw2XOm2HWiIIkCAD7gj2ZE0_MMOf-eNC2AYjvXPaca_DlDOGLBiXHpmmoGsl0-etIRdzuQ-M6BCNCiLtB5qCjQc5rgLMkLUNTlAUARhy5oF2devenyFpSFAf2IZEPm7kSNr_dP3Y5aMOPX4AQanzkFPslKj1MDiffCwozqzNP5XN8zxIITYU5gNE6q6uzkpRMRT7u_COH1f6V1R1D9BA7umMNg1QYJKImEQcVqiqRXTqBaOhJ9CbTnifvp0ofp9K9sQHkZ3UcfDUD5GbMEafgMgkneevEVg8ZlYlDvs49yXRDfVW5xV1ynobB62IV1paqomuWsTyE1XzA_UF3V_zWL2E5cNFrOsoVxaRNBZ0GwAcUkZY31uDMWWedI_AidMrtlW00]--></g></svg>