<svg xmlns="http://www.w3.org/2000/svg" xmlns:xlink="http://www.w3.org/1999/xlink" contentStyleType="text/css" height="368px" preserveAspectRatio="none" style="width:237px;height:368px;background:#FFFFFF;" version="1.1" viewBox="0 0 237 368" width="237px" zoomAndPan="magnify"><defs/><g><!--class it.unimi.di.prog2.h14.IntSet--><a href="IntSet.html" target="_top" title="IntSet.html" xlink:actuate="onRequest" xlink:href="IntSet.html" xlink:show="new" xlink:title="IntSet.html" xlink:type="simple"><g id="elem_it.unimi.di.prog2.h14.IntSet"><rect codeLine="7" fill="#F1F1F1" height="233.2031" id="it.unimi.di.prog2.h14.IntSet" rx="2.5" ry="2.5" style="stroke:#181818;stroke-width:0.5;" width="224.4268" x="6" y="110"/><ellipse cx="61.5317" cy="128.9688" fill="#ADD1B2" rx="11" ry="11" style="stroke:#181818;stroke-width:1.0;"/><path d="M64.5005,134.6094 Q63.9224,134.9063 63.2817,135.0469 Q62.6411,135.2031 61.938,135.2031 Q59.438,135.2031 58.1099,133.5625 Q56.7974,131.9063 56.7974,128.7813 Q56.7974,125.6563 58.1099,124 Q59.438,122.3438 61.938,122.3438 Q62.6411,122.3438 63.2817,122.5 Q63.938,122.6563 64.5005,122.9531 L64.5005,125.6719 Q63.8755,125.0938 63.2817,124.8281 Q62.688,124.5469 62.063,124.5469 Q60.7192,124.5469 60.0317,125.625 Q59.3442,126.6875 59.3442,128.7813 Q59.3442,130.875 60.0317,131.9531 Q60.7192,133.0156 62.063,133.0156 Q62.688,133.0156 63.2817,132.75 Q63.8755,132.4688 64.5005,131.8906 L64.5005,134.6094 Z " fill="#000000"/><text fill="#000000" font-family="sans-serif" font-size="14" lengthAdjust="spacing" textLength="41.4805" x="113.7231" y="127.9951">IntSet</text><text fill="#000000" font-family="sans-serif" font-size="10" lengthAdjust="spacing" textLength="104.8633" x="82.0317" y="140.5791">it.unimi.di.prog2.h14</text><line style="stroke:#181818;stroke-width:0.5;" x1="7" x2="229.4268" y1="147.9375" y2="147.9375"/><rect fill="none" height="6" style="stroke:#C82930;stroke-width:1.0;" width="6" x="14" y="158.5859"/><text fill="#000000" font-family="sans-serif" font-size="14" lengthAdjust="spacing" textLength="127.2578" x="26" y="164.9326">els: List&lt;Integer&gt;</text><line style="stroke:#181818;stroke-width:0.5;" x1="7" x2="229.4268" y1="172.2344" y2="172.2344"/><ellipse cx="17" cy="185.8828" fill="#84BE84" rx="3" ry="3" style="stroke:#038048;stroke-width:1.0;"/><text fill="#000000" font-family="sans-serif" font-size="14" lengthAdjust="spacing" textLength="52.4043" x="26" y="189.2295">IntSet()</text><ellipse cx="17" cy="202.1797" fill="#84BE84" rx="3" ry="3" style="stroke:#038048;stroke-width:1.0;"/><text fill="#000000" font-family="sans-serif" font-size="14" lengthAdjust="spacing" textLength="93.8848" x="26" y="205.5264">IntSet(IntSet)</text><rect fill="#F24D5C" height="6" style="stroke:#C82930;stroke-width:1.0;" width="6" x="14" y="215.4766"/><text fill="#000000" font-family="sans-serif" font-size="14" lengthAdjust="spacing" textLength="118.3711" x="26" y="221.8232">getIndex(int): int</text><ellipse cx="17" cy="234.7734" fill="#84BE84" rx="3" ry="3" style="stroke:#038048;stroke-width:1.0;"/><text fill="#000000" font-family="sans-serif" font-size="14" lengthAdjust="spacing" textLength="107.8848" x="26" y="238.1201">insert(int): void</text><ellipse cx="17" cy="251.0703" fill="#84BE84" rx="3" ry="3" style="stroke:#038048;stroke-width:1.0;"/><text fill="#000000" font-family="sans-serif" font-size="14" lengthAdjust="spacing" textLength="121.4404" x="26" y="254.417">remove(int): void</text><ellipse cx="17" cy="267.3672" fill="#84BE84" rx="3" ry="3" style="stroke:#038048;stroke-width:1.0;"/><text fill="#000000" font-family="sans-serif" font-size="14" lengthAdjust="spacing" textLength="118.501" x="26" y="270.7139">isIn(int): boolean</text><ellipse cx="17" cy="283.6641" fill="#84BE84" rx="3" ry="3" style="stroke:#038048;stroke-width:1.0;"/><text fill="#000000" font-family="sans-serif" font-size="14" lengthAdjust="spacing" textLength="65.4883" x="26" y="287.0107">size(): int</text><ellipse cx="17" cy="299.9609" fill="#84BE84" rx="3" ry="3" style="stroke:#038048;stroke-width:1.0;"/><text fill="#000000" font-family="sans-serif" font-size="14" lengthAdjust="spacing" textLength="87.9512" x="26" y="303.3076">choose(): int</text><ellipse cx="17" cy="316.2578" fill="#84BE84" rx="3" ry="3" style="stroke:#038048;stroke-width:1.0;"/><text fill="#000000" font-family="sans-serif" font-size="14" lengthAdjust="spacing" textLength="198.4268" x="26" y="319.6045">iterator(): Iterator&lt;Integer&gt;</text><rect fill="#F24D5C" height="6" style="stroke:#C82930;stroke-width:1.0;" width="6" x="14" y="329.5547"/><text fill="#000000" font-family="sans-serif" font-size="14" lengthAdjust="spacing" textLength="118.4463" x="26" y="335.9014">repOk(): boolean</text></g></a><!--class java.lang.Iterable--><a href="https://docs.oracle.com/en/java/javase/21/docs/api/java.base/java/lang/Iterable.html?is-external=true" target="_top" title="https://docs.oracle.com/en/java/javase/21/docs/api/java.base/java/lang/Iterable.html?is-external=true" xlink:actuate="onRequest" xlink:href="https://docs.oracle.com/en/java/javase/21/docs/api/java.base/java/lang/Iterable.html?is-external=true" xlink:show="new" xlink:title="https://docs.oracle.com/en/java/javase/21/docs/api/java.base/java/lang/Iterable.html?is-external=true" xlink:type="simple"><g id="elem_java.lang.Iterable"><rect codeLine="21" fill="#F1F1F1" height="62.2344" id="java.lang.Iterable" rx="2.5" ry="2.5" style="stroke:#181818;stroke-width:0.5;" width="182.6182" x="26.5" y="12"/><ellipse cx="63.7732" cy="30.9688" fill="#B4A7E5" rx="11" ry="11" style="stroke:#181818;stroke-width:1.0;"/><path d="M59.6951,26.7344 L59.6951,24.5781 L67.0857,24.5781 L67.0857,26.7344 L64.617,26.7344 L64.617,34.8125 L67.0857,34.8125 L67.0857,36.9688 L59.6951,36.9688 L59.6951,34.8125 L62.1639,34.8125 L62.1639,26.7344 L59.6951,26.7344 Z " fill="#000000"/><text fill="#000000" font-family="sans-serif" font-size="14" font-style="italic" lengthAdjust="spacing" textLength="53.9561" x="82.7229" y="29.9951">Iterable</text><text fill="#000000" font-family="sans-serif" font-size="10" font-style="italic" lengthAdjust="spacing" textLength="45.7227" x="86.8396" y="42.5791">java.lang</text><rect fill="#FFFFFF" height="15.9688" style="stroke:#181818;stroke-width:1.0;stroke-dasharray:2.0,2.0;" width="45.166" x="166.9521" y="9"/><text fill="#000000" font-family="sans-serif" font-size="12" font-style="italic" lengthAdjust="spacing" textLength="43.166" x="167.9521" y="21.1387">Integer</text><line style="stroke:#181818;stroke-width:0.5;" x1="27.5" x2="208.1182" y1="49.9375" y2="49.9375"/><ellipse cx="37.5" cy="63.5859" fill="#84BE84" rx="3" ry="3" style="stroke:#038048;stroke-width:1.0;"/><text fill="#000000" font-family="sans-serif" font-size="14" font-style="italic" lengthAdjust="spacing" textLength="156.6182" x="46.5" y="66.9326">iterator(): Iterator&lt;T&gt;</text></g></a><polygon fill="none" points="118,74.379,112,92.379,124,92.379,118,74.379" style="stroke:#181818;stroke-width:1.0;"/><path d="M118,92.379 C118,102.6724 118,96.8622 118,109.7843 " fill="none" style="stroke:#181818;stroke-width:1.0;stroke-dasharray:7.0,7.0;"/><text fill="#888888" font-family="sans-serif" font-size="10" lengthAdjust="spacing" textLength="3.1787" x="112.9106" y="346.2822">&#160;</text><text fill="#888888" font-family="sans-serif" font-size="10" lengthAdjust="spacing" textLength="183.0908" x="22.9546" y="357.9229">UMLDoclet 2.2.0, PlantUML 1.2024.6</text><!--SRC=[VL9DJzj04BtpAwP8I8vArYJY58NqmYKIg9LeJy1XOa_iBUiTQsSIGId_lUjrIDA4reVzU6_cZMVU0W1yQWDM3OB35rufI4EA7azE8WL22XuRaXOBkgCM0oe7yEmfyRKj2QXfzGMMbbmfXsWKgpd22IySYi3fLEmlcemkPtElTwGFVWDSpAoQbRUDDQKrRU1gREhHvIcWm8UCwGNW_hu_c5eRz_W8hwbQzmt9oGHkhEWqXb15ORRbFlT9sU08wRSTFgn8vxwavynw7KmWhhiSwuM2RfWrst971MfuJHzILkP-GooO7Q7VSTqqiiCoHSqinx1LIfPqn7npFcvr6AZz-fGT57lhNObw59RHttrdEgc5eprlVk8QZKDV9J-sD_CUkgqQxQXLMvdaUSc560vOE385Dpdvl4jCYr0-7gM875kR8BFeq1JHIUVlqidNBrQ6z1mHZ-vAmuh-CleL5wAnaBxzOoRVP_iz7_y-J7yRyzzdrZzXwgO5I-PkU_0_Rc-kERQdC3PZSt4EtwAgHXJErXJ4iiy6Vm00]--></g></svg>