<svg xmlns="http://www.w3.org/2000/svg" xmlns:xlink="http://www.w3.org/1999/xlink" contentStyleType="text/css" height="455px" preserveAspectRatio="none" style="width:1038px;height:455px;background:#FFFFFF;" version="1.1" viewBox="0 0 1038 455" width="1038px" zoomAndPan="magnify"><defs/><g><!--cluster it.unimi.di.prog2.h14--><g id="cluster_it.unimi.di.prog2.h14"><path d="M16.5,160 L184.96,160 A3.75,3.75 0 0 1 187.46,162.5 L194.46,182.2969 L996.5,182.2969 A2.5,2.5 0 0 1 999,184.7969 L999,419.5 A2.5,2.5 0 0 1 996.5,422 L16.5,422 A2.5,2.5 0 0 1 14,419.5 L14,162.5 A2.5,2.5 0 0 1 16.5,160 " fill="none" style="stroke:#000000;stroke-width:1.5;"/><line style="stroke:#000000;stroke-width:1.5;" x1="14" x2="194.46" y1="182.2969" y2="182.2969"/><text fill="#000000" font-family="sans-serif" font-size="14" font-weight="bold" lengthAdjust="spacing" textLength="167.46" x="18" y="174.9951">it.unimi.di.prog2.h14</text></g><!--cluster java.util--><g id="cluster_java.util"><path d="M142.5,4 L207.8945,4 A3.75,3.75 0 0 1 210.3945,6.5 L217.3945,26.2969 L517.5,26.2969 A2.5,2.5 0 0 1 520,28.7969 L520,149.5 A2.5,2.5 0 0 1 517.5,152 L142.5,152 A2.5,2.5 0 0 1 140,149.5 L140,6.5 A2.5,2.5 0 0 1 142.5,4 " fill="none" style="stroke:#000000;stroke-width:1.5;"/><line style="stroke:#000000;stroke-width:1.5;" x1="140" x2="217.3945" y1="26.2969" y2="26.2969"/><text fill="#000000" font-family="sans-serif" font-size="14" font-weight="bold" lengthAdjust="spacing" textLength="64.3945" x="144" y="18.9951">java.util</text></g><!--cluster java.lang--><g id="cluster_java.lang"><path d="M729.5,12 L802.8721,12 A3.75,3.75 0 0 1 805.3721,14.5 L812.3721,34.2969 L1028.5,34.2969 A2.5,2.5 0 0 1 1031,36.7969 L1031,141.5 A2.5,2.5 0 0 1 1028.5,144 L729.5,144 A2.5,2.5 0 0 1 727,141.5 L727,14.5 A2.5,2.5 0 0 1 729.5,12 " fill="none" style="stroke:#000000;stroke-width:1.5;"/><line style="stroke:#000000;stroke-width:1.5;" x1="727" x2="812.3721" y1="34.2969" y2="34.2969"/><text fill="#000000" font-family="sans-serif" font-size="14" font-weight="bold" lengthAdjust="spacing" textLength="72.3721" x="731" y="26.9951">java.lang</text></g><!--class Primes--><a href="Primes.html" target="_top" title="Primes.html" xlink:actuate="onRequest" xlink:href="Primes.html" xlink:show="new" xlink:title="Primes.html" xlink:type="simple"><g id="elem_Primes"><rect codeLine="6" fill="#F1F1F1" height="129.4844" id="Primes" rx="2.5" ry="2.5" style="stroke:#181818;stroke-width:0.5;" width="301.9736" x="22" y="236"/><ellipse cx="144.9204" cy="252" fill="#ADD1B2" rx="11" ry="11" style="stroke:#181818;stroke-width:1.0;"/><path d="M147.8892,257.6406 Q147.311,257.9375 146.6704,258.0781 Q146.0298,258.2344 145.3267,258.2344 Q142.8267,258.2344 141.4985,256.5938 Q140.186,254.9375 140.186,251.8125 Q140.186,248.6875 141.4985,247.0313 Q142.8267,245.375 145.3267,245.375 Q146.0298,245.375 146.6704,245.5313 Q147.3267,245.6875 147.8892,245.9844 L147.8892,248.7031 Q147.2642,248.125 146.6704,247.8594 Q146.0767,247.5781 145.4517,247.5781 Q144.1079,247.5781 143.4204,248.6563 Q142.7329,249.7188 142.7329,251.8125 Q142.7329,253.9063 143.4204,254.9844 Q144.1079,256.0469 145.4517,256.0469 Q146.0767,256.0469 146.6704,255.7813 Q147.2642,255.5 147.8892,254.9219 L147.8892,257.6406 Z " fill="#000000"/><text fill="#000000" font-family="sans-serif" font-size="14" lengthAdjust="spacing" textLength="47.6328" x="165.4204" y="256.8467">Primes</text><line style="stroke:#181818;stroke-width:0.5;" x1="23" x2="322.9736" y1="268" y2="268"/><rect fill="none" height="6" style="stroke:#C82930;stroke-width:1.0;" width="6" x="30" y="278.6484"/><text fill="#000000" font-family="sans-serif" font-size="14" lengthAdjust="spacing" textLength="96.9131" x="42" y="284.9951">candidate: int</text><rect fill="none" height="6" style="stroke:#C82930;stroke-width:1.0;" width="6" x="30" y="294.9453"/><text fill="#000000" font-family="sans-serif" font-size="14" lengthAdjust="spacing" textLength="195.2207" x="42" y="301.292">foundPrimes: List&lt;Integer&gt;</text><line style="stroke:#181818;stroke-width:0.5;" x1="23" x2="322.9736" y1="308.5938" y2="308.5938"/><ellipse cx="33" cy="322.2422" fill="#84BE84" rx="3" ry="3" style="stroke:#038048;stroke-width:1.0;"/><text fill="#000000" font-family="sans-serif" font-size="14" lengthAdjust="spacing" textLength="133.6699" x="42" y="325.5889">hasNext(): boolean</text><rect fill="#F24D5C" height="6" style="stroke:#C82930;stroke-width:1.0;" width="6" x="30" y="335.5391"/><text fill="#000000" font-family="sans-serif" font-size="14" lengthAdjust="spacing" textLength="275.9736" x="42" y="341.8857">isDivisibleByAFoundPrime(int): boolean</text><ellipse cx="33" cy="354.8359" fill="#84BE84" rx="3" ry="3" style="stroke:#038048;stroke-width:1.0;"/><text fill="#000000" font-family="sans-serif" font-size="14" lengthAdjust="spacing" textLength="101.7119" x="42" y="358.1826">next(): Integer</text></g></a><!--class IntSetsClient--><a href="IntSetsClient.html" target="_top" title="IntSetsClient.html" xlink:actuate="onRequest" xlink:href="IntSetsClient.html" xlink:show="new" xlink:title="IntSetsClient.html" xlink:type="simple"><g id="elem_IntSetsClient"><rect codeLine="14" fill="#F1F1F1" height="64.2969" id="IntSetsClient" rx="2.5" ry="2.5" style="stroke:#181818;stroke-width:0.5;" width="163.4023" x="585.5" y="268.5"/><ellipse cx="619.4439" cy="284.5" fill="#ADD1B2" rx="11" ry="11" style="stroke:#181818;stroke-width:1.0;"/><path d="M622.4127,290.1406 Q621.8346,290.4375 621.1939,290.5781 Q620.5533,290.7344 619.8502,290.7344 Q617.3502,290.7344 616.0221,289.0938 Q614.7096,287.4375 614.7096,284.3125 Q614.7096,281.1875 616.0221,279.5313 Q617.3502,277.875 619.8502,277.875 Q620.5533,277.875 621.1939,278.0313 Q621.8502,278.1875 622.4127,278.4844 L622.4127,281.2031 Q621.7877,280.625 621.1939,280.3594 Q620.6002,280.0781 619.9752,280.0781 Q618.6314,280.0781 617.9439,281.1563 Q617.2564,282.2188 617.2564,284.3125 Q617.2564,286.4063 617.9439,287.4844 Q618.6314,288.5469 619.9752,288.5469 Q620.6002,288.5469 621.1939,288.2813 Q621.7877,288 622.4127,287.4219 L622.4127,290.1406 Z " fill="#000000"/><text fill="#000000" font-family="sans-serif" font-size="14" lengthAdjust="spacing" textLength="89.3047" x="637.6537" y="289.3467">IntSetsClient</text><line style="stroke:#181818;stroke-width:0.5;" x1="586.5" x2="747.9023" y1="300.5" y2="300.5"/><line style="stroke:#181818;stroke-width:0.5;" x1="586.5" x2="747.9023" y1="308.5" y2="308.5"/><ellipse cx="596.5" cy="322.1484" fill="#84BE84" rx="3" ry="3" style="stroke:#038048;stroke-width:1.0;"/><text fill="#000000" font-family="sans-serif" font-size="14" lengthAdjust="spacing" text-decoration="underline" textLength="137.4023" x="605.5" y="325.4951">main(String[]): void</text></g></a><!--class IntGenerator--><a href="IntGenerator.html" target="_top" title="IntGenerator.html" xlink:actuate="onRequest" xlink:href="IntGenerator.html" xlink:show="new" xlink:title="IntGenerator.html" xlink:type="simple"><g id="elem_IntGenerator"><rect codeLine="18" fill="#F1F1F1" height="129.4844" id="IntGenerator" rx="2.5" ry="2.5" style="stroke:#181818;stroke-width:0.5;" width="224.8027" x="342.5" y="236"/><ellipse cx="405.8589" cy="252" fill="#ADD1B2" rx="11" ry="11" style="stroke:#181818;stroke-width:1.0;"/><path d="M408.8276,257.6406 Q408.2495,257.9375 407.6089,258.0781 Q406.9683,258.2344 406.2651,258.2344 Q403.7651,258.2344 402.437,256.5938 Q401.1245,254.9375 401.1245,251.8125 Q401.1245,248.6875 402.437,247.0313 Q403.7651,245.375 406.2651,245.375 Q406.9683,245.375 407.6089,245.5313 Q408.2651,245.6875 408.8276,245.9844 L408.8276,248.7031 Q408.2026,248.125 407.6089,247.8594 Q407.0151,247.5781 406.3901,247.5781 Q405.0464,247.5781 404.3589,248.6563 Q403.6714,249.7188 403.6714,251.8125 Q403.6714,253.9063 404.3589,254.9844 Q405.0464,256.0469 406.3901,256.0469 Q407.0151,256.0469 407.6089,255.7813 Q408.2026,255.5 408.8276,254.9219 L408.8276,257.6406 Z " fill="#000000"/><text fill="#000000" font-family="sans-serif" font-size="14" lengthAdjust="spacing" textLength="89.585" x="426.3589" y="256.8467">IntGenerator</text><line style="stroke:#181818;stroke-width:0.5;" x1="343.5" x2="566.3027" y1="268" y2="268"/><rect fill="none" height="6" style="stroke:#C82930;stroke-width:1.0;" width="6" x="350.5" y="278.6484"/><text fill="#000000" font-family="sans-serif" font-size="14" lengthAdjust="spacing" textLength="127.2578" x="362.5" y="284.9951">els: List&lt;Integer&gt;</text><rect fill="none" height="6" style="stroke:#C82930;stroke-width:1.0;" width="6" x="350.5" y="294.9453"/><text fill="#000000" font-family="sans-serif" font-size="14" lengthAdjust="spacing" textLength="48.4805" x="362.5" y="301.292">idx: int</text><line style="stroke:#181818;stroke-width:0.5;" x1="343.5" x2="566.3027" y1="308.5938" y2="308.5938"/><ellipse cx="353.5" cy="322.2422" fill="#84BE84" rx="3" ry="3" style="stroke:#038048;stroke-width:1.0;"/><text fill="#000000" font-family="sans-serif" font-size="14" lengthAdjust="spacing" textLength="198.8027" x="362.5" y="325.5889">IntGenerator(List&lt;Integer&gt;)</text><ellipse cx="353.5" cy="338.5391" fill="#84BE84" rx="3" ry="3" style="stroke:#038048;stroke-width:1.0;"/><text fill="#000000" font-family="sans-serif" font-size="14" lengthAdjust="spacing" textLength="133.6699" x="362.5" y="341.8857">hasNext(): boolean</text><ellipse cx="353.5" cy="354.8359" fill="#84BE84" rx="3" ry="3" style="stroke:#038048;stroke-width:1.0;"/><text fill="#000000" font-family="sans-serif" font-size="14" lengthAdjust="spacing" textLength="101.7119" x="362.5" y="358.1826">next(): Integer</text></g></a><!--class IntSet--><a href="IntSet.html" target="_top" title="IntSet.html" xlink:actuate="onRequest" xlink:href="IntSet.html" xlink:show="new" xlink:title="IntSet.html" xlink:type="simple"><g id="elem_IntSet"><rect codeLine="26" fill="#F1F1F1" height="227.2656" id="IntSet" rx="2.5" ry="2.5" style="stroke:#181818;stroke-width:0.5;" width="224.4268" x="767" y="187"/><ellipse cx="854.2231" cy="203" fill="#ADD1B2" rx="11" ry="11" style="stroke:#181818;stroke-width:1.0;"/><path d="M857.1919,208.6406 Q856.6138,208.9375 855.9731,209.0781 Q855.3325,209.2344 854.6294,209.2344 Q852.1294,209.2344 850.8013,207.5938 Q849.4888,205.9375 849.4888,202.8125 Q849.4888,199.6875 850.8013,198.0313 Q852.1294,196.375 854.6294,196.375 Q855.3325,196.375 855.9731,196.5313 Q856.6294,196.6875 857.1919,196.9844 L857.1919,199.7031 Q856.5669,199.125 855.9731,198.8594 Q855.3794,198.5781 854.7544,198.5781 Q853.4106,198.5781 852.7231,199.6563 Q852.0356,200.7188 852.0356,202.8125 Q852.0356,204.9063 852.7231,205.9844 Q853.4106,207.0469 854.7544,207.0469 Q855.3794,207.0469 855.9731,206.7813 Q856.5669,206.5 857.1919,205.9219 L857.1919,208.6406 Z " fill="#000000"/><text fill="#000000" font-family="sans-serif" font-size="14" lengthAdjust="spacing" textLength="41.4805" x="874.7231" y="207.8467">IntSet</text><line style="stroke:#181818;stroke-width:0.5;" x1="768" x2="990.4268" y1="219" y2="219"/><rect fill="none" height="6" style="stroke:#C82930;stroke-width:1.0;" width="6" x="775" y="229.6484"/><text fill="#000000" font-family="sans-serif" font-size="14" lengthAdjust="spacing" textLength="127.2578" x="787" y="235.9951">els: List&lt;Integer&gt;</text><line style="stroke:#181818;stroke-width:0.5;" x1="768" x2="990.4268" y1="243.2969" y2="243.2969"/><ellipse cx="778" cy="256.9453" fill="#84BE84" rx="3" ry="3" style="stroke:#038048;stroke-width:1.0;"/><text fill="#000000" font-family="sans-serif" font-size="14" lengthAdjust="spacing" textLength="52.4043" x="787" y="260.292">IntSet()</text><ellipse cx="778" cy="273.2422" fill="#84BE84" rx="3" ry="3" style="stroke:#038048;stroke-width:1.0;"/><text fill="#000000" font-family="sans-serif" font-size="14" lengthAdjust="spacing" textLength="93.8848" x="787" y="276.5889">IntSet(IntSet)</text><rect fill="#F24D5C" height="6" style="stroke:#C82930;stroke-width:1.0;" width="6" x="775" y="286.5391"/><text fill="#000000" font-family="sans-serif" font-size="14" lengthAdjust="spacing" textLength="118.3711" x="787" y="292.8857">getIndex(int): int</text><ellipse cx="778" cy="305.8359" fill="#84BE84" rx="3" ry="3" style="stroke:#038048;stroke-width:1.0;"/><text fill="#000000" font-family="sans-serif" font-size="14" lengthAdjust="spacing" textLength="107.8848" x="787" y="309.1826">insert(int): void</text><ellipse cx="778" cy="322.1328" fill="#84BE84" rx="3" ry="3" style="stroke:#038048;stroke-width:1.0;"/><text fill="#000000" font-family="sans-serif" font-size="14" lengthAdjust="spacing" textLength="121.4404" x="787" y="325.4795">remove(int): void</text><ellipse cx="778" cy="338.4297" fill="#84BE84" rx="3" ry="3" style="stroke:#038048;stroke-width:1.0;"/><text fill="#000000" font-family="sans-serif" font-size="14" lengthAdjust="spacing" textLength="118.501" x="787" y="341.7764">isIn(int): boolean</text><ellipse cx="778" cy="354.7266" fill="#84BE84" rx="3" ry="3" style="stroke:#038048;stroke-width:1.0;"/><text fill="#000000" font-family="sans-serif" font-size="14" lengthAdjust="spacing" textLength="65.4883" x="787" y="358.0732">size(): int</text><ellipse cx="778" cy="371.0234" fill="#84BE84" rx="3" ry="3" style="stroke:#038048;stroke-width:1.0;"/><text fill="#000000" font-family="sans-serif" font-size="14" lengthAdjust="spacing" textLength="87.9512" x="787" y="374.3701">choose(): int</text><ellipse cx="778" cy="387.3203" fill="#84BE84" rx="3" ry="3" style="stroke:#038048;stroke-width:1.0;"/><text fill="#000000" font-family="sans-serif" font-size="14" lengthAdjust="spacing" textLength="198.4268" x="787" y="390.667">iterator(): Iterator&lt;Integer&gt;</text><rect fill="#F24D5C" height="6" style="stroke:#C82930;stroke-width:1.0;" width="6" x="775" y="400.6172"/><text fill="#000000" font-family="sans-serif" font-size="14" lengthAdjust="spacing" textLength="118.4463" x="787" y="406.9639">repOk(): boolean</text></g></a><!--class Iterator--><a href="https://docs.oracle.com/en/java/javase/21/docs/api/java.base/java/util/Iterator.html?is-external=true" target="_top" title="https://docs.oracle.com/en/java/javase/21/docs/api/java.base/java/util/Iterator.html?is-external=true" xlink:actuate="onRequest" xlink:href="https://docs.oracle.com/en/java/javase/21/docs/api/java.base/java/util/Iterator.html?is-external=true" xlink:show="new" xlink:title="https://docs.oracle.com/en/java/javase/21/docs/api/java.base/java/util/Iterator.html?is-external=true" xlink:type="simple"><g id="elem_Iterator"><rect codeLine="43" fill="#F1F1F1" height="113.1875" id="Iterator" rx="2.5" ry="2.5" style="stroke:#181818;stroke-width:0.5;" width="363.3809" x="148.5" y="31"/><ellipse cx="293.9609" cy="47" fill="#B4A7E5" rx="11" ry="11" style="stroke:#181818;stroke-width:1.0;"/><path d="M289.8828,42.7656 L289.8828,40.6094 L297.2734,40.6094 L297.2734,42.7656 L294.8047,42.7656 L294.8047,50.8438 L297.2734,50.8438 L297.2734,53 L289.8828,53 L289.8828,50.8438 L292.3516,50.8438 L292.3516,42.7656 L289.8828,42.7656 Z " fill="#000000"/><text fill="#000000" font-family="sans-serif" font-size="14" font-style="italic" lengthAdjust="spacing" textLength="52.377" x="314.4609" y="51.8467">Iterator</text><rect fill="#FFFFFF" height="15.9688" style="stroke:#181818;stroke-width:1.0;stroke-dasharray:2.0,2.0;" width="9.582" x="505.2988" y="28"/><text fill="#000000" font-family="sans-serif" font-size="12" font-style="italic" lengthAdjust="spacing" textLength="7.582" x="506.2988" y="40.1387">E</text><line style="stroke:#181818;stroke-width:0.5;" x1="149.5" x2="510.8809" y1="63" y2="63"/><line style="stroke:#181818;stroke-width:0.5;" x1="149.5" x2="510.8809" y1="71" y2="71"/><ellipse cx="159.5" cy="84.6484" fill="#84BE84" rx="3" ry="3" style="stroke:#038048;stroke-width:1.0;"/><text fill="#000000" font-family="sans-serif" font-size="14" font-style="italic" lengthAdjust="spacing" textLength="133.6699" x="168.5" y="87.9951">hasNext(): boolean</text><ellipse cx="159.5" cy="100.9453" fill="#84BE84" rx="3" ry="3" style="stroke:#038048;stroke-width:1.0;"/><text fill="#000000" font-family="sans-serif" font-size="14" font-style="italic" lengthAdjust="spacing" textLength="60.1973" x="168.5" y="104.292">next(): E</text><ellipse cx="159.5" cy="117.2422" fill="#84BE84" rx="3" ry="3" style="stroke:#038048;stroke-width:1.0;"/><text fill="#000000" font-family="sans-serif" font-size="14" lengthAdjust="spacing" textLength="103.1885" x="168.5" y="120.5889">remove(): void</text><ellipse cx="159.5" cy="133.5391" fill="#84BE84" rx="3" ry="3" style="stroke:#038048;stroke-width:1.0;"/><text fill="#000000" font-family="sans-serif" font-size="14" lengthAdjust="spacing" textLength="337.3809" x="168.5" y="136.8857">forEachRemaining(Consumer&lt;? super E&gt;): void</text></g></a><!--class Iterable--><a href="https://docs.oracle.com/en/java/javase/21/docs/api/java.base/java/lang/Iterable.html?is-external=true" target="_top" title="https://docs.oracle.com/en/java/javase/21/docs/api/java.base/java/lang/Iterable.html?is-external=true" xlink:actuate="onRequest" xlink:href="https://docs.oracle.com/en/java/javase/21/docs/api/java.base/java/lang/Iterable.html?is-external=true" xlink:show="new" xlink:title="https://docs.oracle.com/en/java/javase/21/docs/api/java.base/java/lang/Iterable.html?is-external=true" xlink:type="simple"><g id="elem_Iterable"><rect codeLine="52" fill="#F1F1F1" height="96.8906" id="Iterable" rx="2.5" ry="2.5" style="stroke:#181818;stroke-width:0.5;" width="288.1172" x="735" y="39"/><ellipse cx="842.1655" cy="55" fill="#B4A7E5" rx="11" ry="11" style="stroke:#181818;stroke-width:1.0;"/><path d="M838.0874,50.7656 L838.0874,48.6094 L845.478,48.6094 L845.478,50.7656 L843.0093,50.7656 L843.0093,58.8438 L845.478,58.8438 L845.478,61 L838.0874,61 L838.0874,58.8438 L840.5562,58.8438 L840.5562,50.7656 L838.0874,50.7656 Z " fill="#000000"/><text fill="#000000" font-family="sans-serif" font-size="14" font-style="italic" lengthAdjust="spacing" textLength="53.9561" x="862.6655" y="59.8467">Iterable</text><rect fill="#FFFFFF" height="15.9688" style="stroke:#181818;stroke-width:1.0;stroke-dasharray:2.0,2.0;" width="9.3301" x="1016.7871" y="36"/><text fill="#000000" font-family="sans-serif" font-size="12" font-style="italic" lengthAdjust="spacing" textLength="7.3301" x="1017.7871" y="48.1387">T</text><line style="stroke:#181818;stroke-width:0.5;" x1="736" x2="1022.1172" y1="71" y2="71"/><line style="stroke:#181818;stroke-width:0.5;" x1="736" x2="1022.1172" y1="79" y2="79"/><ellipse cx="746" cy="92.6484" fill="#84BE84" rx="3" ry="3" style="stroke:#038048;stroke-width:1.0;"/><text fill="#000000" font-family="sans-serif" font-size="14" font-style="italic" lengthAdjust="spacing" textLength="156.6182" x="755" y="95.9951">iterator(): Iterator&lt;T&gt;</text><ellipse cx="746" cy="108.9453" fill="#84BE84" rx="3" ry="3" style="stroke:#038048;stroke-width:1.0;"/><text fill="#000000" font-family="sans-serif" font-size="14" lengthAdjust="spacing" textLength="262.1172" x="755" y="112.292">forEach(Consumer&lt;? super T&gt;): void</text><ellipse cx="746" cy="125.2422" fill="#84BE84" rx="3" ry="3" style="stroke:#038048;stroke-width:1.0;"/><text fill="#000000" font-family="sans-serif" font-size="14" lengthAdjust="spacing" textLength="198.1123" x="755" y="128.5889">spliterator(): Spliterator&lt;T&gt;</text></g></a><polygon fill="none" points="288.5447,144.2138,272.9859,155.073,282.6132,162.2365,288.5447,144.2138" style="stroke:#181818;stroke-width:1.0;"/><path d="M277.7996,158.6547 C256.9044,186.7368 242.2107,206.4843 220.5271,235.626 " fill="none" style="stroke:#181818;stroke-width:1.0;stroke-dasharray:7.0,7.0;"/><polygon fill="none" points="363.0058,144.2138,367.0181,162.7584,377.3424,156.6421,363.0058,144.2138" style="stroke:#181818;stroke-width:1.0;"/><path d="M372.1802,159.7002 C388.8165,187.7823 399.8959,206.4843 417.16,235.626 " fill="none" style="stroke:#181818;stroke-width:1.0;stroke-dasharray:7.0,7.0;"/><polygon fill="none" points="879,136.1156,873,154.1156,885,154.1156,879,136.1156" style="stroke:#181818;stroke-width:1.0;"/><path d="M879,154.1156 C879,169.309 879,168.8223 879,186.617 " fill="none" style="stroke:#181818;stroke-width:1.0;stroke-dasharray:7.0,7.0;"/><text fill="#888888" font-family="sans-serif" font-size="10" lengthAdjust="spacing" textLength="3.1787" x="509.4106" y="433.2822">&#160;</text><text fill="#888888" font-family="sans-serif" font-size="10" lengthAdjust="spacing" textLength="183.0908" x="419.4546" y="444.9229">UMLDoclet 2.2.0, PlantUML 1.2024.6</text><!--SRC=[hLLDRzD04BttLom794SXQnfnia8gQ0EALA0YuLHwcDWJPwYzQ-sEevQI_yxw8wbDd5QDyC7sxioyvtrlTYs44Ayo0t4A8e5xdREmAJ8eE74HOT6DCGC3h8q8WfDoDeFm5c8Kn39Nb9ACI6P6nqEvEdqd7ggauWeJi5PS6KhHYklhwaMkE4rkRboUQ5o345H44J06WXItOqkTgwYg3iGbMHvD5MECPjpAww_0ViKxzdg1M6YT8AWs3jaBMfEbHO8Vxpzysg5wZl50JL_LW3NZBhZvTvakOOPipnD2nMwrhN7teXyi0rEu4VqKI7apDgJYwnl7jjOKFKdr6HLMhfHCk-41TJ5vKha1HNVxklURm5whklSYuLyguawzurRJhugzNkTizMZ71Z7oL4LuLtV2dXAaB1gkeorpoh31LA_nO9ZiL3tLOvP-ezT56wwqjjqXujgNGjRw_O2v1hDljrtUrF9lsjlw5wn1van9GtP7ZsO98JvoJSREfXLpPWFVZtHefJOG9YX3dVge_0Acl5dqXwTbXWyPbLDoKSoM6GMHlmKj_JuZEt3zWaP1yfvDZllx1XQM7HbldcszPkgs2oUTvdKwjzHc0k7gEnORr6rExrmhcwTeHcV2vXaQCHdlRzT3eYQWuiEYkbDfDFy_eXP4_XRq254xcsi-xjHcNvBvk5DBcoLDtDdZi0dTKc_NYa6m_Gmn-YDbzwyd2Af_n56bpRFk4Q0GiWPmIZu7uCwLiZJ4mbcnrBfu_5G_lbnUQESYYw4SohTln9N3PJShNg_HMDBAw_q5]--></g></svg>