<svg xmlns="http://www.w3.org/2000/svg" xmlns:xlink="http://www.w3.org/1999/xlink" contentStyleType="text/css" height="287px" preserveAspectRatio="none" style="width:314px;height:287px;background:#FFFFFF;" version="1.1" viewBox="0 0 314 287" width="314px" zoomAndPan="magnify"><defs/><g><!--class it.unimi.di.prog2.h14.Primes--><a href="Primes.html" target="_top" title="Primes.html" xlink:actuate="onRequest" xlink:href="Primes.html" xlink:show="new" xlink:title="Primes.html" xlink:type="simple"><g id="elem_it.unimi.di.prog2.h14.Primes"><rect codeLine="7" fill="#F1F1F1" height="135.4219" id="it.unimi.di.prog2.h14.Primes" rx="2.5" ry="2.5" style="stroke:#181818;stroke-width:0.5;" width="301.9736" x="6" y="127"/><ellipse cx="100.3052" cy="145.9688" fill="#ADD1B2" rx="11" ry="11" style="stroke:#181818;stroke-width:1.0;"/><path d="M103.2739,151.6094 Q102.6958,151.9063 102.0552,152.0469 Q101.4146,152.2031 100.7114,152.2031 Q98.2114,152.2031 96.8833,150.5625 Q95.5708,148.9063 95.5708,145.7813 Q95.5708,142.6563 96.8833,141 Q98.2114,139.3438 100.7114,139.3438 Q101.4146,139.3438 102.0552,139.5 Q102.7114,139.6563 103.2739,139.9531 L103.2739,142.6719 Q102.6489,142.0938 102.0552,141.8281 Q101.4614,141.5469 100.8364,141.5469 Q99.4927,141.5469 98.8052,142.625 Q98.1177,143.6875 98.1177,145.7813 Q98.1177,147.875 98.8052,148.9531 Q99.4927,150.0156 100.8364,150.0156 Q101.4614,150.0156 102.0552,149.75 Q102.6489,149.4688 103.2739,148.8906 L103.2739,151.6094 Z " fill="#000000"/><text fill="#000000" font-family="sans-serif" font-size="14" lengthAdjust="spacing" textLength="47.6328" x="149.4204" y="144.9951">Primes</text><text fill="#000000" font-family="sans-serif" font-size="10" lengthAdjust="spacing" textLength="104.8633" x="120.8052" y="157.5791">it.unimi.di.prog2.h14</text><line style="stroke:#181818;stroke-width:0.5;" x1="7" x2="306.9736" y1="164.9375" y2="164.9375"/><rect fill="none" height="6" style="stroke:#C82930;stroke-width:1.0;" width="6" x="14" y="175.5859"/><text fill="#000000" font-family="sans-serif" font-size="14" lengthAdjust="spacing" textLength="96.9131" x="26" y="181.9326">candidate: int</text><rect fill="none" height="6" style="stroke:#C82930;stroke-width:1.0;" width="6" x="14" y="191.8828"/><text fill="#000000" font-family="sans-serif" font-size="14" lengthAdjust="spacing" textLength="195.2207" x="26" y="198.2295">foundPrimes: List&lt;Integer&gt;</text><line style="stroke:#181818;stroke-width:0.5;" x1="7" x2="306.9736" y1="205.5313" y2="205.5313"/><ellipse cx="17" cy="219.1797" fill="#84BE84" rx="3" ry="3" style="stroke:#038048;stroke-width:1.0;"/><text fill="#000000" font-family="sans-serif" font-size="14" lengthAdjust="spacing" textLength="133.6699" x="26" y="222.5264">hasNext(): boolean</text><rect fill="#F24D5C" height="6" style="stroke:#C82930;stroke-width:1.0;" width="6" x="14" y="232.4766"/><text fill="#000000" font-family="sans-serif" font-size="14" lengthAdjust="spacing" textLength="275.9736" x="26" y="238.8232">isDivisibleByAFoundPrime(int): boolean</text><ellipse cx="17" cy="251.7734" fill="#84BE84" rx="3" ry="3" style="stroke:#038048;stroke-width:1.0;"/><text fill="#000000" font-family="sans-serif" font-size="14" lengthAdjust="spacing" textLength="101.7119" x="26" y="255.1201">next(): Integer</text></g></a><!--class java.util.Iterator--><a href="https://docs.oracle.com/en/java/javase/21/docs/api/java.base/java/util/Iterator.html?is-external=true" target="_top" title="https://docs.oracle.com/en/java/javase/21/docs/api/java.base/java/util/Iterator.html?is-external=true" xlink:actuate="onRequest" xlink:href="https://docs.oracle.com/en/java/javase/21/docs/api/java.base/java/util/Iterator.html?is-external=true" xlink:show="new" xlink:title="https://docs.oracle.com/en/java/javase/21/docs/api/java.base/java/util/Iterator.html?is-external=true" xlink:type="simple"><g id="elem_java.util.Iterator"><rect codeLine="15" fill="#F1F1F1" height="78.5313" id="java.util.Iterator" rx="2.5" ry="2.5" style="stroke:#181818;stroke-width:0.5;" width="159.6699" x="77" y="12"/><ellipse cx="104.6571" cy="30.9688" fill="#B4A7E5" rx="11" ry="11" style="stroke:#181818;stroke-width:1.0;"/><path d="M100.579,26.7344 L100.579,24.5781 L107.9696,24.5781 L107.9696,26.7344 L105.5009,26.7344 L105.5009,34.8125 L107.9696,34.8125 L107.9696,36.9688 L100.579,36.9688 L100.579,34.8125 L103.0478,34.8125 L103.0478,26.7344 L100.579,26.7344 Z " fill="#000000"/><text fill="#000000" font-family="sans-serif" font-size="14" font-style="italic" lengthAdjust="spacing" textLength="52.377" x="121.4698" y="29.9951">Iterator</text><text fill="#000000" font-family="sans-serif" font-size="10" font-style="italic" lengthAdjust="spacing" textLength="39.9463" x="127.6852" y="42.5791">java.util</text><rect fill="#FFFFFF" height="15.9688" style="stroke:#181818;stroke-width:1.0;stroke-dasharray:2.0,2.0;" width="45.166" x="194.5039" y="9"/><text fill="#000000" font-family="sans-serif" font-size="12" font-style="italic" lengthAdjust="spacing" textLength="43.166" x="195.5039" y="21.1387">Integer</text><line style="stroke:#181818;stroke-width:0.5;" x1="78" x2="235.6699" y1="49.9375" y2="49.9375"/><ellipse cx="88" cy="63.5859" fill="#84BE84" rx="3" ry="3" style="stroke:#038048;stroke-width:1.0;"/><text fill="#000000" font-family="sans-serif" font-size="14" font-style="italic" lengthAdjust="spacing" textLength="133.6699" x="97" y="66.9326">hasNext(): boolean</text><ellipse cx="88" cy="79.8828" fill="#84BE84" rx="3" ry="3" style="stroke:#038048;stroke-width:1.0;"/><text fill="#000000" font-family="sans-serif" font-size="14" font-style="italic" lengthAdjust="spacing" textLength="101.7119" x="97" y="83.2295">next(): Integer</text></g></a><polygon fill="none" points="157,91.0289,151,109.0289,163,109.0289,157,91.0289" style="stroke:#181818;stroke-width:1.0;"/><path d="M157,109.0289 C157,120.118 157,114.5461 157,126.8194 " fill="none" style="stroke:#181818;stroke-width:1.0;stroke-dasharray:7.0,7.0;"/><text fill="#888888" font-family="sans-serif" font-size="10" lengthAdjust="spacing" textLength="3.1787" x="151.9106" y="265.2822">&#160;</text><text fill="#888888" font-family="sans-serif" font-size="10" lengthAdjust="spacing" textLength="183.0908" x="61.9546" y="276.9229">UMLDoclet 2.2.0, PlantUML 1.2024.6</text><!--SRC=[VP9HI-j048NV_HMZ85JKZIq-XLfHH12y5q7ka_emJQRDo6Otx4pAxLN_kvjDhVKgpKEoENFc3FEn002xJS1vZM1nwLi5gKdHuSvEB86GWiEQfC62xgd1WEe3EEyerIik2QXkT0ap9blA_seCgtoKarvO586ziV0_oeUdaxl0CVhHhOIJ2Qjf7TTiIZPDyFEHgOQdUu02FrPC7m0F3_t1L5hRfoTuITEwvxX0LtA9IZcmqqzzvbjNzbqvtBBe-COfpIbCrfx32kKt_TN1GGvJxosX- -ndkU852qyjNIulhjTfWpZb1_-XMmMjfgJ2MqybTb2OHRuRP6wYr97UOFEC2pIjiaqyrd_cmxfU8EAeL1l9iwpqXHWViB1a2bzdvBAkCRs4ij4mEJ9iE4bcsgd9qKLd7z69wpdBSLo2WaDxfg6bBw1VS2eQ1-dRLcwRjYr8lcy7urTZjjw2_ePH1nDctdUVH_Vdr-sLZzihZCp8d1p1dKMdKONz1GLXxmO7xm00]--></g></svg>