<svg xmlns="http://www.w3.org/2000/svg" xmlns:xlink="http://www.w3.org/1999/xlink" contentStyleType="text/css" height="237px" preserveAspectRatio="none" style="width:559px;height:237px;background:#FFFFFF;" version="1.1" viewBox="0 0 559 237" width="559px" zoomAndPan="magnify"><defs/><g><!--cluster it.unimi.di.prog2.e15--><g id="cluster_it.unimi.di.prog2.e15"><path d="M16.5,4 L184.4883,4 A3.75,3.75 0 0 1 186.9883,6.5 L193.9883,26.2969 L549.5,26.2969 A2.5,2.5 0 0 1 552,28.7969 L552,201.5 A2.5,2.5 0 0 1 549.5,204 L16.5,204 A2.5,2.5 0 0 1 14,201.5 L14,6.5 A2.5,2.5 0 0 1 16.5,4 " fill="none" style="stroke:#000000;stroke-width:1.5;"/><line style="stroke:#000000;stroke-width:1.5;" x1="14" x2="193.9883" y1="26.2969" y2="26.2969"/><text fill="#000000" font-family="sans-serif" font-size="14" font-weight="bold" lengthAdjust="spacing" textLength="166.9883" x="18" y="18.9951">it.unimi.di.prog2.e15</text></g><!--class StringIterators--><a href="StringIterators.html" target="_top" title="StringIterators.html" xlink:actuate="onRequest" xlink:href="StringIterators.html" xlink:show="new" xlink:title="StringIterators.html" xlink:type="simple"><g id="elem_StringIterators"><rect codeLine="6" fill="#F1F1F1" height="80.5938" id="StringIterators" rx="2.5" ry="2.5" style="stroke:#181818;stroke-width:0.5;" width="368.0908" x="22" y="31"/><ellipse cx="151.0693" cy="47" fill="#ADD1B2" rx="11" ry="11" style="stroke:#181818;stroke-width:1.0;"/><path d="M154.0381,52.6406 Q153.46,52.9375 152.8193,53.0781 Q152.1787,53.2344 151.4756,53.2344 Q148.9756,53.2344 147.6475,51.5938 Q146.335,49.9375 146.335,46.8125 Q146.335,43.6875 147.6475,42.0313 Q148.9756,40.375 151.4756,40.375 Q152.1787,40.375 152.8193,40.5313 Q153.4756,40.6875 154.0381,40.9844 L154.0381,43.7031 Q153.4131,43.125 152.8193,42.8594 Q152.2256,42.5781 151.6006,42.5781 Q150.2568,42.5781 149.5693,43.6563 Q148.8818,44.7188 148.8818,46.8125 Q148.8818,48.9063 149.5693,49.9844 Q150.2568,51.0469 151.6006,51.0469 Q152.2256,51.0469 152.8193,50.7813 Q153.4131,50.5 154.0381,49.9219 L154.0381,52.6406 Z " fill="#000000"/><text fill="#000000" font-family="sans-serif" font-size="14" lengthAdjust="spacing" textLength="101.4521" x="171.5693" y="51.8467">StringIterators</text><line style="stroke:#181818;stroke-width:0.5;" x1="23" x2="389.0908" y1="63" y2="63"/><line style="stroke:#181818;stroke-width:0.5;" x1="23" x2="389.0908" y1="71" y2="71"/><ellipse cx="33" cy="84.6484" fill="#84BE84" rx="3" ry="3" style="stroke:#038048;stroke-width:1.0;"/><text fill="#000000" font-family="sans-serif" font-size="14" lengthAdjust="spacing" text-decoration="underline" textLength="342.0908" x="42" y="87.9951">evenIterator(Iterator&lt;String&gt;): Iterator&lt;String&gt;</text><ellipse cx="33" cy="100.9453" fill="#84BE84" rx="3" ry="3" style="stroke:#038048;stroke-width:1.0;"/><text fill="#000000" font-family="sans-serif" font-size="14" lengthAdjust="spacing" text-decoration="underline" textLength="328.5283" x="42" y="104.292">uppercase(Iterator&lt;String&gt;): Iterator&lt;String&gt;</text></g></a><!--class IntRangeClient--><a href="IntRangeClient.html" target="_top" title="IntRangeClient.html" xlink:actuate="onRequest" xlink:href="IntRangeClient.html" xlink:show="new" xlink:title="IntRangeClient.html" xlink:type="simple"><g id="elem_IntRangeClient"><rect codeLine="11" fill="#F1F1F1" height="48" id="IntRangeClient" rx="2.5" ry="2.5" style="stroke:#181818;stroke-width:0.5;" width="135.7012" x="408" y="47.5"/><ellipse cx="423" cy="63.5" fill="#ADD1B2" rx="11" ry="11" style="stroke:#181818;stroke-width:1.0;"/><path d="M425.9688,69.1406 Q425.3906,69.4375 424.75,69.5781 Q424.1094,69.7344 423.4063,69.7344 Q420.9063,69.7344 419.5781,68.0938 Q418.2656,66.4375 418.2656,63.3125 Q418.2656,60.1875 419.5781,58.5313 Q420.9063,56.875 423.4063,56.875 Q424.1094,56.875 424.75,57.0313 Q425.4063,57.1875 425.9688,57.4844 L425.9688,60.2031 Q425.3438,59.625 424.75,59.3594 Q424.1563,59.0781 423.5313,59.0781 Q422.1875,59.0781 421.5,60.1563 Q420.8125,61.2188 420.8125,63.3125 Q420.8125,65.4063 421.5,66.4844 Q422.1875,67.5469 423.5313,67.5469 Q424.1563,67.5469 424.75,67.2813 Q425.3438,67 425.9688,66.4219 L425.9688,69.1406 Z " fill="#000000"/><text fill="#000000" font-family="sans-serif" font-size="14" lengthAdjust="spacing" textLength="103.7012" x="437" y="68.3467">IntRangeClient</text><line style="stroke:#181818;stroke-width:0.5;" x1="409" x2="542.7012" y1="79.5" y2="79.5"/><line style="stroke:#181818;stroke-width:0.5;" x1="409" x2="542.7012" y1="87.5" y2="87.5"/></g></a><!--class StringIteratorsClient--><a href="StringIteratorsClient.html" target="_top" title="StringIteratorsClient.html" xlink:actuate="onRequest" xlink:href="StringIteratorsClient.html" xlink:show="new" xlink:title="StringIteratorsClient.html" xlink:type="simple"><g id="elem_StringIteratorsClient"><rect codeLine="13" fill="#F1F1F1" height="48" id="StringIteratorsClient" rx="2.5" ry="2.5" style="stroke:#181818;stroke-width:0.5;" width="173.9824" x="119" y="148"/><ellipse cx="134" cy="164" fill="#ADD1B2" rx="11" ry="11" style="stroke:#181818;stroke-width:1.0;"/><path d="M136.9688,169.6406 Q136.3906,169.9375 135.75,170.0781 Q135.1094,170.2344 134.4063,170.2344 Q131.9063,170.2344 130.5781,168.5938 Q129.2656,166.9375 129.2656,163.8125 Q129.2656,160.6875 130.5781,159.0313 Q131.9063,157.375 134.4063,157.375 Q135.1094,157.375 135.75,157.5313 Q136.4063,157.6875 136.9688,157.9844 L136.9688,160.7031 Q136.3438,160.125 135.75,159.8594 Q135.1563,159.5781 134.5313,159.5781 Q133.1875,159.5781 132.5,160.6563 Q131.8125,161.7188 131.8125,163.8125 Q131.8125,165.9063 132.5,166.9844 Q133.1875,168.0469 134.5313,168.0469 Q135.1563,168.0469 135.75,167.7813 Q136.3438,167.5 136.9688,166.9219 L136.9688,169.6406 Z " fill="#000000"/><text fill="#000000" font-family="sans-serif" font-size="14" lengthAdjust="spacing" textLength="141.9824" x="148" y="168.8467">StringIteratorsClient</text><line style="stroke:#181818;stroke-width:0.5;" x1="120" x2="291.9824" y1="180" y2="180"/><line style="stroke:#181818;stroke-width:0.5;" x1="120" x2="291.9824" y1="188" y2="188"/></g></a><text fill="#888888" font-family="sans-serif" font-size="10" lengthAdjust="spacing" textLength="3.1787" x="269.9106" y="215.2822">&#160;</text><text fill="#888888" font-family="sans-serif" font-size="10" lengthAdjust="spacing" textLength="183.0908" x="179.9546" y="226.9229">UMLDoclet 2.2.0, PlantUML 1.2024.6</text><!--SRC=[bP51ImCn48Nl_HNFWz2Y15tmieWNlHGKHF5KUnZYk0Qpav3C5gJiVpVTMh6B8ft3PERBp8EN0C1HJDIq14yVeLFabfM49kK6cKlFaH9fIAZhoK0ZsNTg64vD9wvrviMPc49J6Jw_m7exj0dhAMSyQdBIp9K7bOp5OaJCcxP-kIoR-17hhAJEzZZX5SjkUBehBhSYLxCQO_I7J1SZ9qkP3zBentRceWya3LzxnwB5pJxuClFF8tml_yhtDFeXsu8vuJM4pV4iJtUtDy7wyZ-LgSpPAUuzYHQAunMdx89CPvy0]--></g></svg>