<svg xmlns="http://www.w3.org/2000/svg" xmlns:xlink="http://www.w3.org/1999/xlink" contentStyleType="text/css" height="254px" preserveAspectRatio="none" style="width:191px;height:254px;background:#FFFFFF;" version="1.1" viewBox="0 0 191 254" width="191px" zoomAndPan="magnify"><defs/><g><!--class it.unimi.di.prog2.h11.Poly--><a href="Poly.html" target="_top" title="Poly.html" xlink:actuate="onRequest" xlink:href="Poly.html" xlink:show="new" xlink:title="Poly.html" xlink:type="simple"><g id="elem_it.unimi.di.prog2.h11.Poly"><rect codeLine="7" fill="#F1F1F1" height="216.9063" id="it.unimi.di.prog2.h11.Poly" rx="2.5" ry="2.5" style="stroke:#181818;stroke-width:0.5;" width="137.5283" x="26.0454" y="12"/><ellipse cx="41.3447" cy="30.9688" fill="#ADD1B2" rx="11" ry="11" style="stroke:#181818;stroke-width:1.0;"/><path d="M44.3134,36.6094 Q43.7353,36.9063 43.0947,37.0469 Q42.4541,37.2031 41.7509,37.2031 Q39.2509,37.2031 37.9228,35.5625 Q36.6103,33.9063 36.6103,30.7813 Q36.6103,27.6563 37.9228,26 Q39.2509,24.3438 41.7509,24.3438 Q42.4541,24.3438 43.0947,24.5 Q43.7509,24.6563 44.3134,24.9531 L44.3134,27.6719 Q43.6884,27.0938 43.0947,26.8281 Q42.5009,26.5469 41.8759,26.5469 Q40.5322,26.5469 39.8447,27.625 Q39.1572,28.6875 39.1572,30.7813 Q39.1572,32.875 39.8447,33.9531 Q40.5322,35.0156 41.8759,35.0156 Q42.5009,35.0156 43.0947,34.75 Q43.6884,34.4688 44.3134,33.8906 L44.3134,36.6094 Z " fill="#000000"/><text fill="#000000" font-family="sans-serif" font-size="14" lengthAdjust="spacing" textLength="29.1826" x="93.2515" y="29.9951">Poly</text><text fill="#000000" font-family="sans-serif" font-size="10" lengthAdjust="spacing" textLength="104.8633" x="55.4112" y="42.5791">it.unimi.di.prog2.h11</text><line style="stroke:#181818;stroke-width:0.5;" x1="27.0454" x2="162.5737" y1="49.9375" y2="49.9375"/><rect fill="none" height="6" style="stroke:#C82930;stroke-width:1.0;" width="6" x="34.0454" y="60.5859"/><text fill="#000000" font-family="sans-serif" font-size="14" lengthAdjust="spacing" textLength="111.5283" x="46.0454" y="66.9326">coefficient: int[]</text><line style="stroke:#181818;stroke-width:0.5;" x1="27.0454" x2="162.5737" y1="74.2344" y2="74.2344"/><ellipse cx="37.0454" cy="87.8828" fill="#84BE84" rx="3" ry="3" style="stroke:#038048;stroke-width:1.0;"/><text fill="#000000" font-family="sans-serif" font-size="14" lengthAdjust="spacing" textLength="40.1064" x="46.0454" y="91.2295">Poly()</text><ellipse cx="37.0454" cy="104.1797" fill="#84BE84" rx="3" ry="3" style="stroke:#038048;stroke-width:1.0;"/><text fill="#000000" font-family="sans-serif" font-size="14" lengthAdjust="spacing" textLength="85.5107" x="46.0454" y="107.5264">Poly(int, int)</text><rect fill="#F24D5C" height="6" style="stroke:#C82930;stroke-width:1.0;" width="6" x="34.0454" y="117.4766"/><text fill="#000000" font-family="sans-serif" font-size="14" lengthAdjust="spacing" textLength="58.3584" x="46.0454" y="123.8232">Poly(int)</text><ellipse cx="37.0454" cy="136.7734" fill="#84BE84" rx="3" ry="3" style="stroke:#038048;stroke-width:1.0;"/><text fill="#000000" font-family="sans-serif" font-size="14" lengthAdjust="spacing" textLength="87.7119" x="46.0454" y="140.1201">degree(): int</text><ellipse cx="37.0454" cy="153.0703" fill="#84BE84" rx="3" ry="3" style="stroke:#038048;stroke-width:1.0;"/><text fill="#000000" font-family="sans-serif" font-size="14" lengthAdjust="spacing" textLength="91.3281" x="46.0454" y="156.417">coeff(int): int</text><ellipse cx="37.0454" cy="169.3672" fill="#84BE84" rx="3" ry="3" style="stroke:#038048;stroke-width:1.0;"/><text fill="#000000" font-family="sans-serif" font-size="14" lengthAdjust="spacing" textLength="104.8086" x="46.0454" y="172.7139">add(Poly): Poly</text><ellipse cx="37.0454" cy="185.6641" fill="#84BE84" rx="3" ry="3" style="stroke:#038048;stroke-width:1.0;"/><text fill="#000000" font-family="sans-serif" font-size="14" lengthAdjust="spacing" textLength="104.8564" x="46.0454" y="189.0107">mul(Poly): Poly</text><ellipse cx="37.0454" cy="201.9609" fill="#84BE84" rx="3" ry="3" style="stroke:#038048;stroke-width:1.0;"/><text fill="#000000" font-family="sans-serif" font-size="14" lengthAdjust="spacing" textLength="103.5098" x="46.0454" y="205.3076">sub(Poly): Poly</text><ellipse cx="37.0454" cy="218.2578" fill="#84BE84" rx="3" ry="3" style="stroke:#038048;stroke-width:1.0;"/><text fill="#000000" font-family="sans-serif" font-size="14" lengthAdjust="spacing" textLength="91.8408" x="46.0454" y="221.6045">minus(): Poly</text></g></a><text fill="#888888" font-family="sans-serif" font-size="10" lengthAdjust="spacing" textLength="3.1787" x="89.9561" y="232.2822">&#160;</text><text fill="#888888" font-family="sans-serif" font-size="10" lengthAdjust="spacing" textLength="183.0908" x="0" y="243.9229">UMLDoclet 2.2.0, PlantUML 1.2024.6</text><!--SRC=[TP7BQiCm44Nt-Offe63JHCIcgn2owhA5GEdAyM9gZMs17aQI2sxflrTI7mucrMQOS-_SGH80mCrWiLC84YSpUd2AF6fShO84ZZneLEG6REYP1hJeZGLjD2Mz5vo0rE0dQ0L9xfOqXFKcuCGRYSx1-k34E-sB- -F9oEciVzhTKNWsQg44uu8DrdGbwujY3UZWgiBYE5HLBAptIjOrVAGzyMmRGsqh6a7Qxq5eNzL_sbqSoV957poRQ9pvzfTVM3brbYZBK-QCqxPaNGZ8UHPZ0ezb5jGehmjkVFrdGkZHPPVuy_jPmnN9GcjCB6VzylJuO1ePlgva9Tjju2HH-q3Xzesi4qPd-HS0]--></g></svg>