<svg xmlns="http://www.w3.org/2000/svg" xmlns:xlink="http://www.w3.org/1999/xlink" contentStyleType="text/css" height="361px" preserveAspectRatio="none" style="width:284px;height:361px;background:#FFFFFF;" version="1.1" viewBox="0 0 284 361" width="284px" zoomAndPan="magnify"><defs/><g><!--class it.unimi.di.prog2.h11.SparsePoly--><a href="SparsePoly.html" target="_top" title="SparsePoly.html" xlink:actuate="onRequest" xlink:href="SparsePoly.html" xlink:show="new" xlink:title="SparsePoly.html" xlink:type="simple"><g id="elem_it.unimi.di.prog2.h11.SparsePoly"><rect codeLine="7" fill="#F1F1F1" height="249.5" id="it.unimi.di.prog2.h11.SparsePoly" rx="2.5" ry="2.5" style="stroke:#181818;stroke-width:0.5;" width="271.7178" x="6" y="12"/><ellipse cx="85.1772" cy="30.9688" fill="#ADD1B2" rx="11" ry="11" style="stroke:#181818;stroke-width:1.0;"/><path d="M88.146,36.6094 Q87.5679,36.9063 86.9272,37.0469 Q86.2866,37.2031 85.5835,37.2031 Q83.0835,37.2031 81.7554,35.5625 Q80.4429,33.9063 80.4429,30.7813 Q80.4429,27.6563 81.7554,26 Q83.0835,24.3438 85.5835,24.3438 Q86.2866,24.3438 86.9272,24.5 Q87.5835,24.6563 88.146,24.9531 L88.146,27.6719 Q87.521,27.0938 86.9272,26.8281 Q86.3335,26.5469 85.7085,26.5469 Q84.3647,26.5469 83.6772,27.625 Q82.9897,28.6875 82.9897,30.7813 Q82.9897,32.875 83.6772,33.9531 Q84.3647,35.0156 85.7085,35.0156 Q86.3335,35.0156 86.9272,34.75 Q87.521,34.4688 88.146,33.8906 L88.146,36.6094 Z " fill="#000000"/><text fill="#000000" font-family="sans-serif" font-size="14" lengthAdjust="spacing" textLength="77.1982" x="119.5098" y="29.9951">SparsePoly</text><text fill="#000000" font-family="sans-serif" font-size="10" lengthAdjust="spacing" textLength="104.8633" x="105.6772" y="42.5791">it.unimi.di.prog2.h11</text><line style="stroke:#181818;stroke-width:0.5;" x1="7" x2="276.7178" y1="49.9375" y2="49.9375"/><rect fill="none" height="6" style="stroke:#C82930;stroke-width:1.0;" width="6" x="14" y="60.5859"/><text fill="#000000" font-family="sans-serif" font-size="14" lengthAdjust="spacing" textLength="134.4492" x="26" y="66.9326">terms: List&lt;Term&gt;</text><line style="stroke:#181818;stroke-width:0.5;" x1="7" x2="276.7178" y1="74.2344" y2="74.2344"/><ellipse cx="17" cy="87.8828" fill="#84BE84" rx="3" ry="3" style="stroke:#038048;stroke-width:1.0;"/><text fill="#000000" font-family="sans-serif" font-size="14" lengthAdjust="spacing" textLength="88.1221" x="26" y="91.2295">SparsePoly()</text><ellipse cx="17" cy="104.1797" fill="#84BE84" rx="3" ry="3" style="stroke:#038048;stroke-width:1.0;"/><text fill="#000000" font-family="sans-serif" font-size="14" lengthAdjust="spacing" textLength="133.5264" x="26" y="107.5264">SparsePoly(int, int)</text><rect fill="#F24D5C" height="6" style="stroke:#C82930;stroke-width:1.0;" width="6" x="14" y="117.4766"/><text fill="#000000" font-family="sans-serif" font-size="14" lengthAdjust="spacing" textLength="172.6143" x="26" y="123.8232">SparsePoly(List&lt;Term&gt;)</text><ellipse cx="17" cy="136.7734" fill="#84BE84" rx="3" ry="3" style="stroke:#038048;stroke-width:1.0;"/><text fill="#000000" font-family="sans-serif" font-size="14" lengthAdjust="spacing" textLength="91.3281" x="26" y="140.1201">coeff(int): int</text><ellipse cx="17" cy="153.0703" fill="#84BE84" rx="3" ry="3" style="stroke:#038048;stroke-width:1.0;"/><text fill="#000000" font-family="sans-serif" font-size="14" lengthAdjust="spacing" textLength="87.7119" x="26" y="156.417">degree(): int</text><rect fill="#F24D5C" height="6" style="stroke:#C82930;stroke-width:1.0;" width="6" x="14" y="166.3672"/><text fill="#000000" font-family="sans-serif" font-size="14" lengthAdjust="spacing" text-decoration="underline" textLength="245.7178" x="26" y="172.7139">findByDegree(List&lt;Term&gt;, int): int</text><rect fill="#F24D5C" height="6" style="stroke:#C82930;stroke-width:1.0;" width="6" x="14" y="182.6641"/><text fill="#000000" font-family="sans-serif" font-size="14" lengthAdjust="spacing" text-decoration="underline" textLength="242.5801" x="26" y="189.0107">addTerm(List&lt;Term&gt;, Term): void</text><ellipse cx="17" cy="201.9609" fill="#84BE84" rx="3" ry="3" style="stroke:#038048;stroke-width:1.0;"/><text fill="#000000" font-family="sans-serif" font-size="14" lengthAdjust="spacing" textLength="200.8398" x="26" y="205.3076">add(SparsePoly): SparsePoly</text><ellipse cx="17" cy="218.2578" fill="#84BE84" rx="3" ry="3" style="stroke:#038048;stroke-width:1.0;"/><text fill="#000000" font-family="sans-serif" font-size="14" lengthAdjust="spacing" textLength="200.8877" x="26" y="221.6045">mul(SparsePoly): SparsePoly</text><ellipse cx="17" cy="234.5547" fill="#84BE84" rx="3" ry="3" style="stroke:#038048;stroke-width:1.0;"/><text fill="#000000" font-family="sans-serif" font-size="14" lengthAdjust="spacing" textLength="199.541" x="26" y="237.9014">sub(SparsePoly): SparsePoly</text><ellipse cx="17" cy="250.8516" fill="#84BE84" rx="3" ry="3" style="stroke:#038048;stroke-width:1.0;"/><text fill="#000000" font-family="sans-serif" font-size="14" lengthAdjust="spacing" textLength="139.8564" x="26" y="254.1982">minus(): SparsePoly</text></g></a><!--class it.unimi.di.prog2.h11.SparsePoly.Term--><a href="SparsePoly.Term.html" target="_top" title="SparsePoly.Term.html" xlink:actuate="onRequest" xlink:href="SparsePoly.Term.html" xlink:show="new" xlink:title="SparsePoly.Term.html" xlink:type="simple"><g id="elem_it.unimi.di.prog2.h11.SparsePoly.Term"><rect codeLine="21" fill="#F1F1F1" height="37.9375" id="it.unimi.di.prog2.h11.SparsePoly.Term" rx="2.5" ry="2.5" style="stroke:#181818;stroke-width:0.5;" width="150.207" x="67" y="298"/><ellipse cx="82" cy="316.9688" fill="#ADD1B2" rx="11" ry="11" style="stroke:#181818;stroke-width:1.0;"/><path d="M84.9688,322.6094 Q84.3906,322.9063 83.75,323.0469 Q83.1094,323.2031 82.4063,323.2031 Q79.9063,323.2031 78.5781,321.5625 Q77.2656,319.9063 77.2656,316.7813 Q77.2656,313.6563 78.5781,312 Q79.9063,310.3438 82.4063,310.3438 Q83.1094,310.3438 83.75,310.5 Q84.4063,310.6563 84.9688,310.9531 L84.9688,313.6719 Q84.3438,313.0938 83.75,312.8281 Q83.1563,312.5469 82.5313,312.5469 Q81.1875,312.5469 80.5,313.625 Q79.8125,314.6875 79.8125,316.7813 Q79.8125,318.875 80.5,319.9531 Q81.1875,321.0156 82.5313,321.0156 Q83.1563,321.0156 83.75,320.75 Q84.3438,320.4688 84.9688,319.8906 L84.9688,322.6094 Z " fill="#000000"/><text fill="#000000" font-family="sans-serif" font-size="14" lengthAdjust="spacing" textLength="118.207" x="96" y="315.9951">SparsePoly.Term</text><text fill="#000000" font-family="sans-serif" font-size="10" lengthAdjust="spacing" textLength="104.8633" x="102.6719" y="328.5791">it.unimi.di.prog2.h11</text></g></a><ellipse cx="142" cy="270.1111" fill="#FFFFFF" rx="8" ry="8" style="stroke:#181818;stroke-width:1.0;"/><line style="stroke:#181818;stroke-width:1.0;" x1="142" x2="142" y1="278.1111" y2="262.1111"/><line style="stroke:#181818;stroke-width:1.0;" x1="134" x2="150" y1="270.1111" y2="270.1111"/><path d="M142,278.1111 C142,291.7703 142,288.1154 142,297.5328 " fill="none" style="stroke:#181818;stroke-width:1.0;"/><text fill="#888888" font-family="sans-serif" font-size="10" lengthAdjust="spacing" textLength="3.1787" x="136.9106" y="339.2822">&#160;</text><text fill="#888888" font-family="sans-serif" font-size="10" lengthAdjust="spacing" textLength="183.0908" x="46.9546" y="350.9229">UMLDoclet 2.2.0, PlantUML 1.2024.6</text><!--SRC=[hLDDQy8m6BxxAzu9WuesgEmauc5uT22udTH3rhorWNoK91KwyRylQMLHvz33UcYIv-jDuIa0m5Dfw4vI4BJMbGChqL55EnrFWKK7Yagq9SrmXIKrr6a3IYji-88p19Ibgo7dA9YzHdrOeJtSu9cWra9tQlaNJaOlivNFixZKejwe4pYSSKSgnIKdZ9FIwDsO5ADH5wY5cmo98R1UnmCfd1JRBHoQoU597Hff9x3WratV_NxsG_MZB-dTHBbo0_2loAPdR8mySsSQypmOUvFWZ0J3dK5Chk23TTJnx0XfpXLxhUUjAaQty_yoKSQ2wa8V5c_OQyxYT2zCujKz7GzH92jnNsIhpmUIkAfiyfiytca42PV_breqIPVT2CYf86qpxrQhdwQF3Me_2vKl6-HQXsMZFjuMSvq9_pEDoPWC1x0KL3cFmlCUZULQ9Rrl]--></g></svg>