<svg xmlns="http://www.w3.org/2000/svg" xmlns:xlink="http://www.w3.org/1999/xlink" contentStyleType="text/css" height="514px" preserveAspectRatio="none" style="width:555px;height:514px;background:#FFFFFF;" version="1.1" viewBox="0 0 555 514" width="555px" zoomAndPan="magnify"><defs/><g><!--cluster it.unimi.di.prog2.s10--><g id="cluster_it.unimi.di.prog2.s10"><path d="M16.5,4 L183.3262,4 A3.75,3.75 0 0 1 185.8262,6.5 L192.8262,26.2969 L545.5,26.2969 A2.5,2.5 0 0 1 548,28.7969 L548,478.5 A2.5,2.5 0 0 1 545.5,481 L16.5,481 A2.5,2.5 0 0 1 14,478.5 L14,6.5 A2.5,2.5 0 0 1 16.5,4 " fill="none" style="stroke:#000000;stroke-width:1.5;"/><line style="stroke:#000000;stroke-width:1.5;" x1="14" x2="192.8262" y1="26.2969" y2="26.2969"/><text fill="#000000" font-family="sans-serif" font-size="14" font-weight="bold" lengthAdjust="spacing" textLength="165.8262" x="18" y="18.9951">it.unimi.di.prog2.s10</text></g><!--class RationalNumberClient--><a href="RationalNumberClient.html" target="_top" title="RationalNumberClient.html" xlink:actuate="onRequest" xlink:href="RationalNumberClient.html" xlink:show="new" xlink:title="RationalNumberClient.html" xlink:type="simple"><g id="elem_RationalNumberClient"><rect codeLine="6" fill="#F1F1F1" height="64.2969" id="RationalNumberClient" rx="2.5" ry="2.5" style="stroke:#181818;stroke-width:0.5;" width="186.3623" x="29" y="96.5"/><ellipse cx="44" cy="112.5" fill="#ADD1B2" rx="11" ry="11" style="stroke:#181818;stroke-width:1.0;"/><path d="M46.9688,118.1406 Q46.3906,118.4375 45.75,118.5781 Q45.1094,118.7344 44.4063,118.7344 Q41.9063,118.7344 40.5781,117.0938 Q39.2656,115.4375 39.2656,112.3125 Q39.2656,109.1875 40.5781,107.5313 Q41.9063,105.875 44.4063,105.875 Q45.1094,105.875 45.75,106.0313 Q46.4063,106.1875 46.9688,106.4844 L46.9688,109.2031 Q46.3438,108.625 45.75,108.3594 Q45.1563,108.0781 44.5313,108.0781 Q43.1875,108.0781 42.5,109.1563 Q41.8125,110.2188 41.8125,112.3125 Q41.8125,114.4063 42.5,115.4844 Q43.1875,116.5469 44.5313,116.5469 Q45.1563,116.5469 45.75,116.2813 Q46.3438,116 46.9688,115.4219 L46.9688,118.1406 Z " fill="#000000"/><text fill="#000000" font-family="sans-serif" font-size="14" lengthAdjust="spacing" textLength="154.3623" x="58" y="117.3467">RationalNumberClient</text><line style="stroke:#181818;stroke-width:0.5;" x1="30" x2="214.3623" y1="128.5" y2="128.5"/><line style="stroke:#181818;stroke-width:0.5;" x1="30" x2="214.3623" y1="136.5" y2="136.5"/><ellipse cx="40" cy="150.1484" fill="#84BE84" rx="3" ry="3" style="stroke:#038048;stroke-width:1.0;"/><text fill="#000000" font-family="sans-serif" font-size="14" lengthAdjust="spacing" text-decoration="underline" textLength="137.4023" x="49" y="153.4951">main(String[]): void</text></g></a><!--class BoundedIntQueue--><a href="BoundedIntQueue.html" target="_top" title="BoundedIntQueue.html" xlink:actuate="onRequest" xlink:href="BoundedIntQueue.html" xlink:show="new" xlink:title="BoundedIntQueue.html" xlink:type="simple"><g id="elem_BoundedIntQueue"><rect codeLine="10" fill="#F1F1F1" height="194.6719" id="BoundedIntQueue" rx="2.5" ry="2.5" style="stroke:#181818;stroke-width:0.5;" width="181.9619" x="233" y="31"/><ellipse cx="258.4291" cy="47" fill="#ADD1B2" rx="11" ry="11" style="stroke:#181818;stroke-width:1.0;"/><path d="M261.3979,52.6406 Q260.8197,52.9375 260.1791,53.0781 Q259.5385,53.2344 258.8354,53.2344 Q256.3354,53.2344 255.0072,51.5938 Q253.6947,49.9375 253.6947,46.8125 Q253.6947,43.6875 255.0072,42.0313 Q256.3354,40.375 258.8354,40.375 Q259.5385,40.375 260.1791,40.5313 Q260.8354,40.6875 261.3979,40.9844 L261.3979,43.7031 Q260.7729,43.125 260.1791,42.8594 Q259.5854,42.5781 258.9604,42.5781 Q257.6166,42.5781 256.9291,43.6563 Q256.2416,44.7188 256.2416,46.8125 Q256.2416,48.9063 256.9291,49.9844 Q257.6166,51.0469 258.9604,51.0469 Q259.5854,51.0469 260.1791,50.7813 Q260.7729,50.5 261.3979,49.9219 L261.3979,52.6406 Z " fill="#000000"/><text fill="#000000" font-family="sans-serif" font-size="14" lengthAdjust="spacing" textLength="126.7861" x="274.7467" y="51.8467">BoundedIntQueue</text><line style="stroke:#181818;stroke-width:0.5;" x1="234" x2="413.9619" y1="63" y2="63"/><rect fill="none" height="6" style="stroke:#C82930;stroke-width:1.0;" width="6" x="241" y="73.6484"/><text fill="#000000" font-family="sans-serif" font-size="14" lengthAdjust="spacing" textLength="103.3662" x="253" y="79.9951">elements: int[]</text><rect fill="none" height="6" style="stroke:#C82930;stroke-width:1.0;" width="6" x="241" y="89.9453"/><text fill="#000000" font-family="sans-serif" font-size="14" lengthAdjust="spacing" textLength="62.3711" x="253" y="96.292">head: int</text><rect fill="none" height="6" style="stroke:#C82930;stroke-width:1.0;" width="6" x="241" y="106.2422"/><text fill="#000000" font-family="sans-serif" font-size="14" lengthAdjust="spacing" textLength="49.2666" x="253" y="112.5889">tail: int</text><line style="stroke:#181818;stroke-width:0.5;" x1="234" x2="413.9619" y1="119.8906" y2="119.8906"/><ellipse cx="244" cy="133.5391" fill="#84BE84" rx="3" ry="3" style="stroke:#038048;stroke-width:1.0;"/><text fill="#000000" font-family="sans-serif" font-size="14" lengthAdjust="spacing" textLength="155.9619" x="253" y="136.8857">BoundedIntQueue(int)</text><ellipse cx="244" cy="149.8359" fill="#84BE84" rx="3" ry="3" style="stroke:#038048;stroke-width:1.0;"/><text fill="#000000" font-family="sans-serif" font-size="14" lengthAdjust="spacing" textLength="132.3916" x="253" y="153.1826">isEmpty(): boolean</text><ellipse cx="244" cy="166.1328" fill="#84BE84" rx="3" ry="3" style="stroke:#038048;stroke-width:1.0;"/><text fill="#000000" font-family="sans-serif" font-size="14" lengthAdjust="spacing" textLength="111.9521" x="253" y="169.4795">isFull(): boolean</text><ellipse cx="244" cy="182.4297" fill="#84BE84" rx="3" ry="3" style="stroke:#038048;stroke-width:1.0;"/><text fill="#000000" font-family="sans-serif" font-size="14" lengthAdjust="spacing" textLength="65.4883" x="253" y="185.7764">size(): int</text><ellipse cx="244" cy="198.7266" fill="#84BE84" rx="3" ry="3" style="stroke:#038048;stroke-width:1.0;"/><text fill="#000000" font-family="sans-serif" font-size="14" lengthAdjust="spacing" textLength="129.3154" x="253" y="202.0732">enqueue(int): void</text><ellipse cx="244" cy="215.0234" fill="#84BE84" rx="3" ry="3" style="stroke:#038048;stroke-width:1.0;"/><text fill="#000000" font-family="sans-serif" font-size="14" lengthAdjust="spacing" textLength="99.7021" x="253" y="218.3701">dequeue(): int</text></g></a><!--class BoundedIntQueueClient--><a href="BoundedIntQueueClient.html" target="_top" title="BoundedIntQueueClient.html" xlink:actuate="onRequest" xlink:href="BoundedIntQueueClient.html" xlink:show="new" xlink:title="BoundedIntQueueClient.html" xlink:type="simple"><g id="elem_BoundedIntQueueClient"><rect codeLine="22" fill="#F1F1F1" height="64.2969" id="BoundedIntQueueClient" rx="2.5" ry="2.5" style="stroke:#181818;stroke-width:0.5;" width="199.3164" x="22.5" y="335.5"/><ellipse cx="37.5" cy="351.5" fill="#ADD1B2" rx="11" ry="11" style="stroke:#181818;stroke-width:1.0;"/><path d="M40.4688,357.1406 Q39.8906,357.4375 39.25,357.5781 Q38.6094,357.7344 37.9063,357.7344 Q35.4063,357.7344 34.0781,356.0938 Q32.7656,354.4375 32.7656,351.3125 Q32.7656,348.1875 34.0781,346.5313 Q35.4063,344.875 37.9063,344.875 Q38.6094,344.875 39.25,345.0313 Q39.9063,345.1875 40.4688,345.4844 L40.4688,348.2031 Q39.8438,347.625 39.25,347.3594 Q38.6563,347.0781 38.0313,347.0781 Q36.6875,347.0781 36,348.1563 Q35.3125,349.2188 35.3125,351.3125 Q35.3125,353.4063 36,354.4844 Q36.6875,355.5469 38.0313,355.5469 Q38.6563,355.5469 39.25,355.2813 Q39.8438,355 40.4688,354.4219 L40.4688,357.1406 Z " fill="#000000"/><text fill="#000000" font-family="sans-serif" font-size="14" lengthAdjust="spacing" textLength="167.3164" x="51.5" y="356.3467">BoundedIntQueueClient</text><line style="stroke:#181818;stroke-width:0.5;" x1="23.5" x2="220.8164" y1="367.5" y2="367.5"/><line style="stroke:#181818;stroke-width:0.5;" x1="23.5" x2="220.8164" y1="375.5" y2="375.5"/><ellipse cx="33.5" cy="389.1484" fill="#84BE84" rx="3" ry="3" style="stroke:#038048;stroke-width:1.0;"/><text fill="#000000" font-family="sans-serif" font-size="14" lengthAdjust="spacing" text-decoration="underline" textLength="137.4023" x="42.5" y="392.4951">main(String[]): void</text></g></a><!--class RationalNumber--><a href="RationalNumber.html" target="_top" title="RationalNumber.html" xlink:actuate="onRequest" xlink:href="RationalNumber.html" xlink:show="new" xlink:title="RationalNumber.html" xlink:type="simple"><g id="elem_RationalNumber"><rect codeLine="26" fill="#F1F1F1" height="210.9688" id="RationalNumber" rx="2.5" ry="2.5" style="stroke:#181818;stroke-width:0.5;" width="300.1553" x="240" y="262"/><ellipse cx="328.9116" cy="278" fill="#ADD1B2" rx="11" ry="11" style="stroke:#181818;stroke-width:1.0;"/><path d="M331.8804,283.6406 Q331.3022,283.9375 330.6616,284.0781 Q330.021,284.2344 329.3179,284.2344 Q326.8179,284.2344 325.4897,282.5938 Q324.1772,280.9375 324.1772,277.8125 Q324.1772,274.6875 325.4897,273.0313 Q326.8179,271.375 329.3179,271.375 Q330.021,271.375 330.6616,271.5313 Q331.3179,271.6875 331.8804,271.9844 L331.8804,274.7031 Q331.2554,274.125 330.6616,273.8594 Q330.0679,273.5781 329.4429,273.5781 Q328.0991,273.5781 327.4116,274.6563 Q326.7241,275.7188 326.7241,277.8125 Q326.7241,279.9063 327.4116,280.9844 Q328.0991,282.0469 329.4429,282.0469 Q330.0679,282.0469 330.6616,281.7813 Q331.2554,281.5 331.8804,280.9219 L331.8804,283.6406 Z " fill="#000000"/><text fill="#000000" font-family="sans-serif" font-size="14" lengthAdjust="spacing" textLength="113.832" x="349.4116" y="282.8467">RationalNumber</text><line style="stroke:#181818;stroke-width:0.5;" x1="241" x2="539.1553" y1="294" y2="294"/><ellipse cx="251" cy="307.6484" fill="none" rx="3" ry="3" style="stroke:#038048;stroke-width:1.0;"/><text fill="#000000" font-family="sans-serif" font-size="14" lengthAdjust="spacing" textLength="101.5615" x="260" y="310.9951">numerator: int</text><ellipse cx="251" cy="323.9453" fill="none" rx="3" ry="3" style="stroke:#038048;stroke-width:1.0;"/><text fill="#000000" font-family="sans-serif" font-size="14" lengthAdjust="spacing" textLength="117.1475" x="260" y="327.292">denominator: int</text><line style="stroke:#181818;stroke-width:0.5;" x1="241" x2="539.1553" y1="334.5938" y2="334.5938"/><ellipse cx="251" cy="348.2422" fill="#84BE84" rx="3" ry="3" style="stroke:#038048;stroke-width:1.0;"/><text fill="#000000" font-family="sans-serif" font-size="14" lengthAdjust="spacing" textLength="194.0859" x="260" y="351.5889">RationalNumber(long, long)</text><ellipse cx="251" cy="364.5391" fill="#84BE84" rx="3" ry="3" style="stroke:#038048;stroke-width:1.0;"/><text fill="#000000" font-family="sans-serif" font-size="14" lengthAdjust="spacing" textLength="143.0078" x="260" y="367.8857">RationalNumber(int)</text><rect fill="#F24D5C" height="6" style="stroke:#C82930;stroke-width:1.0;" width="6" x="248" y="377.8359"/><text fill="#000000" font-family="sans-serif" font-size="14" lengthAdjust="spacing" textLength="145.1064" x="260" y="384.1826">gcd(long, long): long</text><ellipse cx="251" cy="397.1328" fill="#84BE84" rx="3" ry="3" style="stroke:#038048;stroke-width:1.0;"/><text fill="#000000" font-family="sans-serif" font-size="14" lengthAdjust="spacing" textLength="274.1074" x="260" y="400.4795">add(RationalNumber): RationalNumber</text><ellipse cx="251" cy="413.4297" fill="#84BE84" rx="3" ry="3" style="stroke:#038048;stroke-width:1.0;"/><text fill="#000000" font-family="sans-serif" font-size="14" lengthAdjust="spacing" textLength="274.1553" x="260" y="416.7764">mul(RationalNumber): RationalNumber</text><ellipse cx="251" cy="429.7266" fill="#84BE84" rx="3" ry="3" style="stroke:#038048;stroke-width:1.0;"/><text fill="#000000" font-family="sans-serif" font-size="14" lengthAdjust="spacing" textLength="137.6074" x="260" y="433.0732">isInteger(): boolean</text><ellipse cx="251" cy="446.0234" fill="#84BE84" rx="3" ry="3" style="stroke:#038048;stroke-width:1.0;"/><text fill="#000000" font-family="sans-serif" font-size="14" lengthAdjust="spacing" textLength="141.7158" x="260" y="449.3701">isPositive(): boolean</text><ellipse cx="251" cy="462.3203" fill="#84BE84" rx="3" ry="3" style="stroke:#038048;stroke-width:1.0;"/><text fill="#000000" font-family="sans-serif" font-size="14" lengthAdjust="spacing" textLength="119.7725" x="260" y="465.667">isZero(): boolean</text></g></a><text fill="#888888" font-family="sans-serif" font-size="10" lengthAdjust="spacing" textLength="3.1787" x="267.9106" y="492.2822">&#160;</text><text fill="#888888" font-family="sans-serif" font-size="10" lengthAdjust="spacing" textLength="183.0908" x="177.9546" y="503.9229">UMLDoclet 2.2.0, PlantUML 1.2024.6</text><!--SRC=[hLJBJiCm4Bpp5Si1ALKXAZtco4j20iH3N2WzBF6Ihh3N8ROh0Ug_umPKrMaAGY87MvcPtN4ygm00xDODLWP1uviD7fmXZu8xaG57yPrgRD3R1efYfqLhB5-m8c2V1s73kUAyRcmrpjtX23w-HCkdrEWStA9dAwYlWdcYvbWpYOV9f0_EPzxewJJsWBNdm_ceBHSmDCYItVc6fPfC1mNCBQkLTD4rFh915AbpyJU10aNF3j9lTq2QJ3oCAu35JwOfEIDKBP727bblmiEEOHO5WrJ1xjJK_YsBN_DahIQKBdyMjDvAEtwd9RdXJFAwSknSLCih-k8xjRzTuYg-Nln_yqidP6Da-is64WoryzfpAOh46fOjRDe-qrQgVLYkWnzr6vaULALQhoxQBUs1IcLfdoXBWRJ01Fst0dOn6whY0RUFrhLrx7bEFqWUgB5zz7TQYtOjO_OneMThbzkZt5zUdDXInx_7E1_detsurYW-eh0tfyR5CsU3Jm00]--></g></svg>