<svg xmlns="http://www.w3.org/2000/svg" xmlns:xlink="http://www.w3.org/1999/xlink" contentStyleType="text/css" height="500px" preserveAspectRatio="none" style="width:895px;height:500px;background:#FFFFFF;" version="1.1" viewBox="0 0 895 500" width="895px" zoomAndPan="magnify"><defs/><g><!--cluster it.unimi.di.prog2.e09--><g id="cluster_it.unimi.di.prog2.e09"><path d="M16.5,4 L184.4883,4 A3.75,3.75 0 0 1 186.9883,6.5 L193.9883,26.2969 L779.5,26.2969 A2.5,2.5 0 0 1 782,28.7969 L782,464.5 A2.5,2.5 0 0 1 779.5,467 L16.5,467 A2.5,2.5 0 0 1 14,464.5 L14,6.5 A2.5,2.5 0 0 1 16.5,4 " fill="none" style="stroke:#000000;stroke-width:1.5;"/><line style="stroke:#000000;stroke-width:1.5;" x1="14" x2="193.9883" y1="26.2969" y2="26.2969"/><text fill="#000000" font-family="sans-serif" font-size="14" font-weight="bold" lengthAdjust="spacing" textLength="166.9883" x="18" y="18.9951">it.unimi.di.prog2.e09</text></g><!--cluster java.lang--><g id="cluster_java.lang"><path d="M792.5,102 L865.8721,102 A3.75,3.75 0 0 1 868.3721,104.5 L875.3721,124.2969 L885.5,124.2969 A2.5,2.5 0 0 1 888,126.7969 L888,182.5 A2.5,2.5 0 0 1 885.5,185 L792.5,185 A2.5,2.5 0 0 1 790,182.5 L790,104.5 A2.5,2.5 0 0 1 792.5,102 " fill="none" style="stroke:#000000;stroke-width:1.5;"/><line style="stroke:#000000;stroke-width:1.5;" x1="790" x2="875.3721" y1="124.2969" y2="124.2969"/><text fill="#000000" font-family="sans-serif" font-size="14" font-weight="bold" lengthAdjust="spacing" textLength="72.3721" x="794" y="116.9951">java.lang</text></g><!--class SparsePolyClient--><a href="SparsePolyClient.html" target="_top" title="SparsePolyClient.html" xlink:actuate="onRequest" xlink:href="SparsePolyClient.html" xlink:show="new" xlink:title="SparsePolyClient.html" xlink:type="simple"><g id="elem_SparsePolyClient"><rect codeLine="6" fill="#F1F1F1" height="48" id="SparsePolyClient" rx="2.5" ry="2.5" style="stroke:#181818;stroke-width:0.5;" width="149.7285" x="268" y="129"/><ellipse cx="283" cy="145" fill="#ADD1B2" rx="11" ry="11" style="stroke:#181818;stroke-width:1.0;"/><path d="M285.9688,150.6406 Q285.3906,150.9375 284.75,151.0781 Q284.1094,151.2344 283.4063,151.2344 Q280.9063,151.2344 279.5781,149.5938 Q278.2656,147.9375 278.2656,144.8125 Q278.2656,141.6875 279.5781,140.0313 Q280.9063,138.375 283.4063,138.375 Q284.1094,138.375 284.75,138.5313 Q285.4063,138.6875 285.9688,138.9844 L285.9688,141.7031 Q285.3438,141.125 284.75,140.8594 Q284.1563,140.5781 283.5313,140.5781 Q282.1875,140.5781 281.5,141.6563 Q280.8125,142.7188 280.8125,144.8125 Q280.8125,146.9063 281.5,147.9844 Q282.1875,149.0469 283.5313,149.0469 Q284.1563,149.0469 284.75,148.7813 Q285.3438,148.5 285.9688,147.9219 L285.9688,150.6406 Z " fill="#000000"/><text fill="#000000" font-family="sans-serif" font-size="14" lengthAdjust="spacing" textLength="117.7285" x="297" y="149.8467">SparsePolyClient</text><line style="stroke:#181818;stroke-width:0.5;" x1="269" x2="416.7285" y1="161" y2="161"/><line style="stroke:#181818;stroke-width:0.5;" x1="269" x2="416.7285" y1="169" y2="169"/></g></a><!--class Poly--><a href="Poly.html" target="_top" title="Poly.html" xlink:actuate="onRequest" xlink:href="Poly.html" xlink:show="new" xlink:title="Poly.html" xlink:type="simple"><g id="elem_Poly"><rect codeLine="8" fill="#F1F1F1" height="243.5625" id="Poly" rx="2.5" ry="2.5" style="stroke:#181818;stroke-width:0.5;" width="337.8213" x="436" y="31"/><ellipse cx="586.0693" cy="47" fill="#ADD1B2" rx="11" ry="11" style="stroke:#181818;stroke-width:1.0;"/><path d="M589.0381,52.6406 Q588.46,52.9375 587.8193,53.0781 Q587.1787,53.2344 586.4756,53.2344 Q583.9756,53.2344 582.6475,51.5938 Q581.335,49.9375 581.335,46.8125 Q581.335,43.6875 582.6475,42.0313 Q583.9756,40.375 586.4756,40.375 Q587.1787,40.375 587.8193,40.5313 Q588.4756,40.6875 589.0381,40.9844 L589.0381,43.7031 Q588.4131,43.125 587.8193,42.8594 Q587.2256,42.5781 586.6006,42.5781 Q585.2568,42.5781 584.5693,43.6563 Q583.8818,44.7188 583.8818,46.8125 Q583.8818,48.9063 584.5693,49.9844 Q585.2568,51.0469 586.6006,51.0469 Q587.2256,51.0469 587.8193,50.7813 Q588.4131,50.5 589.0381,49.9219 L589.0381,52.6406 Z " fill="#000000"/><text fill="#000000" font-family="sans-serif" font-size="14" lengthAdjust="spacing" textLength="29.1826" x="606.5693" y="51.8467">Poly</text><line style="stroke:#181818;stroke-width:0.5;" x1="437" x2="772.8213" y1="63" y2="63"/><rect fill="none" height="6" style="stroke:#C82930;stroke-width:1.0;" width="6" x="444" y="73.6484"/><text fill="#000000" font-family="sans-serif" font-size="14" lengthAdjust="spacing" textLength="79.1328" x="456" y="79.9951">terms: int[]</text><rect fill="none" height="6" style="stroke:#C82930;stroke-width:1.0;" width="6" x="444" y="89.9453"/><text fill="#000000" font-family="sans-serif" font-size="14" lengthAdjust="spacing" textLength="53.8057" x="456" y="96.292">deg: int</text><line style="stroke:#181818;stroke-width:0.5;" x1="437" x2="772.8213" y1="103.5938" y2="103.5938"/><ellipse cx="447" cy="117.2422" fill="#84BE84" rx="3" ry="3" style="stroke:#038048;stroke-width:1.0;"/><text fill="#000000" font-family="sans-serif" font-size="14" lengthAdjust="spacing" textLength="40.1064" x="456" y="120.5889">Poly()</text><ellipse cx="447" cy="133.5391" fill="#84BE84" rx="3" ry="3" style="stroke:#038048;stroke-width:1.0;"/><text fill="#000000" font-family="sans-serif" font-size="14" lengthAdjust="spacing" textLength="85.5107" x="456" y="136.8857">Poly(int, int)</text><rect fill="#F24D5C" height="6" style="stroke:#C82930;stroke-width:1.0;" width="6" x="444" y="146.8359"/><text fill="#000000" font-family="sans-serif" font-size="14" lengthAdjust="spacing" textLength="58.3584" x="456" y="153.1826">Poly(int)</text><ellipse cx="447" cy="166.1328" fill="#84BE84" rx="3" ry="3" style="stroke:#038048;stroke-width:1.0;"/><text fill="#000000" font-family="sans-serif" font-size="14" lengthAdjust="spacing" text-decoration="underline" textLength="311.8213" x="456" y="169.4795">monomialWithCoeffAndDegree(int, int): Poly</text><ellipse cx="447" cy="182.4297" fill="#84BE84" rx="3" ry="3" style="stroke:#038048;stroke-width:1.0;"/><text fill="#000000" font-family="sans-serif" font-size="14" lengthAdjust="spacing" textLength="87.7119" x="456" y="185.7764">degree(): int</text><ellipse cx="447" cy="198.7266" fill="#84BE84" rx="3" ry="3" style="stroke:#038048;stroke-width:1.0;"/><text fill="#000000" font-family="sans-serif" font-size="14" lengthAdjust="spacing" textLength="91.3281" x="456" y="202.0732">coeff(int): int</text><ellipse cx="447" cy="215.0234" fill="#84BE84" rx="3" ry="3" style="stroke:#038048;stroke-width:1.0;"/><text fill="#000000" font-family="sans-serif" font-size="14" lengthAdjust="spacing" textLength="104.8086" x="456" y="218.3701">add(Poly): Poly</text><ellipse cx="447" cy="231.3203" fill="#84BE84" rx="3" ry="3" style="stroke:#038048;stroke-width:1.0;"/><text fill="#000000" font-family="sans-serif" font-size="14" lengthAdjust="spacing" textLength="104.8564" x="456" y="234.667">mul(Poly): Poly</text><ellipse cx="447" cy="247.6172" fill="#84BE84" rx="3" ry="3" style="stroke:#038048;stroke-width:1.0;"/><text fill="#000000" font-family="sans-serif" font-size="14" lengthAdjust="spacing" textLength="103.5098" x="456" y="250.9639">sub(Poly): Poly</text><ellipse cx="447" cy="263.9141" fill="#84BE84" rx="3" ry="3" style="stroke:#038048;stroke-width:1.0;"/><text fill="#000000" font-family="sans-serif" font-size="14" lengthAdjust="spacing" textLength="91.8408" x="456" y="267.2607">minus(): Poly</text></g></a><!--class SparsePoly--><a href="SparsePoly.html" target="_top" title="SparsePoly.html" xlink:actuate="onRequest" xlink:href="SparsePoly.html" xlink:show="new" xlink:title="SparsePoly.html" xlink:type="simple"><g id="elem_SparsePoly"><rect codeLine="23" fill="#F1F1F1" height="178.375" id="SparsePoly" rx="2.5" ry="2.5" style="stroke:#181818;stroke-width:0.5;" width="226.8877" x="22.5" y="64"/><ellipse cx="93.0947" cy="80" fill="#ADD1B2" rx="11" ry="11" style="stroke:#181818;stroke-width:1.0;"/><path d="M96.0635,85.6406 Q95.4854,85.9375 94.8447,86.0781 Q94.2041,86.2344 93.501,86.2344 Q91.001,86.2344 89.6729,84.5938 Q88.3604,82.9375 88.3604,79.8125 Q88.3604,76.6875 89.6729,75.0313 Q91.001,73.375 93.501,73.375 Q94.2041,73.375 94.8447,73.5313 Q95.501,73.6875 96.0635,73.9844 L96.0635,76.7031 Q95.4385,76.125 94.8447,75.8594 Q94.251,75.5781 93.626,75.5781 Q92.2822,75.5781 91.5947,76.6563 Q90.9072,77.7188 90.9072,79.8125 Q90.9072,81.9063 91.5947,82.9844 Q92.2822,84.0469 93.626,84.0469 Q94.251,84.0469 94.8447,83.7813 Q95.4385,83.5 96.0635,82.9219 L96.0635,85.6406 Z " fill="#000000"/><text fill="#000000" font-family="sans-serif" font-size="14" lengthAdjust="spacing" textLength="77.1982" x="113.5947" y="84.8467">SparsePoly</text><line style="stroke:#181818;stroke-width:0.5;" x1="23.5" x2="248.3877" y1="96" y2="96"/><line style="stroke:#181818;stroke-width:0.5;" x1="23.5" x2="248.3877" y1="104" y2="104"/><ellipse cx="33.5" cy="117.6484" fill="#84BE84" rx="3" ry="3" style="stroke:#038048;stroke-width:1.0;"/><text fill="#000000" font-family="sans-serif" font-size="14" lengthAdjust="spacing" textLength="88.1221" x="42.5" y="120.9951">SparsePoly()</text><ellipse cx="33.5" cy="133.9453" fill="#84BE84" rx="3" ry="3" style="stroke:#038048;stroke-width:1.0;"/><text fill="#000000" font-family="sans-serif" font-size="14" lengthAdjust="spacing" textLength="133.5264" x="42.5" y="137.292">SparsePoly(int, int)</text><ellipse cx="33.5" cy="150.2422" fill="#84BE84" rx="3" ry="3" style="stroke:#038048;stroke-width:1.0;"/><text fill="#000000" font-family="sans-serif" font-size="14" lengthAdjust="spacing" textLength="91.3281" x="42.5" y="153.5889">coeff(int): int</text><ellipse cx="33.5" cy="166.5391" fill="#84BE84" rx="3" ry="3" style="stroke:#038048;stroke-width:1.0;"/><text fill="#000000" font-family="sans-serif" font-size="14" lengthAdjust="spacing" textLength="87.7119" x="42.5" y="169.8857">degree(): int</text><ellipse cx="33.5" cy="182.8359" fill="#84BE84" rx="3" ry="3" style="stroke:#038048;stroke-width:1.0;"/><text fill="#000000" font-family="sans-serif" font-size="14" lengthAdjust="spacing" textLength="200.8398" x="42.5" y="186.1826">add(SparsePoly): SparsePoly</text><ellipse cx="33.5" cy="199.1328" fill="#84BE84" rx="3" ry="3" style="stroke:#038048;stroke-width:1.0;"/><text fill="#000000" font-family="sans-serif" font-size="14" lengthAdjust="spacing" textLength="200.8877" x="42.5" y="202.4795">mul(SparsePoly): SparsePoly</text><ellipse cx="33.5" cy="215.4297" fill="#84BE84" rx="3" ry="3" style="stroke:#038048;stroke-width:1.0;"/><text fill="#000000" font-family="sans-serif" font-size="14" lengthAdjust="spacing" textLength="199.541" x="42.5" y="218.7764">sub(SparsePoly): SparsePoly</text><ellipse cx="33.5" cy="231.7266" fill="#84BE84" rx="3" ry="3" style="stroke:#038048;stroke-width:1.0;"/><text fill="#000000" font-family="sans-serif" font-size="14" lengthAdjust="spacing" textLength="139.8564" x="42.5" y="235.0732">minus(): SparsePoly</text></g></a><!--class SparsePoly.Term--><a href="SparsePoly.Term.html" target="_top" title="SparsePoly.Term.html" xlink:actuate="onRequest" xlink:href="SparsePoly.Term.html" xlink:show="new" xlink:title="SparsePoly.Term.html" xlink:type="simple"><g id="elem_SparsePoly.Term"><rect codeLine="34" fill="#F1F1F1" height="129.4844" id="SparsePoly.Term" rx="2.5" ry="2.5" style="stroke:#181818;stroke-width:0.5;" width="150.207" x="108" y="330"/><ellipse cx="123" cy="346" fill="#ADD1B2" rx="11" ry="11" style="stroke:#181818;stroke-width:1.0;"/><path d="M125.9688,351.6406 Q125.3906,351.9375 124.75,352.0781 Q124.1094,352.2344 123.4063,352.2344 Q120.9063,352.2344 119.5781,350.5938 Q118.2656,348.9375 118.2656,345.8125 Q118.2656,342.6875 119.5781,341.0313 Q120.9063,339.375 123.4063,339.375 Q124.1094,339.375 124.75,339.5313 Q125.4063,339.6875 125.9688,339.9844 L125.9688,342.7031 Q125.3438,342.125 124.75,341.8594 Q124.1563,341.5781 123.5313,341.5781 Q122.1875,341.5781 121.5,342.6563 Q120.8125,343.7188 120.8125,345.8125 Q120.8125,347.9063 121.5,348.9844 Q122.1875,350.0469 123.5313,350.0469 Q124.1563,350.0469 124.75,349.7813 Q125.3438,349.5 125.9688,348.9219 L125.9688,351.6406 Z " fill="#000000"/><text fill="#000000" font-family="sans-serif" font-size="14" lengthAdjust="spacing" textLength="118.207" x="137" y="350.8467">SparsePoly.Term</text><line style="stroke:#181818;stroke-width:0.5;" x1="109" x2="257.207" y1="362" y2="362"/><rect fill="none" height="6" style="stroke:#C82930;stroke-width:1.0;" width="6" x="116" y="372.6484"/><text fill="#000000" font-family="sans-serif" font-size="14" lengthAdjust="spacing" textLength="62.1523" x="128" y="378.9951">coeff: int</text><rect fill="none" height="6" style="stroke:#C82930;stroke-width:1.0;" width="6" x="116" y="388.9453"/><text fill="#000000" font-family="sans-serif" font-size="14" lengthAdjust="spacing" textLength="76.7881" x="128" y="395.292">degree: int</text><line style="stroke:#181818;stroke-width:0.5;" x1="109" x2="257.207" y1="402.5938" y2="402.5938"/><ellipse cx="119" cy="416.2422" fill="#84BE84" rx="3" ry="3" style="stroke:#038048;stroke-width:1.0;"/><text fill="#000000" font-family="sans-serif" font-size="14" lengthAdjust="spacing" textLength="92.8867" x="128" y="419.5889">Term(int, int)</text><ellipse cx="119" cy="432.5391" fill="#84BE84" rx="3" ry="3" style="stroke:#038048;stroke-width:1.0;"/><text fill="#000000" font-family="sans-serif" font-size="14" lengthAdjust="spacing" textLength="73.0762" x="128" y="435.8857">coeff(): int</text><ellipse cx="119" cy="448.8359" fill="#84BE84" rx="3" ry="3" style="stroke:#038048;stroke-width:1.0;"/><text fill="#000000" font-family="sans-serif" font-size="14" lengthAdjust="spacing" textLength="87.7119" x="128" y="452.1826">degree(): int</text></g></a><!--class PolyClient--><a href="PolyClient.html" target="_top" title="PolyClient.html" xlink:actuate="onRequest" xlink:href="PolyClient.html" xlink:show="new" xlink:title="PolyClient.html" xlink:type="simple"><g id="elem_PolyClient"><rect codeLine="42" fill="#F1F1F1" height="48" id="PolyClient" rx="2.5" ry="2.5" style="stroke:#181818;stroke-width:0.5;" width="101.7129" x="292" y="370.5"/><ellipse cx="307" cy="386.5" fill="#ADD1B2" rx="11" ry="11" style="stroke:#181818;stroke-width:1.0;"/><path d="M309.9688,392.1406 Q309.3906,392.4375 308.75,392.5781 Q308.1094,392.7344 307.4063,392.7344 Q304.9063,392.7344 303.5781,391.0938 Q302.2656,389.4375 302.2656,386.3125 Q302.2656,383.1875 303.5781,381.5313 Q304.9063,379.875 307.4063,379.875 Q308.1094,379.875 308.75,380.0313 Q309.4063,380.1875 309.9688,380.4844 L309.9688,383.2031 Q309.3438,382.625 308.75,382.3594 Q308.1563,382.0781 307.5313,382.0781 Q306.1875,382.0781 305.5,383.1563 Q304.8125,384.2188 304.8125,386.3125 Q304.8125,388.4063 305.5,389.4844 Q306.1875,390.5469 307.5313,390.5469 Q308.1563,390.5469 308.75,390.2813 Q309.3438,390 309.9688,389.4219 L309.9688,392.1406 Z " fill="#000000"/><text fill="#000000" font-family="sans-serif" font-size="14" lengthAdjust="spacing" textLength="69.7129" x="321" y="391.3467">PolyClient</text><line style="stroke:#181818;stroke-width:0.5;" x1="293" x2="392.7129" y1="402.5" y2="402.5"/><line style="stroke:#181818;stroke-width:0.5;" x1="293" x2="392.7129" y1="410.5" y2="410.5"/></g></a><!--class Record--><a href="https://docs.oracle.com/en/java/javase/21/docs/api/java.base/java/lang/Record.html?is-external=true" target="_top" title="https://docs.oracle.com/en/java/javase/21/docs/api/java.base/java/lang/Record.html?is-external=true" xlink:actuate="onRequest" xlink:href="https://docs.oracle.com/en/java/javase/21/docs/api/java.base/java/lang/Record.html?is-external=true" xlink:show="new" xlink:title="https://docs.oracle.com/en/java/javase/21/docs/api/java.base/java/lang/Record.html?is-external=true" xlink:type="simple"><g id="elem_Record"><rect codeLine="47" fill="#F1F1F1" height="48" id="Record" rx="2.5" ry="2.5" style="stroke:#181818;stroke-width:0.5;" width="81.2461" x="798.5" y="129"/><ellipse cx="813.5" cy="145" fill="#A9DCDF" rx="11" ry="11" style="stroke:#181818;stroke-width:1.0;"/><path d="M813.6094,140.3438 L812.4531,145.4219 L814.7813,145.4219 L813.6094,140.3438 Z M812.125,138.1094 L815.1094,138.1094 L818.4688,150.5 L816.0156,150.5 L815.25,147.4375 L811.9688,147.4375 L811.2188,150.5 L808.7813,150.5 L812.125,138.1094 Z " fill="#000000"/><text fill="#000000" font-family="sans-serif" font-size="14" font-style="italic" lengthAdjust="spacing" textLength="49.2461" x="827.5" y="149.8467">Record</text><line style="stroke:#181818;stroke-width:0.5;" x1="799.5" x2="878.7461" y1="161" y2="161"/><line style="stroke:#181818;stroke-width:0.5;" x1="799.5" x2="878.7461" y1="169" y2="169"/></g></a><polygon fill="#181818" points="143.1939,329.8339,143.3853,319.9869,141.2524,325.2262,136.013,323.0933,143.1939,329.8339" style="stroke:#181818;stroke-width:1.0;"/><path d="M128.7268,242.3872 C128.9555,265.3608 131.1097,289.8654 137,312 C138.5877,317.9664 138.3879,318.4281 140.8641,324.3047 " fill="none" style="stroke:#181818;stroke-width:1.0;"/><text fill="#000000" font-family="sans-serif" font-size="13" lengthAdjust="spacing" textLength="37.8765" x="139" y="307.0669">terms</text><text fill="#000000" font-family="sans-serif" font-size="13" lengthAdjust="spacing" textLength="6.5" x="136.1939" y="325.9008">*</text><polygon fill="none" points="835.8053,177.4832,826.6502,194.102,838.4525,196.2713,835.8053,177.4832" style="stroke:#181818;stroke-width:1.0;"/><path d="M832.5513,195.1866 C827.3839,223.3005 817.6087,251.7871 786,275 C695.37,341.5572 389.1067,292.7841 283,330 C274.6552,332.9269 266.2924,336.662 258.153,340.8514 " fill="none" style="stroke:#181818;stroke-width:1.0;"/><ellipse cx="168.3296" cy="249.9074" fill="#FFFFFF" rx="8" ry="8" style="stroke:#181818;stroke-width:1.0;"/><line style="stroke:#181818;stroke-width:1.0;" x1="170.4994" x2="166.1599" y1="257.6076" y2="242.2073"/><line style="stroke:#181818;stroke-width:1.0;" x1="160.6295" x2="176.0298" y1="252.0772" y2="247.7377"/><path d="M170.4994,257.6076 C175.2047,274.3057 175.1163,276.3576 178,293 C180.058,304.877 181.3698,317.6525 182.1883,329.9795 " fill="none" style="stroke:#181818;stroke-width:1.0;"/><text fill="#888888" font-family="sans-serif" font-size="10" lengthAdjust="spacing" textLength="3.1787" x="437.9106" y="478.2822">&#160;</text><text fill="#888888" font-family="sans-serif" font-size="10" lengthAdjust="spacing" textLength="183.0908" x="347.9546" y="489.9229">UMLDoclet 2.2.0, PlantUML 1.2024.6</text><!--SRC=[bLHHRzCm47xVhpWc8QLqSKRVY0O8ROyWJS34Gyd3DRcc1iUER6TY6ltls4wt9csQ1JyaydUVFzzzPni0u5MjiQmG13weneAfoAB4CnS1GsvEDMgqIaEQdWMqnlmtbWJSiaRoYhE2irghSi7eyXqyjYG_Se76m3Uttj2j4W_NWfEqi5mUGcnZAv5bXoizmR7zRyTmwj0PiILTcHIujCki7oce37WFdNkfQ3Q0EUQ5f_TZyLEi3pyQYvRdMvXNIggAe_Z1xUPQqNhzIHOtL6gYlM8QwkZlMRISsK2AkPU9seL7GIoAoAiDYbQDE1qqpMfa9PUDYGv3szETxFLmk3VpFU7GyKvasFTn4qRCy_xirHrZFpdsQXBH-pPDySd30SA8a-oxEy9zEprouhm7NuxhZbjB1WpnMkCcJtTuEtG_d-_qYTkyxRyPl_0UcK1PTYh3bR4QSxjJ_KgvqeLJt5XRcpH92fKRfXn34CjLbP1Cl4pu64eMRmCZmPe7YAqy6XX-ewJL2qbzv2QcF-xHa2ZUMzrGbdMJ77pGqhHpxEFu0vo_EN-P6PgOGdYVWlPpuMcwA_3gRnnF59gOtVp_17FNAzAmLih_VigxBvzlb3FPme8jsEK5tBfyhKFXzJrfmvMCPly0]--></g></svg>