<svg xmlns="http://www.w3.org/2000/svg" xmlns:xlink="http://www.w3.org/1999/xlink" contentStyleType="text/css" height="303px" preserveAspectRatio="none" style="width:237px;height:303px;background:#FFFFFF;" version="1.1" viewBox="0 0 237 303" width="237px" zoomAndPan="magnify"><defs/><g><!--class it.unimi.di.prog2.s15.IntRange--><a href="IntRange.html" target="_top" title="IntRange.html" xlink:actuate="onRequest" xlink:href="IntRange.html" xlink:show="new" xlink:title="IntRange.html" xlink:type="simple"><g id="elem_it.unimi.di.prog2.s15.IntRange"><rect codeLine="7" fill="#F1F1F1" height="168.0156" id="it.unimi.di.prog2.s15.IntRange" rx="2.5" ry="2.5" style="stroke:#181818;stroke-width:0.5;" width="224.4268" x="6" y="110"/><ellipse cx="62.0957" cy="128.9688" fill="#ADD1B2" rx="11" ry="11" style="stroke:#181818;stroke-width:1.0;"/><path d="M65.0645,134.6094 Q64.4863,134.9063 63.8457,135.0469 Q63.2051,135.2031 62.502,135.2031 Q60.002,135.2031 58.6738,133.5625 Q57.3613,131.9063 57.3613,128.7813 Q57.3613,125.6563 58.6738,124 Q60.002,122.3438 62.502,122.3438 Q63.2051,122.3438 63.8457,122.5 Q64.502,122.6563 65.0645,122.9531 L65.0645,125.6719 Q64.4395,125.0938 63.8457,124.8281 Q63.252,124.5469 62.627,124.5469 Q61.2832,124.5469 60.5957,125.625 Q59.9082,126.6875 59.9082,128.7813 Q59.9082,130.875 60.5957,131.9531 Q61.2832,133.0156 62.627,133.0156 Q63.252,133.0156 63.8457,132.75 Q64.4395,132.4688 65.0645,131.8906 L65.0645,134.6094 Z " fill="#000000"/><text fill="#000000" font-family="sans-serif" font-size="14" lengthAdjust="spacing" textLength="63.1709" x="102.8779" y="127.9951">IntRange</text><text fill="#000000" font-family="sans-serif" font-size="10" lengthAdjust="spacing" textLength="103.7354" x="82.5957" y="140.5791">it.unimi.di.prog2.s15</text><line style="stroke:#181818;stroke-width:0.5;" x1="7" x2="229.4268" y1="147.9375" y2="147.9375"/><rect fill="none" height="6" style="stroke:#C82930;stroke-width:1.0;" width="6" x="14" y="158.5859"/><text fill="#000000" font-family="sans-serif" font-size="14" lengthAdjust="spacing" textLength="60.3066" x="26" y="164.9326">from: int</text><rect fill="none" height="6" style="stroke:#C82930;stroke-width:1.0;" width="6" x="14" y="174.8828"/><text fill="#000000" font-family="sans-serif" font-size="14" lengthAdjust="spacing" textLength="41.4736" x="26" y="181.2295">to: int</text><rect fill="none" height="6" style="stroke:#C82930;stroke-width:1.0;" width="6" x="14" y="191.1797"/><text fill="#000000" font-family="sans-serif" font-size="14" lengthAdjust="spacing" textLength="57.7021" x="26" y="197.5264">step: int</text><line style="stroke:#181818;stroke-width:0.5;" x1="7" x2="229.4268" y1="204.8281" y2="204.8281"/><ellipse cx="17" cy="218.4766" fill="#84BE84" rx="3" ry="3" style="stroke:#038048;stroke-width:1.0;"/><text fill="#000000" font-family="sans-serif" font-size="14" lengthAdjust="spacing" textLength="100.8574" x="26" y="221.8232">from(int): void</text><ellipse cx="17" cy="234.7734" fill="#84BE84" rx="3" ry="3" style="stroke:#038048;stroke-width:1.0;"/><text fill="#000000" font-family="sans-serif" font-size="14" lengthAdjust="spacing" textLength="82.0244" x="26" y="238.1201">to(int): void</text><ellipse cx="17" cy="251.0703" fill="#84BE84" rx="3" ry="3" style="stroke:#038048;stroke-width:1.0;"/><text fill="#000000" font-family="sans-serif" font-size="14" lengthAdjust="spacing" textLength="98.2529" x="26" y="254.417">step(int): void</text><ellipse cx="17" cy="267.3672" fill="#84BE84" rx="3" ry="3" style="stroke:#038048;stroke-width:1.0;"/><text fill="#000000" font-family="sans-serif" font-size="14" lengthAdjust="spacing" textLength="198.4268" x="26" y="270.7139">iterator(): Iterator&lt;Integer&gt;</text></g></a><!--class java.lang.Iterable--><a href="https://docs.oracle.com/en/java/javase/21/docs/api/java.base/java/lang/Iterable.html?is-external=true" target="_top" title="https://docs.oracle.com/en/java/javase/21/docs/api/java.base/java/lang/Iterable.html?is-external=true" xlink:actuate="onRequest" xlink:href="https://docs.oracle.com/en/java/javase/21/docs/api/java.base/java/lang/Iterable.html?is-external=true" xlink:show="new" xlink:title="https://docs.oracle.com/en/java/javase/21/docs/api/java.base/java/lang/Iterable.html?is-external=true" xlink:type="simple"><g id="elem_java.lang.Iterable"><rect codeLine="17" fill="#F1F1F1" height="62.2344" id="java.lang.Iterable" rx="2.5" ry="2.5" style="stroke:#181818;stroke-width:0.5;" width="182.6182" x="26.5" y="12"/><ellipse cx="63.7732" cy="30.9688" fill="#B4A7E5" rx="11" ry="11" style="stroke:#181818;stroke-width:1.0;"/><path d="M59.6951,26.7344 L59.6951,24.5781 L67.0857,24.5781 L67.0857,26.7344 L64.617,26.7344 L64.617,34.8125 L67.0857,34.8125 L67.0857,36.9688 L59.6951,36.9688 L59.6951,34.8125 L62.1639,34.8125 L62.1639,26.7344 L59.6951,26.7344 Z " fill="#000000"/><text fill="#000000" font-family="sans-serif" font-size="14" font-style="italic" lengthAdjust="spacing" textLength="53.9561" x="82.7229" y="29.9951">Iterable</text><text fill="#000000" font-family="sans-serif" font-size="10" font-style="italic" lengthAdjust="spacing" textLength="45.7227" x="86.8396" y="42.5791">java.lang</text><rect fill="#FFFFFF" height="15.9688" style="stroke:#181818;stroke-width:1.0;stroke-dasharray:2.0,2.0;" width="45.166" x="166.9521" y="9"/><text fill="#000000" font-family="sans-serif" font-size="12" font-style="italic" lengthAdjust="spacing" textLength="43.166" x="167.9521" y="21.1387">Integer</text><line style="stroke:#181818;stroke-width:0.5;" x1="27.5" x2="208.1182" y1="49.9375" y2="49.9375"/><ellipse cx="37.5" cy="63.5859" fill="#84BE84" rx="3" ry="3" style="stroke:#038048;stroke-width:1.0;"/><text fill="#000000" font-family="sans-serif" font-size="14" font-style="italic" lengthAdjust="spacing" textLength="156.6182" x="46.5" y="66.9326">iterator(): Iterator&lt;T&gt;</text></g></a><polygon fill="none" points="118,74.1524,112,92.1524,124,92.1524,118,74.1524" style="stroke:#181818;stroke-width:1.0;"/><path d="M118,92.1524 C118,102.6968 118,97.1047 118,109.8551 " fill="none" style="stroke:#181818;stroke-width:1.0;stroke-dasharray:7.0,7.0;"/><text fill="#888888" font-family="sans-serif" font-size="10" lengthAdjust="spacing" textLength="3.1787" x="112.9106" y="281.2822">&#160;</text><text fill="#888888" font-family="sans-serif" font-size="10" lengthAdjust="spacing" textLength="183.0908" x="22.9546" y="292.9229">UMLDoclet 2.2.0, PlantUML 1.2024.6</text><!--SRC=[XP9DJy9048Rl_8gHn0IYR87efK6yU27HnFXn0Wv3ExHhsjrcTo0Yyj_TNRuHOm_jzdbdtjrvMm20YyfWLY8KkD0p1biIey9QpKbWYK5XIRR2X5wfGeEi3IYjAEYvJ0ceh7W1Kqb5Qa-fCykrmu4d1LeBzPwLNnHtRle3nI-eCXgf3Mht9OkPagKKgHILqLbNsCvj7T32MKLiBM0ut2v5pcKn7iCoxEclrjJeCWQfU8zOdm3BL1sZAz_MSAGPmrpBT2-mFekznLb1CeNW6auPRDOzTrxAoFH3sMgTa6icCtLP7wRa6oR5OKeVE4THk653ChitiItTURjOSkRAnb6KwiGARJ0fI2IwZ4X5lZ7SB4NTJgY8i981YOcdeS9RHrlhaEwzj2twT4HXSSTcHaTnBt5YsMt4gpycVpkQ-VVneVSjn3yVVFr3aSyBfbhxnqYzFpq-Q3SWGrTqHViQdfqlEmgNSp9MQjLe_W00]--></g></svg>