<svg xmlns="http://www.w3.org/2000/svg" xmlns:xlink="http://www.w3.org/1999/xlink" contentStyleType="text/css" height="474px" preserveAspectRatio="none" style="width:861px;height:474px;background:#FFFFFF;" version="1.1" viewBox="0 0 861 474" width="861px" zoomAndPan="magnify"><defs/><g><!--cluster it.unimi.di.prog2.s15--><g id="cluster_it.unimi.di.prog2.s15"><path d="M48.5,144 L215.3262,144 A3.75,3.75 0 0 1 217.8262,146.5 L224.8262,166.2969 L851.5,166.2969 A2.5,2.5 0 0 1 854,168.7969 L854,438.5 A2.5,2.5 0 0 1 851.5,441 L48.5,441 A2.5,2.5 0 0 1 46,438.5 L46,146.5 A2.5,2.5 0 0 1 48.5,144 " fill="none" style="stroke:#000000;stroke-width:1.5;"/><line style="stroke:#000000;stroke-width:1.5;" x1="46" x2="224.8262" y1="166.2969" y2="166.2969"/><text fill="#000000" font-family="sans-serif" font-size="14" font-weight="bold" lengthAdjust="spacing" textLength="165.8262" x="50" y="158.9951">it.unimi.di.prog2.s15</text></g><!--cluster java.lang--><g id="cluster_java.lang"><path d="M16.5,4 L89.8721,4 A3.75,3.75 0 0 1 92.3721,6.5 L99.3721,26.2969 L315.5,26.2969 A2.5,2.5 0 0 1 318,28.7969 L318,133.5 A2.5,2.5 0 0 1 315.5,136 L16.5,136 A2.5,2.5 0 0 1 14,133.5 L14,6.5 A2.5,2.5 0 0 1 16.5,4 " fill="none" style="stroke:#000000;stroke-width:1.5;"/><line style="stroke:#000000;stroke-width:1.5;" x1="14" x2="99.3721" y1="26.2969" y2="26.2969"/><text fill="#000000" font-family="sans-serif" font-size="14" font-weight="bold" lengthAdjust="spacing" textLength="72.3721" x="18" y="18.9951">java.lang</text></g><!--class IntRangeClient--><a href="IntRangeClient.html" target="_top" title="IntRangeClient.html" xlink:actuate="onRequest" xlink:href="IntRangeClient.html" xlink:show="new" xlink:title="IntRangeClient.html" xlink:type="simple"><g id="elem_IntRangeClient"><rect codeLine="6" fill="#F1F1F1" height="64.2969" id="IntRangeClient" rx="2.5" ry="2.5" style="stroke:#181818;stroke-width:0.5;" width="163.4023" x="296.5" y="220"/><ellipse cx="323.9655" cy="236" fill="#ADD1B2" rx="11" ry="11" style="stroke:#181818;stroke-width:1.0;"/><path d="M326.9343,241.6406 Q326.3562,241.9375 325.7155,242.0781 Q325.0749,242.2344 324.3718,242.2344 Q321.8718,242.2344 320.5437,240.5938 Q319.2312,238.9375 319.2312,235.8125 Q319.2312,232.6875 320.5437,231.0313 Q321.8718,229.375 324.3718,229.375 Q325.0749,229.375 325.7155,229.5313 Q326.3718,229.6875 326.9343,229.9844 L326.9343,232.7031 Q326.3093,232.125 325.7155,231.8594 Q325.1218,231.5781 324.4968,231.5781 Q323.153,231.5781 322.4655,232.6563 Q321.778,233.7188 321.778,235.8125 Q321.778,237.9063 322.4655,238.9844 Q323.153,240.0469 324.4968,240.0469 Q325.1218,240.0469 325.7155,239.7813 Q326.3093,239.5 326.9343,238.9219 L326.9343,241.6406 Z " fill="#000000"/><text fill="#000000" font-family="sans-serif" font-size="14" lengthAdjust="spacing" textLength="103.7012" x="340.7356" y="240.8467">IntRangeClient</text><line style="stroke:#181818;stroke-width:0.5;" x1="297.5" x2="458.9023" y1="252" y2="252"/><line style="stroke:#181818;stroke-width:0.5;" x1="297.5" x2="458.9023" y1="260" y2="260"/><ellipse cx="307.5" cy="273.6484" fill="#84BE84" rx="3" ry="3" style="stroke:#038048;stroke-width:1.0;"/><text fill="#000000" font-family="sans-serif" font-size="14" lengthAdjust="spacing" text-decoration="underline" textLength="137.4023" x="316.5" y="276.9951">main(String[]): void</text></g></a><!--class IntRange--><a href="IntRange.html" target="_top" title="IntRange.html" xlink:actuate="onRequest" xlink:href="IntRange.html" xlink:show="new" xlink:title="IntRange.html" xlink:type="simple"><g id="elem_IntRange"><rect codeLine="10" fill="#F1F1F1" height="162.0781" id="IntRange" rx="2.5" ry="2.5" style="stroke:#181818;stroke-width:0.5;" width="224.4268" x="54" y="171"/><ellipse cx="130.3779" cy="187" fill="#ADD1B2" rx="11" ry="11" style="stroke:#181818;stroke-width:1.0;"/><path d="M133.3467,192.6406 Q132.7686,192.9375 132.1279,193.0781 Q131.4873,193.2344 130.7842,193.2344 Q128.2842,193.2344 126.9561,191.5938 Q125.6436,189.9375 125.6436,186.8125 Q125.6436,183.6875 126.9561,182.0313 Q128.2842,180.375 130.7842,180.375 Q131.4873,180.375 132.1279,180.5313 Q132.7842,180.6875 133.3467,180.9844 L133.3467,183.7031 Q132.7217,183.125 132.1279,182.8594 Q131.5342,182.5781 130.9092,182.5781 Q129.5654,182.5781 128.8779,183.6563 Q128.1904,184.7188 128.1904,186.8125 Q128.1904,188.9063 128.8779,189.9844 Q129.5654,191.0469 130.9092,191.0469 Q131.5342,191.0469 132.1279,190.7813 Q132.7217,190.5 133.3467,189.9219 L133.3467,192.6406 Z " fill="#000000"/><text fill="#000000" font-family="sans-serif" font-size="14" lengthAdjust="spacing" textLength="63.1709" x="150.8779" y="191.8467">IntRange</text><line style="stroke:#181818;stroke-width:0.5;" x1="55" x2="277.4268" y1="203" y2="203"/><rect fill="none" height="6" style="stroke:#C82930;stroke-width:1.0;" width="6" x="62" y="213.6484"/><text fill="#000000" font-family="sans-serif" font-size="14" lengthAdjust="spacing" textLength="60.3066" x="74" y="219.9951">from: int</text><rect fill="none" height="6" style="stroke:#C82930;stroke-width:1.0;" width="6" x="62" y="229.9453"/><text fill="#000000" font-family="sans-serif" font-size="14" lengthAdjust="spacing" textLength="41.4736" x="74" y="236.292">to: int</text><rect fill="none" height="6" style="stroke:#C82930;stroke-width:1.0;" width="6" x="62" y="246.2422"/><text fill="#000000" font-family="sans-serif" font-size="14" lengthAdjust="spacing" textLength="57.7021" x="74" y="252.5889">step: int</text><line style="stroke:#181818;stroke-width:0.5;" x1="55" x2="277.4268" y1="259.8906" y2="259.8906"/><ellipse cx="65" cy="273.5391" fill="#84BE84" rx="3" ry="3" style="stroke:#038048;stroke-width:1.0;"/><text fill="#000000" font-family="sans-serif" font-size="14" lengthAdjust="spacing" textLength="100.8574" x="74" y="276.8857">from(int): void</text><ellipse cx="65" cy="289.8359" fill="#84BE84" rx="3" ry="3" style="stroke:#038048;stroke-width:1.0;"/><text fill="#000000" font-family="sans-serif" font-size="14" lengthAdjust="spacing" textLength="82.0244" x="74" y="293.1826">to(int): void</text><ellipse cx="65" cy="306.1328" fill="#84BE84" rx="3" ry="3" style="stroke:#038048;stroke-width:1.0;"/><text fill="#000000" font-family="sans-serif" font-size="14" lengthAdjust="spacing" textLength="98.2529" x="74" y="309.4795">step(int): void</text><ellipse cx="65" cy="322.4297" fill="#84BE84" rx="3" ry="3" style="stroke:#038048;stroke-width:1.0;"/><text fill="#000000" font-family="sans-serif" font-size="14" lengthAdjust="spacing" textLength="198.4268" x="74" y="325.7764">iterator(): Iterator&lt;Integer&gt;</text></g></a><!--class StringIterators--><a href="StringIterators.html" target="_top" title="StringIterators.html" xlink:actuate="onRequest" xlink:href="StringIterators.html" xlink:show="new" xlink:title="StringIterators.html" xlink:type="simple"><g id="elem_StringIterators"><rect codeLine="20" fill="#F1F1F1" height="80.5938" id="StringIterators" rx="2.5" ry="2.5" style="stroke:#181818;stroke-width:0.5;" width="368.0908" x="478" y="211.5"/><ellipse cx="607.0693" cy="227.5" fill="#ADD1B2" rx="11" ry="11" style="stroke:#181818;stroke-width:1.0;"/><path d="M610.0381,233.1406 Q609.46,233.4375 608.8193,233.5781 Q608.1787,233.7344 607.4756,233.7344 Q604.9756,233.7344 603.6475,232.0938 Q602.335,230.4375 602.335,227.3125 Q602.335,224.1875 603.6475,222.5313 Q604.9756,220.875 607.4756,220.875 Q608.1787,220.875 608.8193,221.0313 Q609.4756,221.1875 610.0381,221.4844 L610.0381,224.2031 Q609.4131,223.625 608.8193,223.3594 Q608.2256,223.0781 607.6006,223.0781 Q606.2568,223.0781 605.5693,224.1563 Q604.8818,225.2188 604.8818,227.3125 Q604.8818,229.4063 605.5693,230.4844 Q606.2568,231.5469 607.6006,231.5469 Q608.2256,231.5469 608.8193,231.2813 Q609.4131,231 610.0381,230.4219 L610.0381,233.1406 Z " fill="#000000"/><text fill="#000000" font-family="sans-serif" font-size="14" lengthAdjust="spacing" textLength="101.4521" x="627.5693" y="232.3467">StringIterators</text><line style="stroke:#181818;stroke-width:0.5;" x1="479" x2="845.0908" y1="243.5" y2="243.5"/><line style="stroke:#181818;stroke-width:0.5;" x1="479" x2="845.0908" y1="251.5" y2="251.5"/><ellipse cx="489" cy="265.1484" fill="#84BE84" rx="3" ry="3" style="stroke:#038048;stroke-width:1.0;"/><text fill="#000000" font-family="sans-serif" font-size="14" lengthAdjust="spacing" text-decoration="underline" textLength="342.0908" x="498" y="268.4951">evenIterator(Iterator&lt;String&gt;): Iterator&lt;String&gt;</text><ellipse cx="489" cy="281.4453" fill="#84BE84" rx="3" ry="3" style="stroke:#038048;stroke-width:1.0;"/><text fill="#000000" font-family="sans-serif" font-size="14" lengthAdjust="spacing" text-decoration="underline" textLength="328.5283" x="498" y="284.792">uppercase(Iterator&lt;String&gt;): Iterator&lt;String&gt;</text></g></a><!--class StringIteratorsClient--><a href="StringIteratorsClient.html" target="_top" title="StringIteratorsClient.html" xlink:actuate="onRequest" xlink:href="StringIteratorsClient.html" xlink:show="new" xlink:title="StringIteratorsClient.html" xlink:type="simple"><g id="elem_StringIteratorsClient"><rect codeLine="25" fill="#F1F1F1" height="64.2969" id="StringIteratorsClient" rx="2.5" ry="2.5" style="stroke:#181818;stroke-width:0.5;" width="173.9824" x="291" y="369"/><ellipse cx="306" cy="385" fill="#ADD1B2" rx="11" ry="11" style="stroke:#181818;stroke-width:1.0;"/><path d="M308.9688,390.6406 Q308.3906,390.9375 307.75,391.0781 Q307.1094,391.2344 306.4063,391.2344 Q303.9063,391.2344 302.5781,389.5938 Q301.2656,387.9375 301.2656,384.8125 Q301.2656,381.6875 302.5781,380.0313 Q303.9063,378.375 306.4063,378.375 Q307.1094,378.375 307.75,378.5313 Q308.4063,378.6875 308.9688,378.9844 L308.9688,381.7031 Q308.3438,381.125 307.75,380.8594 Q307.1563,380.5781 306.5313,380.5781 Q305.1875,380.5781 304.5,381.6563 Q303.8125,382.7188 303.8125,384.8125 Q303.8125,386.9063 304.5,387.9844 Q305.1875,389.0469 306.5313,389.0469 Q307.1563,389.0469 307.75,388.7813 Q308.3438,388.5 308.9688,387.9219 L308.9688,390.6406 Z " fill="#000000"/><text fill="#000000" font-family="sans-serif" font-size="14" lengthAdjust="spacing" textLength="141.9824" x="320" y="389.8467">StringIteratorsClient</text><line style="stroke:#181818;stroke-width:0.5;" x1="292" x2="463.9824" y1="401" y2="401"/><line style="stroke:#181818;stroke-width:0.5;" x1="292" x2="463.9824" y1="409" y2="409"/><ellipse cx="302" cy="422.6484" fill="#84BE84" rx="3" ry="3" style="stroke:#038048;stroke-width:1.0;"/><text fill="#000000" font-family="sans-serif" font-size="14" lengthAdjust="spacing" text-decoration="underline" textLength="137.4023" x="311" y="425.9951">main(String[]): void</text></g></a><!--class Iterable--><a href="https://docs.oracle.com/en/java/javase/21/docs/api/java.base/java/lang/Iterable.html?is-external=true" target="_top" title="https://docs.oracle.com/en/java/javase/21/docs/api/java.base/java/lang/Iterable.html?is-external=true" xlink:actuate="onRequest" xlink:href="https://docs.oracle.com/en/java/javase/21/docs/api/java.base/java/lang/Iterable.html?is-external=true" xlink:show="new" xlink:title="https://docs.oracle.com/en/java/javase/21/docs/api/java.base/java/lang/Iterable.html?is-external=true" xlink:type="simple"><g id="elem_Iterable"><rect codeLine="32" fill="#F1F1F1" height="96.8906" id="Iterable" rx="2.5" ry="2.5" style="stroke:#181818;stroke-width:0.5;" width="288.1172" x="22" y="31"/><ellipse cx="129.1655" cy="47" fill="#B4A7E5" rx="11" ry="11" style="stroke:#181818;stroke-width:1.0;"/><path d="M125.0874,42.7656 L125.0874,40.6094 L132.478,40.6094 L132.478,42.7656 L130.0093,42.7656 L130.0093,50.8438 L132.478,50.8438 L132.478,53 L125.0874,53 L125.0874,50.8438 L127.5562,50.8438 L127.5562,42.7656 L125.0874,42.7656 Z " fill="#000000"/><text fill="#000000" font-family="sans-serif" font-size="14" font-style="italic" lengthAdjust="spacing" textLength="53.9561" x="149.6655" y="51.8467">Iterable</text><rect fill="#FFFFFF" height="15.9688" style="stroke:#181818;stroke-width:1.0;stroke-dasharray:2.0,2.0;" width="9.3301" x="303.7871" y="28"/><text fill="#000000" font-family="sans-serif" font-size="12" font-style="italic" lengthAdjust="spacing" textLength="7.3301" x="304.7871" y="40.1387">T</text><line style="stroke:#181818;stroke-width:0.5;" x1="23" x2="309.1172" y1="63" y2="63"/><line style="stroke:#181818;stroke-width:0.5;" x1="23" x2="309.1172" y1="71" y2="71"/><ellipse cx="33" cy="84.6484" fill="#84BE84" rx="3" ry="3" style="stroke:#038048;stroke-width:1.0;"/><text fill="#000000" font-family="sans-serif" font-size="14" font-style="italic" lengthAdjust="spacing" textLength="156.6182" x="42" y="87.9951">iterator(): Iterator&lt;T&gt;</text><ellipse cx="33" cy="100.9453" fill="#84BE84" rx="3" ry="3" style="stroke:#038048;stroke-width:1.0;"/><text fill="#000000" font-family="sans-serif" font-size="14" lengthAdjust="spacing" textLength="262.1172" x="42" y="104.292">forEach(Consumer&lt;? super T&gt;): void</text><ellipse cx="33" cy="117.2422" fill="#84BE84" rx="3" ry="3" style="stroke:#038048;stroke-width:1.0;"/><text fill="#000000" font-family="sans-serif" font-size="14" lengthAdjust="spacing" textLength="198.1123" x="42" y="120.5889">spliterator(): Spliterator&lt;T&gt;</text></g></a><polygon fill="none" points="166,128.4475,160,146.4475,172,146.4475,166,128.4475" style="stroke:#181818;stroke-width:1.0;"/><path d="M166,146.4475 C166,159.6459 166,156.3302 166,170.8186 " fill="none" style="stroke:#181818;stroke-width:1.0;stroke-dasharray:7.0,7.0;"/><text fill="#888888" font-family="sans-serif" font-size="10" lengthAdjust="spacing" textLength="3.1787" x="420.9106" y="452.2822">&#160;</text><text fill="#888888" font-family="sans-serif" font-size="10" lengthAdjust="spacing" textLength="183.0908" x="330.9546" y="463.9229">UMLDoclet 2.2.0, PlantUML 1.2024.6</text><!--SRC=[hLHDZzCm4BtlhnWEI5ajwx2Lk4GbUrWuh0GIOikfsyFKdQO6nxRiIGLQyjznt0_IRg8L4ZuayPln6x_dSG00NZcFLOsWyPTj649DZ0OlOWG2nJavzCZMGr5S9DIX_84LWMBH65KhiLB2ULjDHBXv1q-xf6v8ZI70lU6lQ2gwqueCmtn-2eWDrtgnYEkWDvu28olPmbMDocGFx9MfvelB0hPMhOwfxLYnNfdX0jThR-i2bE5JcEq069ZSS_YgeyWYUhwh56Gx6kheHeEAATcTnUZz_diQjL15lXmNldFei214_MV8IpxJbimXEJiMtf6K_RtieH6QnZdo4WFz4yTBSewzCuZ_ZnPgJtlxEsvHwDW-FT9uOkJNA6cdOwbfEYlZdZRCBXHvlh8o2EjHQXBIrZcPlAD9Zq3vv2PbvEXKWiIoGrD6LoW_a2OrjofSqy-86DJlsJVqN1uk0yTYt8xqpAmywrRhFwBSP7VMXAOcFxs5qCJ3WbavtALEztaV_axxr6tVlQDhHN5G0zFVGWp_AcBI_egcnP8wVs5jRVTwDDy-V_fWevSC4p4HRz_0byZC4ONNM_91MPDT_W40]--></g></svg>