<svg xmlns="http://www.w3.org/2000/svg" xmlns:xlink="http://www.w3.org/1999/xlink" contentStyleType="text/css" height="99px" preserveAspectRatio="none" style="width:191px;height:99px;background:#FFFFFF;" version="1.1" viewBox="0 0 191 99" width="191px" zoomAndPan="magnify"><defs/><g><!--class it.unimi.di.prog2.s15.StringIteratorsClient--><a href="StringIteratorsClient.html" target="_top" title="StringIteratorsClient.html" xlink:actuate="onRequest" xlink:href="StringIteratorsClient.html" xlink:show="new" xlink:title="StringIteratorsClient.html" xlink:type="simple"><g id="elem_it.unimi.di.prog2.s15.StringIteratorsClient"><rect codeLine="7" fill="#F1F1F1" height="62.2344" id="it.unimi.di.prog2.s15.StringIteratorsClient" rx="2.5" ry="2.5" style="stroke:#181818;stroke-width:0.5;" width="173.9824" x="8.0454" y="12"/><ellipse cx="23.0454" cy="30.9688" fill="#ADD1B2" rx="11" ry="11" style="stroke:#181818;stroke-width:1.0;"/><path d="M26.0142,36.6094 Q25.436,36.9063 24.7954,37.0469 Q24.1548,37.2031 23.4517,37.2031 Q20.9517,37.2031 19.6235,35.5625 Q18.311,33.9063 18.311,30.7813 Q18.311,27.6563 19.6235,26 Q20.9517,24.3438 23.4517,24.3438 Q24.1548,24.3438 24.7954,24.5 Q25.4517,24.6563 26.0142,24.9531 L26.0142,27.6719 Q25.3892,27.0938 24.7954,26.8281 Q24.2017,26.5469 23.5767,26.5469 Q22.2329,26.5469 21.5454,27.625 Q20.8579,28.6875 20.8579,30.7813 Q20.8579,32.875 21.5454,33.9531 Q22.2329,35.0156 23.5767,35.0156 Q24.2017,35.0156 24.7954,34.75 Q25.3892,34.4688 26.0142,33.8906 L26.0142,36.6094 Z " fill="#000000"/><text fill="#000000" font-family="sans-serif" font-size="14" lengthAdjust="spacing" textLength="141.9824" x="37.0454" y="29.9951">StringIteratorsClient</text><text fill="#000000" font-family="sans-serif" font-size="10" lengthAdjust="spacing" textLength="103.7354" x="56.1689" y="42.5791">it.unimi.di.prog2.s15</text><line style="stroke:#181818;stroke-width:0.5;" x1="9.0454" x2="181.0278" y1="49.9375" y2="49.9375"/><ellipse cx="19.0454" cy="63.5859" fill="#84BE84" rx="3" ry="3" style="stroke:#038048;stroke-width:1.0;"/><text fill="#000000" font-family="sans-serif" font-size="14" lengthAdjust="spacing" text-decoration="underline" textLength="137.4023" x="28.0454" y="66.9326">main(String[]): void</text></g></a><text fill="#888888" font-family="sans-serif" font-size="10" lengthAdjust="spacing" textLength="3.1787" x="89.9561" y="77.2822">&#160;</text><text fill="#888888" font-family="sans-serif" font-size="10" lengthAdjust="spacing" textLength="183.0908" x="0" y="88.9229">UMLDoclet 2.2.0, PlantUML 1.2024.6</text><!--SRC=[RP11Qm9138Nl_efKA2WjWoxjHOgNUX5QA4XFwnx2RjmDp6IMIHIi-DyxhZsLpINmlRn74W20XpvX6n0ydkFHG0CP2aucMG8b0y50scDDE-eneSK44eK6lUE6W49lPpWm-KR_qnpMnOm7NdjKXUcRyW-jbY_hdIMMTciqfEgxPnBRov- -MBEvet1Wrx3hKsmBfylNAQ32gE96yw0iHxdhBFYgWikmsgqkQcXSN-4f8ClixYgh-GfEaPjXx7g_8zifmI76MzlBz-V79jO-_wfmXLiymvT7iKpXyKH9ESfi_Wi0]--></g></svg>